<svg xmlns="http://www.w3.org/2000/svg" width="960" height="958.667" preserveAspectRatio="xMidYMid meet" version="1.0" viewBox="0 0 720 719"><g fill="#000" stroke="none"><path d="M0 7180 c0 -7 1207 -10 3600 -10 2393 0 3600 3 3600 10 0 7 -1207 10 -3600 10 -2393 0 -3600 -3 -3600 -10z" transform="translate(0.000000,719.000000) scale(0.100000,-0.100000)"/><path d="M3627 6595 c-10 -66 -22 -151 -28 -190 -6 -38 -15 -88 -21 -110 -15 -61 -287 -576 -367 -696 l-38 -57 54 -32 c47 -29 53 -36 53 -66 0 -62 -181 -415 -307 -598 l-54 -79 60 -61 61 -62 0 -92 0 -92 -965 0 -965 0 0 -310 0 -310 654 0 655 0 -44 -80 c-25 -44 -162 -301 -306 -572 -251 -473 -328 -616 -680 -1265 -88 -161 -159 -295 -159 -298 0 -3 162 -5 359 -5 l359 0 20 33 c20 32 50 89 137 252 26 50 71 133 100 185 29 52 77 142 107 200 117 223 175 332 276 520 155 287 213 397 252 475 l35 70 3 -141 3 -140 -64 -195 c-36 -107 -84 -246 -107 -309 -23 -63 -47 -131 -53 -151 -10 -34 -14 -37 -56 -43 -25 -3 -70 -11 -98 -18 l-53 -11 0 -206 0 -206 130 -123 130 -123 0 -72 c0 -102 -39 -388 -80 -597 -21 -102 -84 -359 -99 -400 -5 -14 -12 -37 -15 -52 l-6 -28 1029 0 1029 0 -24 78 c-79 252 -150 604 -174 857 -18 195 -16 209 31 260 23 25 79 77 125 116 l84 71 0 212 c0 120 -4 216 -9 221 -9 9 -91 228 -91 242 0 3 68 -93 151 -213 83 -121 173 -250 199 -289 27 -38 111 -161 187 -272 l138 -203 403 0 c221 0 402 2 402 4 0 4 -119 175 -366 526 -29 41 -74 106 -101 145 -100 146 -399 575 -488 700 -50 72 -96 139 -102 149 -9 16 3 38 75 135 47 64 109 148 137 186 28 39 91 124 140 190 153 207 190 257 260 355 38 52 126 172 197 266 70 95 128 174 128 178 0 3 -174 6 -387 6 l-388 -1 -54 -77 c-30 -42 -147 -207 -259 -367 -113 -159 -226 -319 -251 -355 -25 -36 -80 -114 -121 -173 -41 -59 -77 -107 -80 -107 -3 0 -4 71 -2 158 l3 157 54 35 53 34 -47 96 c-27 52 -72 151 -102 220 l-54 125 2 219 2 219 55 56 c31 31 56 60 56 64 0 12 -57 87 -62 82 -3 -3 -5 1 -5 7 0 7 -34 70 -76 141 -42 70 -101 178 -131 240 -108 223 -109 230 -32 278 l54 34 -65 109 c-92 155 -153 266 -233 425 -55 110 -73 156 -84 222 -17 94 -65 376 -69 399 -1 8 -10 -39 -20 -105z m5078 -5700 c49 -143 96 -272 104 -287 l15 -28 -319 0 -319 0 34 103 c109 328 263 812 264 826 0 16 53 -132 221 -614z" transform="translate(0.000000,719.000000) scale(0.100000,-0.100000)"/></g></svg>