<svg xmlns="http://www.w3.org/2000/svg" width="720" height="1087" version="1.1"><path fill="#0C1214" d="M0 0 C237.6 0 475.2 0 720 0 C720 358.71 720 717.42 720 1087 C482.4 1087 244.8 1087 0 1087 C0 728.29 0 369.58 0 0 Z" transform="translate(0,0)"/><path fill="#1F2729" d="M0 0 C237.6 0 475.2 0 720 0 C720.0928125 112.7671875 720.0928125 112.7671875 720.1875 227.8125 C720.21481201 251.59159424 720.24212402 275.37068848 720.27026367 299.87036133 C720.28381348 328.80212402 720.28381348 328.80212402 720.28633118 342.32597351 C720.28913764 351.81586415 720.3001794 361.30570229 720.31672668 370.795578 C720.33576138 381.72805926 720.34452227 392.66048985 720.34033485 403.59298782 C720.33851986 409.19089116 720.34148836 414.78868112 720.35764539 420.3865639 C720.37214497 425.44065737 720.3730356 430.49455633 720.36270332 435.54865837 C720.36142283 437.38318938 720.36529909 439.21773214 720.37464774 441.05223978 C720.38657941 443.5381799 720.3802654 446.02340778 720.36914349 448.50933552 C720.37702456 449.23306736 720.38490563 449.9567992 720.39302553 450.7024623 C720.34329717 455.57319576 720.34329717 455.57319576 718.51647931 457.84438723 C717.76582205 458.41641555 717.76582205 458.41641555 717 459 C716.32790346 461.00125167 716.32790346 461.00125167 715.875 463.1875 C714.00453952 469.21997987 709.87807531 472.25909659 705 476 C704.21882812 476.60457031 703.43765625 477.20914062 702.6328125 477.83203125 C700.77164156 479.24612376 698.89740376 480.6351101 697 482 C696.34 481.34 695.68 480.68 695 480 C693.68 480 692.36 480 691 480 C690.38125 481.423125 690.38125 481.423125 689.75 482.875 C687.9959869 486.00716624 687.29148243 486.86500606 684 488 C684 488.66 684 489.32 684 490 C682.35 490.66 680.7 491.32 679 492 C679 491.34 679 490.68 679 490 C678.33355469 490.38671875 677.66710937 490.7734375 676.98046875 491.171875 C667.79451471 496.36226022 658.69883677 499.79054022 648.41015625 502.09375 C644.32165242 503.63108045 642.37179296 506.44231056 640 510 C639.26011053 505.28997192 638.86275038 500.69930309 638.6875 495.9375 C638.29631592 487.83007217 637.24215529 479.84816024 636.125 471.8125 C634.62861139 461.03576264 633.32285609 450.26442543 632.25 439.4375 C632.12254395 438.16559814 631.99508789 436.89369629 631.86376953 435.58325195 C631.39006289 430.7023461 630.92557947 425.90780846 631 421 C631.58007812 421.04640625 632.16015625 421.0928125 632.7578125 421.140625 C636.66486224 421.32114875 639.51152566 421.19155856 643.1875 419.75 C646.7389472 416.27747385 648.3625157 412.61804699 650.43359375 408.140625 C651.90494768 405.19057872 653.5216537 402.75120036 655.5 400.125 C659.82060945 394.23588422 662.3389614 387.76469152 665 381 C665.66 381.33 666.32 381.66 667 382 C666.64808594 383.00933594 666.29617188 384.01867187 665.93359375 385.05859375 C662.06495384 396.32343614 658.76497012 407.70312511 655.61328125 419.1875 C654.15779238 424.48403369 652.60588791 429.7472721 651 435 C648.69 435 646.38 435 644 435 C647.15365202 442.39895282 650.823733 447.8152807 657 453 C657.53238281 453.45632813 658.06476562 453.91265625 658.61328125 454.3828125 C664.74768286 458.7362588 672.63419481 457.59133384 679.7109375 456.6328125 C687.02410875 454.94870682 692.16667323 450.61179179 697 445 C698.99297758 441.77540706 700.60318526 438.52144348 702 435 C700.02 435 698.04 435 696 435 C695.60167969 433.78183594 695.20335937 432.56367188 694.79296875 431.30859375 C694.25797544 429.68484214 693.72281004 428.06114722 693.1875 426.4375 C692.92646484 425.63763672 692.66542969 424.83777344 692.39648438 424.01367188 C691.19333818 420.37452598 689.960221 416.79580939 688.41796875 413.28515625 C687.09193546 410.21299647 686.06869871 407.20690535 685.125 404 C683.22355508 397.6471104 681.11607357 391.38452643 678.953125 385.1171875 C678 382 678 382 678 379 C678.98719017 377.9873522 679.98920311 376.98908526 681 376 C683.79020015 370.83019771 686.02784527 364.99138642 685.78515625 359.05078125 C684.34346573 355.28517169 681.0780604 353.85600635 677.67578125 351.99609375 C674.86599726 350.95011577 672.96795592 350.61042375 670 351 C668.94228261 352.63064764 667.94726954 354.30280873 667 356 C666.154375 356.45375 665.30875 356.9075 664.4375 357.375 C661.01136934 359.65908711 660.8122356 362.08650122 660 366 C654.72107745 365.58596686 651.64298863 364.93836608 648 361 C642.49861435 352.37905467 640.86565158 340.75103388 638.50097656 330.92675781 C636.40517835 322.22011198 633.56130797 316.00097851 628 309 C626.73224779 307.36780157 625.48208974 305.72178365 624.25 304.0625 C623.69828125 303.35222656 623.1465625 302.64195312 622.578125 301.91015625 C618.13876296 293.72370893 617.40604134 284.51526403 616.8125 275.375 C616.73136963 274.24215576 616.65023926 273.10931152 616.56665039 271.94213867 C616.04094135 264.10768328 615.84296212 256.33652544 616.02734375 248.48828125 C616.13025116 244.94633868 616.13025116 244.94633868 615.13671875 241.38671875 C615 238 615 238 617.4296875 235.15625 C618.55899173 234.24655592 619.70889434 233.36201448 620.875 232.5 C621.46692139 232.03295654 622.05884277 231.56591309 622.66870117 231.0847168 C624.43014191 229.70135767 626.21309602 228.35020679 628 227 C629.77124676 225.60469133 631.54215281 224.20894986 633.3125 222.8125 C634.53935872 221.87198173 635.76750945 220.93312592 637 220 C630.70859684 220.71568872 624.97832857 222.42683629 618.96484375 224.359375 C613.31579061 226.10526354 613.31579061 226.10526354 610 225 C608.89145594 222.54232693 608.94353076 221.22348419 609.60498047 218.60571289 C609.93900879 217.7368042 610.27303711 216.86789551 610.6171875 215.97265625 C611.15666016 214.53696289 611.15666016 214.53696289 611.70703125 213.07226562 C612.09246094 212.07904297 612.47789062 211.08582031 612.875 210.0625 C613.62562186 208.09628062 614.37312817 206.1288684 615.1171875 204.16015625 C615.45347168 203.29011963 615.78975586 202.42008301 616.13623047 201.52368164 C616.99074053 199.02705345 617.54414513 196.59627689 618 194 C617.34 194 616.68 194 616 194 C615.73646729 194.58499268 615.47293457 195.16998535 615.20141602 195.77270508 C613.94839959 198.09566156 612.58920941 199.72491989 610.77734375 201.63671875 C610.15666016 202.29607422 609.53597656 202.95542969 608.89648438 203.63476562 C608.25001953 204.31216797 607.60355469 204.98957031 606.9375 205.6875 C606.28716797 206.37650391 605.63683594 207.06550781 604.96679688 207.77539062 C600.54255022 212.45744978 600.54255022 212.45744978 599 214 C596.66055264 213.71269945 594.3260857 213.38063221 592 213 C588.93325434 205.70611843 587.40366145 198.23186599 585.8125 190.5 C585.53768621 189.1873791 585.26230002 187.8748779 584.98632812 186.5625 C584.31859584 183.37612838 583.65665928 180.18866865 583 177 C582.85900879 177.73524902 582.71801758 178.47049805 582.57275391 179.22802734 C581.92390667 182.61042922 581.27445707 185.99271517 580.625 189.375 C580.40328125 190.53128906 580.1815625 191.68757812 579.953125 192.87890625 C578.66364979 199.59176247 577.35382476 206.2998121 576 213 C574.23217773 213.69018555 574.23217773 213.69018555 572 214 C570.15649414 212.80004883 570.15649414 212.80004883 568.28515625 210.95703125 C567.59873047 210.29509766 566.91230469 209.63316406 566.20507812 208.95117188 C565.14450195 207.8925293 565.14450195 207.8925293 564.0625 206.8125 C562.65903909 205.44248545 561.25412616 204.07395655 559.84765625 202.70703125 C559.18781738 202.0620166 558.52797852 201.41700195 557.84814453 200.75244141 C555.67211353 198.68909259 553.39004693 196.81007468 551 195 C551.68270037 196.68944746 552.37161425 198.37638334 553.0625 200.0625 C553.50722656 201.14789063 553.95195313 202.23328125 554.41015625 203.3515625 C555.5424194 205.94992561 556.70806435 208.44384428 557.99609375 210.9609375 C558.32794678 211.622146 558.6597998 212.28335449 559.00170898 212.96459961 C559.65906138 214.26371057 560.33404078 215.55407467 561.02758789 216.83422852 C561.9375 218.65234375 561.9375 218.65234375 563 222 C561.6875 224.94140625 561.6875 224.94140625 560 227 C554.08175288 226.03798041 548.45412154 223.94769228 542.7734375 222.08398438 C541.9484375 221.81779297 541.1234375 221.55160156 540.2734375 221.27734375 C539.52497559 221.03234131 538.77651367 220.78733887 538.00537109 220.53491211 C535.86280573 219.87113573 535.86280573 219.87113573 533 220 C534.76385746 221.67458719 536.53511986 223.33984844 538.3125 225 C538.8485083 225.50692383 539.3845166 226.01384766 539.93676758 226.53613281 C543.4708992 229.80957105 547.02841253 232.28292974 551.1875 234.75 C554.86949763 237.27314287 555.84778308 238.29237694 556.80078125 242.72265625 C557.01014668 245.42720316 556.96250264 247.98077717 556.875 250.70703125 C556.91625 251.79371094 556.9575 252.88039062 557 254 C557.49604736 254.38994141 557.99209473 254.77988281 558.50317383 255.18164062 C560.96978024 258.17809871 560.24790575 261.69588753 560.07421875 265.38671875 C560.03455742 266.61223198 560.03455742 266.61223198 559.99409485 267.86250305 C559.90633415 270.47157907 559.79718662 273.07926267 559.6875 275.6875 C559.62424082 277.45633034 559.56237477 279.22521109 559.50195312 280.99414062 C559.35079406 285.33017754 559.18045018 289.66508727 559 294 C550.60583501 296.76901429 550.60583501 296.76901429 547.06884766 295.07519531 C545.30949173 293.53072654 543.81812476 291.91752409 542.3125 290.125 C541.76432617 289.52381348 541.21615234 288.92262695 540.65136719 288.30322266 C539.07156826 286.55907594 537.53579548 284.78283336 536 283 C535.22527344 282.15953125 534.45054687 281.3190625 533.65234375 280.453125 C529.19442949 275.58328848 529.19442949 275.58328848 528 272 C527.36964844 271.69578125 526.73929688 271.3915625 526.08984375 271.078125 C519.69311218 267.7781289 517.24817461 255.71609621 515.06640625 249.3828125 C512.69352471 241.8556498 511.76734498 234.63681896 511.44140625 226.76171875 C511.17518042 223.92583982 511.17518042 223.92583982 509.4765625 221.6015625 C507.51938499 218.15320213 507.70223277 215.6203645 507.8125 211.6875 C507.83957031 210.43324219 507.86664063 209.17898437 507.89453125 207.88671875 C507.94673828 206.45779297 507.94673828 206.45779297 508 205 C509.134375 204.731875 510.26875 204.46375 511.4375 204.1875 C512.613125 203.795625 513.78875 203.40375 515 203 C516.15570704 199.53287889 516.32835293 196.4585044 516.5625 192.8125 C516.64628906 191.54019531 516.73007812 190.26789063 516.81640625 188.95703125 C516.87699219 187.98121094 516.93757812 187.00539062 517 186 C515.35837891 186.01546875 515.35837891 186.01546875 513.68359375 186.03125 C510.58479113 186.00496111 507.99270059 185.72550317 505 185 C509 181 509 181 510.6875 179.375 C514.00007478 175.90468356 513.26477632 171.6801884 513.2109375 167.15234375 C512.61954933 158.31437617 508.0354946 150.71837316 504 143 C503.62488281 143.50789062 503.24976563 144.01578125 502.86328125 144.5390625 C498.23585183 150.76336303 493.49397486 156.50602514 488 162 C486.008168 165.98366401 486.46601118 170.67128209 487 175 C488.33266375 178.25244511 490.00384159 181.11269944 492 184 C491.37351562 184.06058594 490.74703125 184.12117187 490.1015625 184.18359375 C489.28429687 184.26738281 488.46703125 184.35117188 487.625 184.4375 C486.81289063 184.51871094 486.00078125 184.59992188 485.1640625 184.68359375 C482.95727195 184.89090114 482.95727195 184.89090114 481 186 C480.945862 188.24973447 480.90714509 190.49984383 480.875 192.75 C480.84019531 194.62945312 480.84019531 194.62945312 480.8046875 196.546875 C480.98481995 199.73161677 481.11178212 201.46581285 483 204 C486.05908413 204.81584568 486.05908413 204.81584568 489 205 C489.02715383 206.74991334 489.04646551 208.49994945 489.0625 210.25 C489.07410156 211.22453125 489.08570313 212.1990625 489.09765625 213.203125 C489 216 489 216 488.47265625 217.91796875 C487.95920412 220.17970416 488.04463782 221.81718781 488.33984375 224.109375 C488.4800293 225.24052734 488.4800293 225.24052734 488.62304688 226.39453125 C488.72681641 227.17183594 488.83058594 227.94914063 488.9375 228.75 C489.08735352 229.93916016 489.08735352 229.93916016 489.24023438 231.15234375 C489.48692871 233.10240371 489.7425878 235.05132586 490 237 C491.32 237.33 492.64 237.66 494 238 C494.13277344 239.13179687 494.26554687 240.26359375 494.40234375 241.4296875 C494.5805342 242.91148179 494.75893029 244.39325136 494.9375 245.875 C495.02451172 246.62136719 495.11152344 247.36773437 495.20117188 248.13671875 C495.63326063 252.1953231 495.63326063 252.1953231 497 256 C497.99 256.33 498.98 256.66 500 257 C500.95141602 258.85424805 500.95141602 258.85424805 501.75390625 261.26171875 C502.05103516 262.13376953 502.34816406 263.00582031 502.65429688 263.90429688 C502.95400391 264.82275391 503.25371094 265.74121094 503.5625 266.6875 C504.01786133 268.03618164 504.01786133 268.03618164 504.48242188 269.41210938 C505.07105774 271.16006292 505.65235966 272.91050679 506.22558594 274.66357422 C506.85950786 276.57613183 507.54213419 278.47248435 508.23828125 280.36328125 C509.03163245 283.10949694 509.05607804 284.70278253 508.625 287.5 C508.40783315 289.66579911 508.20128576 291.83266725 508 294 C507.92297852 294.7640918 507.84595703 295.52818359 507.76660156 296.31542969 C506.1073432 314.92333574 512.06377975 326.59797455 522.1796875 341.8125 C522.68395264 342.57328857 523.18821777 343.33407715 523.70776367 344.11791992 C524.66348156 345.53533422 525.64155043 346.93804512 526.64575195 348.3215332 C529.79489458 352.84392552 530.79624548 356.44874834 530 362 C529.46067867 364.91327137 528.76191921 367.76265487 528 370.625 C525.51633506 378.86371973 525.51633506 378.86371973 527 387 C527.039992 388.99960012 527.04346799 391.00047242 527 393 C519.69519493 397.37965083 513.49329886 398.83947373 505 399 C504.67 398.34 504.34 397.68 504 397 C502.4840625 397.061875 502.4840625 397.061875 500.9375 397.125 C496.92793492 396.99771222 493.80362009 396.22002909 490 395 C489.21625 394.814375 488.4325 394.62875 487.625 394.4375 C486 394 486 394 485 393 C481.42533316 392.69191233 477.83630686 392.72154722 474.25 392.6875 C472.74566406 392.64399414 472.74566406 392.64399414 471.2109375 392.59960938 C465.28831904 392.48561489 465.28831904 392.48561489 460.0390625 394.94140625 C459.36617188 395.62074219 458.69328125 396.30007813 458 397 C450.5813862 400.08381593 443.52822723 399.23058585 436 397 C433.20755955 396.83071457 433.20755955 396.83071457 431 397 C431 396.34 431 395.68 431 395 C429.68 394.67 428.36 394.34 427 394 C430.24509304 391.96022723 433.40608886 390.33488128 437 389 C437 386.36 437 383.72 437 381 C431.71533736 380.54470599 428.1714993 382.0512359 423.625 384.5 C422.19807971 385.24119939 420.77099173 385.98207602 419.34375 386.72265625 C418.62058594 387.10309082 417.89742188 387.48352539 417.15234375 387.87548828 C413.83312335 389.6096454 410.47921876 391.27235049 407.125 392.9375 C402.77156133 395.10524149 398.42753859 397.28942506 394.09765625 399.50390625 C393.27958496 399.91970947 392.46151367 400.3355127 391.61865234 400.76391602 C390.026653 401.57334488 388.4370278 402.38746439 386.85009766 403.20678711 C386.12999512 403.57167236 385.40989258 403.93655762 384.66796875 404.3125 C384.03141357 404.63863281 383.3948584 404.96476562 382.73901367 405.30078125 C381 406 381 406 378 406 C378.04640625 405.3709375 378.0928125 404.741875 378.140625 404.09375 C378.38434134 398.31419113 377.79913647 394.55885049 374.77734375 389.59375 C374.39255859 388.80484375 374.39255859 388.80484375 374 388 C374.33 387.34 374.66 386.68 375 386 C376.32 386.66 377.64 387.32 379 388 C377.37450656 384.65870794 376.54949152 383.23382618 373.0625 381.75 C368.64302759 379.22458719 367.65918527 375.65547867 366 371 C364.515 372.98 364.515 372.98 363 375 C362.443125 374.38125 361.88625 373.7625 361.3125 373.125 C356.26645626 368.48809494 351.18540512 368.74165704 344.6875 368.875 C343.43356445 368.88853516 343.43356445 368.88853516 342.15429688 368.90234375 C340.10274031 368.92579011 338.05133223 368.96165734 336 369 C335.67 369.66 335.34 370.32 335 371 C333.28515625 371.45703125 333.28515625 371.45703125 331.0625 371.8125 C323.21755355 373.42139999 313.91606724 377.36586082 309 384 C309.19053578 386.89802603 309.19053578 386.89802603 310 390 C309.25206416 393.09859134 308.16582411 396.0360404 307 399 C306.40703125 398.68289063 305.8140625 398.36578125 305.203125 398.0390625 C302.50516805 396.76662181 299.94225259 396.40121626 297 396 C297 395.34 297 394.68 297 394 C293.85746901 393.46347032 290.72549742 392.96506331 287.5625 392.5625 C284 392 284 392 280.4375 390.9375 C277.14057625 389.85017504 277.14057625 389.85017504 274.1875 390.125 C270.1659497 389.96729215 267.25611575 388.58229053 263.5859375 387.01171875 C261.15059305 386.05891782 258.87165966 385.4484585 256.3125 384.9375 C248.53066609 383.32137743 243.42790764 379.99644663 237.12890625 375.265625 C233.04077099 372.30542718 228.7991843 369.62407069 224.50756836 366.97021484 C220.10466843 364.20933687 220.10466843 364.20933687 219 362 C213.50062294 363.28038932 209.65846362 365.24110825 205.125 368.5625 C204.25488281 369.1802832 204.25488281 369.1802832 203.3671875 369.81054688 C200.56396591 371.75922829 200.56396591 371.75922829 198 374 C196.9275 374 195.855 374 194.75 374 C191.03174257 374.60273237 191.03174257 374.60273237 189.49609375 376.8203125 C186.91409858 381.36770698 185.22568285 385.90870202 184 391 C181.6528377 399.65516097 181.6528377 399.65516097 180 402 C177.390625 402.609375 177.390625 402.609375 174.25 402.75 C173.22390625 402.80671875 172.1978125 402.8634375 171.140625 402.921875 C169.03317145 402.97429922 166.92431975 402.98548162 164.81640625 402.95703125 C161.42680295 403.00874503 157.50432099 403.49567901 155 406 C149.88372645 406.65593251 146.20356567 405.04630743 141.6015625 403.0859375 C137.80538945 401.50134875 133.91410644 400.2566763 130 399 C129.01 398.67 128.02 398.34 127 398 C126.01 398.33 125.02 398.66 124 399 C122.02471212 399 120.0492907 398.99795624 118.07421875 398.96875 C115.31983177 399.01024736 112.69640694 399.46071861 110 400 C108.81293253 396.56137521 108.89247448 395.23984164 110.40625 391.86328125 C111.09354404 390.67348768 111.79220661 389.49021404 112.5 388.3125 C117.29782883 379.89388977 120.6716777 371.08007927 124 362 C124.66 362 125.32 362 126 362 C127.37388326 357.59949272 128.27474357 353.62398621 128 349 C124.56204431 344.1638973 119.8748242 341.2498828 115 338 C115 337.34 115 336.68 115 336 C112.43483083 335.14494361 111.2921992 334.89733542 108.6875 335.8125 C105.46677733 336.03720158 105.03352458 335.56690972 102.625 333.5625 C99.31754727 330.47940402 96.37098229 327.10930366 93.48046875 323.63671875 C92.07899285 321.88811115 92.07899285 321.88811115 90 321 C87.28470076 322.22834966 84.68881353 323.60151283 82.109375 325.09375 C75.59989628 328.68165165 70.2854965 328.82137412 63 327 C62.67 327.66 62.34 328.32 62 329 C62.825 329.61875 63.65 330.2375 64.5 330.875 C65.325 331.57625 66.15 332.2775 67 333 C67 333.66 67 334.32 67 335 C58.16481373 333.89560172 49.16875852 329.46967357 43 323 C41.57624791 320.67493707 40.29084494 318.33223447 39.078125 315.890625 C38.1398301 313.83848135 38.1398301 313.83848135 36 313 C35.505 311.515 35.505 311.515 35 310 C34.34 309.34 33.68 308.68 33 308 C30 303.38461538 30 303.38461538 30 301 C29.34 300.67 28.68 300.34 28 300 C27.19637952 297.7039415 26.59442431 295.38359133 25.9765625 293.03125 C25.18852032 290.85548806 25.18852032 290.85548806 23.1484375 290.09375 C20.43833491 289.97549098 19.25474426 290.50436803 17 292 C15.34628524 293.70215357 15.34628524 293.70215357 13.8125 295.6875 C10.05531046 300.14559692 5.80187522 303.70257495 1 307 C0.67 307 0.34 307 0 307 C0 205.69 0 104.38 0 0 Z" transform="translate(0,0)"/><path fill="#0C354B" d="M0 0 C0.33 0 0.66 0 1 0 C1.13535156 1.05574219 1.27070313 2.11148438 1.41015625 3.19921875 C3.05747558 14.89772854 6.24637554 25.62958798 10.20703125 36.73974609 C11.18754844 39.53458233 12.06103299 42.35854622 12.9375 45.1875 C15.17094851 51.9266881 18.16257174 58.34502534 21.09765625 64.80078125 C21.73185172 66.20048419 22.36596941 67.60022237 23 69 C23.30147949 69.65790527 23.60295898 70.31581055 23.91357422 70.99365234 C25.19173076 73.85207515 26 75.82972391 26 79 C26.66 79 27.32 79 28 79 C28.50660156 80.03060547 28.50660156 80.03060547 29.0234375 81.08203125 C29.46945312 81.98308594 29.91546875 82.88414063 30.375 83.8125 C30.81585938 84.70582031 31.25671875 85.59914063 31.7109375 86.51953125 C33.01866905 89.14556381 33.01866905 89.14556381 35 92 C35 92.99 35 93.98 35 95 C35.66 95 36.32 95 37 95 C37.4021875 96.1446875 37.4021875 96.1446875 37.8125 97.3125 C38.95800967 99.90496926 39.99711522 101.08815544 42 103 C42 103.66 42 104.32 42 105 C61.83412263 104.32500435 80.83853615 103.62184046 100 98 C100.66 98 101.32 98 102 98 C102 92.06 102 86.12 102 80 C125.1 80 148.2 80 172 80 C172 107.06 172 134.12 172 162 C175.48135038 158.51864962 178.04964521 155.76147018 180.75 151.8125 C181.63945313 150.52279297 181.63945313 150.52279297 182.546875 149.20703125 C184.00798443 147.08264535 184.00798443 147.08264535 185 145 C185.66 145 186.32 145 187 145 C187.37318359 143.91332031 187.37318359 143.91332031 187.75390625 142.8046875 C189.11538632 139.74029034 190.75889276 137.66467995 192.9375 135.125 C195.34086876 132.21497513 197.3881446 129.65517267 198.75 126.125 C200.08282872 122.79292821 201.46358377 121.45955513 204 119 C205.45326667 116.71842092 206.71596168 114.38464259 208 112 C208.66 112 209.32 112 210 112 C210.33 111.01 210.66 110.02 211 109 C211.66 109 212.32 109 213 109 C213.061875 108.278125 213.12375 107.55625 213.1875 106.8125 C214.27387916 103.05195676 216.11405526 101.63499302 219 99 C224.52872972 93.84712691 227.52763735 89.30093136 230.62573242 82.35522461 C232.63653728 79.61774431 233.70273085 79.05923595 237.08120728 78.38601685 C241.19302704 78.18675114 245.25036027 78.21269517 249.36328125 78.31640625 C250.88068862 78.3294704 252.39812561 78.33943072 253.91557312 78.34642029 C257.89973199 78.37308321 261.88208986 78.44178542 265.86553955 78.51934814 C269.9342004 78.59109849 274.00315379 78.62295665 278.07226562 78.65820312 C286.04900144 78.73316242 294.02427638 78.85254997 302 79 C303 82 303 82 302.28515625 83.91015625 C298.7651877 90.1066504 294.58402572 95.55149301 290 101 C290.94915283 100.9685791 290.94915283 100.9685791 291.91748047 100.93652344 C310.50013271 100.40549449 326.32237072 101.89746951 343.27734375 109.73046875 C346.64224216 110.87799444 349.22711897 111.29938939 352.73266602 111.5793457 C353.72001236 111.66070267 354.7073587 111.74205963 355.72462463 111.82588196 C356.4754985 111.88334091 357.22637238 111.94079987 358 112 C358.06861479 151.44108928 358.12150266 190.8821708 358.15319599 230.3233078 C358.15694826 234.97603668 358.16083122 239.62876544 358.16479492 244.28149414 C358.16558185 245.20779779 358.16636878 246.13410144 358.16717956 247.08847489 C358.1802458 262.10174087 358.20390633 277.11497251 358.23145839 292.12821809 C358.25947874 307.52464939 358.27616911 322.92106266 358.28226548 338.31751841 C358.28638894 347.823667 358.29942858 357.32971854 358.3237494 366.83583727 C358.33956502 373.34794609 358.34440987 379.86000449 358.34050413 386.37213115 C358.33857605 390.13348937 358.34160305 393.8946776 358.35761642 397.65600586 C358.37482479 401.72759563 358.36899135 405.79882001 358.36076355 409.87043762 C358.36950207 411.06789307 358.3782406 412.26534852 358.38724393 413.49909049 C358.38127078 414.58491627 358.37529764 415.67074204 358.36914349 416.78947163 C358.37085223 418.20032251 358.37085223 418.20032251 358.37259549 419.63967544 C357.92984824 422.44439864 357.11140259 423.19261852 355 425 C354.32790346 427.00125167 354.32790346 427.00125167 353.875 429.1875 C352.00453952 435.21997987 347.87807531 438.25909659 343 442 C342.21882813 442.60457031 341.43765625 443.20914062 340.6328125 443.83203125 C338.77164156 445.24612376 336.89740376 446.6351101 335 448 C334.34 447.34 333.68 446.68 333 446 C331.68 446 330.36 446 329 446 C328.5875 446.94875 328.175 447.8975 327.75 448.875 C325.9959869 452.00716624 325.29148243 452.86500606 322 454 C322 454.66 322 455.32 322 456 C320.35 456.66 318.7 457.32 317 458 C317 457.34 317 456.68 317 456 C316.00033203 456.58007812 316.00033203 456.58007812 314.98046875 457.171875 C305.79451471 462.36226022 296.69883677 465.79054022 286.41015625 468.09375 C282.32165242 469.63108045 280.37179296 472.44231056 278 476 C277.26011053 471.28997192 276.86275038 466.69930309 276.6875 461.9375 C276.29631592 453.83007217 275.24215529 445.84816024 274.125 437.8125 C272.62861139 427.03576264 271.32285609 416.26442543 270.25 405.4375 C270.12254395 404.16559814 269.99508789 402.89369629 269.86376953 401.58325195 C269.39006289 396.7023461 268.92557947 391.90780846 269 387 C269.58007812 387.04640625 270.16015625 387.0928125 270.7578125 387.140625 C274.66486224 387.32114875 277.51152566 387.19155856 281.1875 385.75 C284.7389472 382.27747385 286.3625157 378.61804699 288.43359375 374.140625 C289.90494768 371.19057872 291.5216537 368.75120036 293.5 366.125 C297.82060945 360.23588422 300.3389614 353.76469152 303 347 C303.66 347.33 304.32 347.66 305 348 C304.64808594 349.00933594 304.29617188 350.01867187 303.93359375 351.05859375 C300.06495384 362.32343614 296.76497012 373.70312511 293.61328125 385.1875 C292.15779238 390.48403369 290.60588791 395.7472721 289 401 C286.69 401 284.38 401 282 401 C285.15365202 408.39895282 288.823733 413.8152807 295 419 C295.53238281 419.45632813 296.06476563 419.91265625 296.61328125 420.3828125 C302.74768286 424.7362588 310.63419481 423.59133384 317.7109375 422.6328125 C325.02410875 420.94870682 330.16667323 416.61179179 335 411 C336.99297758 407.77540706 338.60318526 404.52144348 340 401 C338.02 401 336.04 401 334 401 C333.60167969 399.78183594 333.20335937 398.56367188 332.79296875 397.30859375 C332.25797544 395.68484214 331.72281004 394.06114722 331.1875 392.4375 C330.79594727 391.23770508 330.79594727 391.23770508 330.39648438 390.01367188 C329.19333818 386.37452598 327.960221 382.79580939 326.41796875 379.28515625 C325.09193546 376.21299647 324.06869871 373.20690535 323.125 370 C321.22355508 363.6471104 319.11607357 357.38452643 316.953125 351.1171875 C316 348 316 348 316 345 C316.98719017 343.9873522 317.98920311 342.98908526 319 342 C321.79020015 336.83019771 324.02784527 330.99138642 323.78515625 325.05078125 C322.34346573 321.28517169 319.0780604 319.85600635 315.67578125 317.99609375 C312.86599726 316.95011577 310.96795592 316.61042375 308 317 C306.94228261 318.63064764 305.94726954 320.30280873 305 322 C304.154375 322.45375 303.30875 322.9075 302.4375 323.375 C299.01136934 325.65908711 298.8122356 328.08650122 298 332 C292.72107745 331.58596686 289.64298863 330.93836608 286 327 C280.49861435 318.37905467 278.86565158 306.75103388 276.50097656 296.92675781 C274.40517835 288.22011198 271.56130797 282.00097851 266 275 C264.73224779 273.36780157 263.48208974 271.72178365 262.25 270.0625 C261.69828125 269.35222656 261.1465625 268.64195312 260.578125 267.91015625 C256.13876296 259.72370893 255.40604134 250.51526403 254.8125 241.375 C254.73136963 240.24215576 254.65023926 239.10931152 254.56665039 237.94213867 C254.04094135 230.10768328 253.84296212 222.33652544 254.02734375 214.48828125 C254.13025116 210.94633868 254.13025116 210.94633868 253.13671875 207.38671875 C253 204 253 204 255.4296875 201.15625 C256.55899173 200.24655592 257.70889434 199.36201448 258.875 198.5 C259.46692139 198.03295654 260.05884277 197.56591309 260.66870117 197.0847168 C262.43014191 195.70135767 264.21309602 194.35020679 266 193 C267.77124676 191.60469133 269.54215281 190.20894986 271.3125 188.8125 C272.53935872 187.87198173 273.76750945 186.93312592 275 186 C268.70859684 186.71568872 262.97832857 188.42683629 256.96484375 190.359375 C251.31579061 192.10526354 251.31579061 192.10526354 248 191 C246.89145594 188.54232693 246.94353076 187.22348419 247.60498047 184.60571289 C247.93900879 183.7368042 248.27303711 182.86789551 248.6171875 181.97265625 C248.97683594 181.01552734 249.33648438 180.05839844 249.70703125 179.07226562 C250.09246094 178.07904297 250.47789062 177.08582031 250.875 176.0625 C251.62562186 174.09628062 252.37312817 172.1288684 253.1171875 170.16015625 C253.45347168 169.29011963 253.78975586 168.42008301 254.13623047 167.52368164 C254.99074053 165.02705345 255.54414513 162.59627689 256 160 C255.34 160 254.68 160 254 160 C253.73646729 160.58499268 253.47293457 161.16998535 253.20141602 161.77270508 C251.94839959 164.09566156 250.58920941 165.72491989 248.77734375 167.63671875 C248.15666016 168.29607422 247.53597656 168.95542969 246.89648438 169.63476562 C246.25001953 170.31216797 245.60355469 170.98957031 244.9375 171.6875 C244.28716797 172.37650391 243.63683594 173.06550781 242.96679688 173.77539062 C238.54255022 178.45744978 238.54255022 178.45744978 237 180 C234.66055264 179.71269945 232.3260857 179.38063221 230 179 C226.93325434 171.70611843 225.40366145 164.23186599 223.8125 156.5 C223.53768621 155.1873791 223.26230002 153.8748779 222.98632812 152.5625 C222.31859584 149.37612838 221.65665928 146.18866865 221 143 C220.85900879 143.73524902 220.71801758 144.47049805 220.57275391 145.22802734 C219.92390667 148.61042922 219.27445707 151.99271517 218.625 155.375 C218.40328125 156.53128906 218.1815625 157.68757812 217.953125 158.87890625 C216.66364979 165.59176247 215.35382476 172.2998121 214 179 C212.23217773 179.69018555 212.23217773 179.69018555 210 180 C208.15649414 178.80004883 208.15649414 178.80004883 206.28515625 176.95703125 C205.59873047 176.29509766 204.91230469 175.63316406 204.20507812 174.95117188 C203.49802734 174.24541016 202.79097656 173.53964844 202.0625 172.8125 C200.65903909 171.44248545 199.25412616 170.07395655 197.84765625 168.70703125 C196.85789795 167.73950928 196.85789795 167.73950928 195.84814453 166.75244141 C193.67211353 164.68909259 191.39004693 162.81007468 189 161 C189.68270037 162.68944746 190.37161425 164.37638334 191.0625 166.0625 C191.50722656 167.14789063 191.95195313 168.23328125 192.41015625 169.3515625 C193.5424194 171.94992561 194.70806435 174.44384428 195.99609375 176.9609375 C196.32794678 177.622146 196.6597998 178.28335449 197.00170898 178.96459961 C197.65906138 180.26371057 198.33404078 181.55407467 199.02758789 182.83422852 C199.9375 184.65234375 199.9375 184.65234375 201 188 C199.6875 190.94140625 199.6875 190.94140625 198 193 C192.08175288 192.03798041 186.45412154 189.94769228 180.7734375 188.08398438 C179.9484375 187.81779297 179.1234375 187.55160156 178.2734375 187.27734375 C177.15074463 186.90984009 177.15074463 186.90984009 176.00537109 186.53491211 C173.86280573 185.87113573 173.86280573 185.87113573 171 186 C172.76385746 187.67458719 174.53511986 189.33984844 176.3125 191 C176.8485083 191.50692383 177.3845166 192.01384766 177.93676758 192.53613281 C181.4708992 195.80957105 185.02841253 198.28292974 189.1875 200.75 C192.86949763 203.27314287 193.84778308 204.29237694 194.80078125 208.72265625 C195.01014668 211.42720316 194.96250264 213.98077717 194.875 216.70703125 C194.91625 217.79371094 194.9575 218.88039062 195 220 C195.49604736 220.38994141 195.99209473 220.77988281 196.50317383 221.18164062 C198.96978024 224.17809871 198.24790575 227.69588753 198.07421875 231.38671875 C198.04777786 232.20372757 198.02133698 233.02073639 197.99409485 233.86250305 C197.90633415 236.47157907 197.79718662 239.07926267 197.6875 241.6875 C197.62424082 243.45633034 197.56237477 245.22521109 197.50195312 246.99414062 C197.35079406 251.33017754 197.18045018 255.66508727 197 260 C188.60583501 262.76901429 188.60583501 262.76901429 185.06884766 261.07519531 C183.30949173 259.53072654 181.81812476 257.91752409 180.3125 256.125 C179.76432617 255.52381348 179.21615234 254.92262695 178.65136719 254.30322266 C177.07156826 252.55907594 175.53579548 250.78283336 174 249 C173.22527344 248.15953125 172.45054687 247.3190625 171.65234375 246.453125 C167.19442949 241.58328848 167.19442949 241.58328848 166 238 C165.36964844 237.69578125 164.73929688 237.3915625 164.08984375 237.078125 C157.69311218 233.7781289 155.24817461 221.71609621 153.06640625 215.3828125 C150.69352471 207.8556498 149.76734498 200.63681896 149.44140625 192.76171875 C149.17518042 189.92583982 149.17518042 189.92583982 147.4765625 187.6015625 C145.51938499 184.15320213 145.70223277 181.6203645 145.8125 177.6875 C145.83957031 176.43324219 145.86664063 175.17898437 145.89453125 173.88671875 C145.94673828 172.45779297 145.94673828 172.45779297 146 171 C147.134375 170.731875 148.26875 170.46375 149.4375 170.1875 C150.613125 169.795625 151.78875 169.40375 153 169 C154.15570704 165.53287889 154.32835293 162.4585044 154.5625 158.8125 C154.64628906 157.54019531 154.73007812 156.26789063 154.81640625 154.95703125 C154.87699219 153.98121094 154.93757813 153.00539062 155 152 C153.35837891 152.01546875 153.35837891 152.01546875 151.68359375 152.03125 C148.58479113 152.00496111 145.99270059 151.72550317 143 151 C147 147 147 147 148.6875 145.375 C152.00007478 141.90468356 151.26477632 137.6801884 151.2109375 133.15234375 C150.61954933 124.31437617 146.0354946 116.71837316 142 109 C141.62488281 109.50789063 141.24976563 110.01578125 140.86328125 110.5390625 C136.23585183 116.76336303 131.49397486 122.50602514 126 128 C124.008168 131.98366401 124.46601118 136.67128209 125 141 C126.33266375 144.25244511 128.00384159 147.11269944 130 150 C129.37351562 150.06058594 128.74703125 150.12117187 128.1015625 150.18359375 C127.28429687 150.26738281 126.46703125 150.35117188 125.625 150.4375 C124.81289063 150.51871094 124.00078125 150.59992188 123.1640625 150.68359375 C120.95727195 150.89090114 120.95727195 150.89090114 119 152 C118.945862 154.24973447 118.90714509 156.49984383 118.875 158.75 C118.85179687 160.00296875 118.82859375 161.2559375 118.8046875 162.546875 C118.98481995 165.73161677 119.11178212 167.46581285 121 170 C124.05908413 170.81584568 124.05908413 170.81584568 127 171 C127.02715383 172.74991334 127.04646551 174.49994945 127.0625 176.25 C127.07410156 177.22453125 127.08570313 178.1990625 127.09765625 179.203125 C127 182 127 182 126.47265625 183.91796875 C125.95920412 186.17970416 126.04463782 187.81718781 126.33984375 190.109375 C126.43330078 190.86347656 126.52675781 191.61757812 126.62304688 192.39453125 C126.72681641 193.17183594 126.83058594 193.94914063 126.9375 194.75 C127.03740234 195.54277344 127.13730469 196.33554688 127.24023438 197.15234375 C127.48692871 199.10240371 127.7425878 201.05132586 128 203 C129.32 203.33 130.64 203.66 132 204 C132.13277344 205.13179687 132.26554688 206.26359375 132.40234375 207.4296875 C132.5805342 208.91148179 132.75893029 210.39325136 132.9375 211.875 C133.02451172 212.62136719 133.11152344 213.36773437 133.20117188 214.13671875 C133.63326063 218.1953231 133.63326063 218.1953231 135 222 C135.99 222.33 136.98 222.66 138 223 C138.95141602 224.85424805 138.95141602 224.85424805 139.75390625 227.26171875 C140.19959961 228.56979492 140.19959961 228.56979492 140.65429688 229.90429688 C140.95400391 230.82275391 141.25371094 231.74121094 141.5625 232.6875 C141.86607422 233.58662109 142.16964844 234.48574219 142.48242188 235.41210938 C143.07105774 237.16006292 143.65235966 238.91050679 144.22558594 240.66357422 C144.85950786 242.57613183 145.54213419 244.47248435 146.23828125 246.36328125 C147.03163245 249.10949694 147.05607804 250.70278253 146.625 253.5 C146.40783315 255.66579911 146.20128576 257.83266725 146 260 C145.92297852 260.7640918 145.84595703 261.52818359 145.76660156 262.31542969 C144.1073432 280.92333574 150.06377975 292.59797455 160.1796875 307.8125 C160.68395264 308.57328857 161.18821777 309.33407715 161.70776367 310.11791992 C162.66348156 311.53533422 163.64155043 312.93804512 164.64575195 314.3215332 C167.79489458 318.84392552 168.79624548 322.44874834 168 328 C167.46067867 330.91327137 166.76191921 333.76265487 166 336.625 C163.51633506 344.86371973 163.51633506 344.86371973 165 353 C165.039992 354.99960012 165.04346799 357.00047242 165 359 C157.69519493 363.37965083 151.49329886 364.83947373 143 365 C142.67 364.34 142.34 363.68 142 363 C140.4840625 363.061875 140.4840625 363.061875 138.9375 363.125 C134.92793492 362.99771222 131.80362009 362.22002909 128 361 C127.21625 360.814375 126.4325 360.62875 125.625 360.4375 C124 360 124 360 123 359 C119.42533316 358.69191233 115.83630686 358.72154722 112.25 358.6875 C110.74566406 358.64399414 110.74566406 358.64399414 109.2109375 358.59960938 C103.28831904 358.48561489 103.28831904 358.48561489 98.0390625 360.94140625 C97.02972656 361.96041016 97.02972656 361.96041016 96 363 C88.5813862 366.08381593 81.52822723 365.23058585 74 363 C71.20755955 362.83071457 71.20755955 362.83071457 69 363 C69 362.34 69 361.68 69 361 C67.68 360.67 66.36 360.34 65 360 C68.24509304 357.96022723 71.40608886 356.33488128 75 355 C75 352.36 75 349.72 75 347 C69.71533736 346.54470599 66.1714993 348.0512359 61.625 350.5 C60.19807971 351.24119939 58.77099173 351.98207602 57.34375 352.72265625 C56.62058594 353.10309082 55.89742187 353.48352539 55.15234375 353.87548828 C51.83312335 355.6096454 48.47921876 357.27235049 45.125 358.9375 C40.77156133 361.10524149 36.42753859 363.28942506 32.09765625 365.50390625 C31.27958496 365.91970947 30.46151367 366.3355127 29.61865234 366.76391602 C28.026653 367.57334488 26.4370278 368.38746439 24.85009766 369.20678711 C24.12999512 369.57167236 23.40989258 369.93655762 22.66796875 370.3125 C22.03141357 370.63863281 21.3948584 370.96476562 20.73901367 371.30078125 C19 372 19 372 16 372 C16.04640625 371.3709375 16.0928125 370.741875 16.140625 370.09375 C16.38434134 364.31419113 15.79913647 360.55885049 12.77734375 355.59375 C12.39255859 354.80484375 12.39255859 354.80484375 12 354 C12.33 353.34 12.66 352.68 13 352 C14.32 352.66 15.64 353.32 17 354 C15.37450656 350.65870794 14.54949152 349.23382618 11.0625 347.75 C6.64302759 345.22458719 5.65918527 341.65547867 4 337 C3.01 338.32 2.02 339.64 1 341 C0.443125 340.38125 -0.11375 339.7625 -0.6875 339.125 C-5.73354374 334.48809494 -10.81459488 334.74165704 -17.3125 334.875 C-18.56643555 334.88853516 -18.56643555 334.88853516 -19.84570312 334.90234375 C-21.89725969 334.92579011 -23.94866777 334.96165734 -26 335 C-26.33 335.66 -26.66 336.32 -27 337 C-28.71484375 337.45703125 -28.71484375 337.45703125 -30.9375 337.8125 C-38.78244645 339.42139999 -48.08393276 343.36586082 -53 350 C-52.80946422 352.89802603 -52.80946422 352.89802603 -52 356 C-52.74793584 359.09859134 -53.83417589 362.0360404 -55 365 C-55.59296875 364.68289063 -56.1859375 364.36578125 -56.796875 364.0390625 C-59.49483195 362.76662181 -62.05774741 362.40121626 -65 362 C-65 361.34 -65 360.68 -65 360 C-68.14253099 359.46347032 -71.27450258 358.96506331 -74.4375 358.5625 C-78 358 -78 358 -81.5625 356.9375 C-84.85942375 355.85017504 -84.85942375 355.85017504 -87.8125 356.125 C-91.8340503 355.96729215 -94.74388425 354.58229053 -98.4140625 353.01171875 C-100.84940695 352.05891782 -103.12834034 351.4484585 -105.6875 350.9375 C-112.54879278 349.53377873 -117.27925707 347.29295419 -122 342 C-117 344 -117 344 -114.6875 345.4375 C-111.31629226 346.14310162 -110.64376432 345.43925782 -107.8125 343.625 C-107.13832031 343.14289063 -106.46414062 342.66078125 -105.76953125 342.1640625 C-104 341 -104 341 -102 341 C-102 340.34 -102 339.68 -102 339 C-99.953125 337.66796875 -99.953125 337.66796875 -97.25 336.1875 C-93.24229716 333.87319272 -90.68633336 331.82285901 -88 328 C-85.48413795 325.87724139 -82.9519628 324.4283691 -80 323 C-79.01 322.34 -78.02 321.68 -77 321 C-75.68 321.66 -74.36 322.32 -73 323 C-68.86677786 317.48903714 -66.51856437 311.3789868 -64 305 C-67.07407085 305.07089052 -70.01105724 305.25010511 -73 306 C-75.00864359 308.3726974 -75.00864359 308.3726974 -76 311 C-79.06890187 312.53445094 -81.70094266 311.54984289 -85 311 C-85.33 309.68 -85.66 308.36 -86 307 C-88.29673773 308.06634252 -89.97586193 308.97669428 -91.8125 310.75 C-94 312 -94 312 -97.75 311.1875 C-98.8225 310.795625 -99.895 310.40375 -101 310 C-101.70576172 310.70576172 -101.70576172 310.70576172 -102.42578125 311.42578125 C-105.28385417 314.28385417 -108.14192708 317.14192708 -111 320 C-116.06328208 311.2236444 -115.00235774 298.12234968 -112.75390625 288.5625 C-109.48514098 277.4520854 -105.51893317 267.07818107 -96 260 C-94.824375 258.515 -94.824375 258.515 -93.625 257 C-90.58134329 253.52153518 -88.11953509 252.02090401 -84 250 C-83.34 250 -82.68 250 -82 250 C-81.67 249.34 -81.34 248.68 -81 248 C-72.06760778 244.10222885 -62.7644134 242.19255812 -53 243 C-52.34 243.33 -51.68 243.66 -51 244 C-51.33 240.37 -51.66 236.74 -52 233 C-51.34 232.67 -50.68 232.34 -50 232 C-49.505 238.435 -49.505 238.435 -49 245 C-49 241.10617547 -49.27182965 237.20204423 -49.4375 233.3125 C-49.47681641 232.31798828 -49.51613281 231.32347656 -49.55664062 230.29882812 C-49.79621102 223.08895392 -49.79621102 223.08895392 -51 216 C-51.66 215.67 -52.32 215.34 -53 215 C-53 212.36 -53 209.72 -53 207 C-54.65 206.67 -56.3 206.34 -58 206 C-58 205.34 -58 204.68 -58 204 C-58.66 203.67 -59.32 203.34 -60 203 C-59.34 203 -58.68 203 -58 203 C-57.9175 202.278125 -57.835 201.55625 -57.75 200.8125 C-57 198 -57 198 -54.9375 195.5625 C-52.56487413 192.42451094 -52.91504057 190.82317456 -53 187 C-52.01 186.34 -51.02 185.68 -50 185 C-49.67 185.33 -49.34 185.66 -49 186 C-46.96564469 182.27034861 -46 180.33094958 -46 176 C-45.34 175.34 -44.68 174.68 -44 174 C-43.67 174 -43.34 174 -43 174 C-42.10166114 172.75999784 -41.25594726 171.48162601 -40.4375 170.1875 C-39.98246094 169.47980469 -39.52742188 168.77210938 -39.05859375 168.04296875 C-37.76996531 165.93954914 -37.76996531 165.93954914 -38 163 C-37.83628906 162.24356201 -37.67257812 161.48712402 -37.50390625 160.70776367 C-36.93211347 157.63520857 -36.90431007 154.80047462 -36.9375 151.67578125 C-36.94910156 149.88624023 -36.94910156 149.88624023 -36.9609375 148.06054688 C-36.98027344 146.20526367 -36.98027344 146.20526367 -37 144.3125 C-37.02542278 141.85030353 -37.0464852 139.38805689 -37.0625 136.92578125 C-37.07410156 135.83692627 -37.08570313 134.74807129 -37.09765625 133.6262207 C-37 131 -37 131 -36 129 C-36.66 128.67 -37.32 128.34 -38 128 C-38 127.34 -38 126.68 -38 126 C-38.61875 125.855625 -39.2375 125.71125 -39.875 125.5625 C-42 125 -42 125 -44 124 C-44 123.34 -44 122.68 -44 122 C-44.99 122 -45.98 122 -47 122 C-48 120 -48 120 -49 117 C-48.3190918 115.25415039 -48.3190918 115.25415039 -47.19921875 113.34765625 C-46.79896484 112.65349609 -46.39871094 111.95933594 -45.98632812 111.24414062 C-45.55771484 110.52419922 -45.12910156 109.80425781 -44.6875 109.0625 C-43.85740944 107.63710493 -43.02796212 106.21133502 -42.19921875 104.78515625 C-41.82627686 104.15488525 -41.45333496 103.52461426 -41.0690918 102.87524414 C-39.97113419 100.94936783 -38.97389719 98.99107258 -38 97 C-37.34 97 -36.68 97 -36 97 C-35.5978125 95.6078125 -35.5978125 95.6078125 -35.1875 94.1875 C-34 91 -34 91 -32.5 89.5625 C-30.16783158 87.13315789 -29.85772604 84.21647265 -29 81 C-28.07009607 78.62920533 -27.04358362 76.32434532 -26 74 C-25.34 74 -24.68 74 -24 74 C-23.896875 73.154375 -23.79375 72.30875 -23.6875 71.4375 C-22.93365285 67.66826426 -21.61031375 64.45821478 -20 61 C-17.1091775 54.73029407 -14.33588567 48.49752107 -12 42 C-11.5010921 40.68708448 -11.00107389 39.3745904 -10.5 38.0625 C-7.57327269 30.20676021 -5.25416303 22.35953924 -3.375 14.1875 C-2.94540002 12.34763581 -2.5157158 10.50779129 -2.0859375 8.66796875 C-1.9007959 7.86641357 -1.7156543 7.0648584 -1.52490234 6.23901367 C-1.03610848 4.15402368 -0.52517882 2.07608825 0 0 Z" transform="translate(362,34)"/><path fill="#383F40" d="M0 0 C3.36489841 1.14752569 5.94977522 1.56892064 9.45532227 1.84887695 C10.44266861 1.93023392 11.43001495 2.01159088 12.44728088 2.09541321 C13.19815475 2.15287216 13.94902863 2.21033112 14.72265625 2.26953125 C14.79127104 41.71062053 14.84415891 81.15170205 14.87585224 120.59283905 C14.87960451 125.24556793 14.88348747 129.89829669 14.88745117 134.55102539 C14.8882381 135.47732904 14.88902503 136.40363269 14.88983581 137.35800614 C14.90290205 152.37127212 14.92656258 167.38450376 14.95411464 182.39774934 C14.98213499 197.79418064 14.99882536 213.19059391 15.00492173 228.58704966 C15.00904519 238.09319825 15.02208483 247.59924979 15.04640565 257.10536852 C15.06222127 263.61747734 15.06706612 270.12953574 15.06316038 276.6416624 C15.0612323 280.40302062 15.0642593 284.16420885 15.08027267 287.92553711 C15.09748104 291.99712688 15.0916476 296.06835126 15.0834198 300.13996887 C15.09215832 301.33742432 15.10089685 302.53487977 15.10990018 303.76862174 C15.10392703 304.85444752 15.09795389 305.94027329 15.09179974 307.05900288 C15.0929389 307.99957013 15.09407806 308.94013739 15.09525174 309.90920669 C14.65250449 312.71392989 13.83405884 313.46214977 11.72265625 315.26953125 C11.05055971 317.27078292 11.05055971 317.27078292 10.59765625 319.45703125 C8.72719577 325.48951112 4.60073156 328.52862784 -0.27734375 332.26953125 C-1.05851563 332.87410156 -1.8396875 333.47867187 -2.64453125 334.1015625 C-4.50570219 335.51565501 -6.37993999 336.90464135 -8.27734375 338.26953125 C-8.93734375 337.60953125 -9.59734375 336.94953125 -10.27734375 336.26953125 C-11.59734375 336.26953125 -12.91734375 336.26953125 -14.27734375 336.26953125 C-14.68984375 337.21828125 -15.10234375 338.16703125 -15.52734375 339.14453125 C-17.28135685 342.27669749 -17.98586132 343.13453731 -21.27734375 344.26953125 C-21.27734375 344.92953125 -21.27734375 345.58953125 -21.27734375 346.26953125 C-22.92734375 346.92953125 -24.57734375 347.58953125 -26.27734375 348.26953125 C-26.27734375 347.60953125 -26.27734375 346.94953125 -26.27734375 346.26953125 C-27.27701172 346.84960938 -27.27701172 346.84960938 -28.296875 347.44140625 C-37.48282904 352.63179147 -46.57850698 356.06007147 -56.8671875 358.36328125 C-60.95569133 359.9006117 -62.90555079 362.71184181 -65.27734375 366.26953125 C-66.01723322 361.55950317 -66.41459337 356.96883434 -66.58984375 352.20703125 C-66.98102783 344.09960342 -68.03518846 336.11769149 -69.15234375 328.08203125 C-70.64873236 317.30529389 -71.95448766 306.53395668 -73.02734375 295.70703125 C-73.1547998 294.43512939 -73.28225586 293.16322754 -73.41357422 291.8527832 C-73.88728086 286.97187735 -74.35176428 282.17733971 -74.27734375 277.26953125 C-73.69726562 277.3159375 -73.1171875 277.36234375 -72.51953125 277.41015625 C-68.61248151 277.59068 -65.76581809 277.46108981 -62.08984375 276.01953125 C-58.53839655 272.5470051 -56.91482805 268.88757824 -54.84375 264.41015625 C-53.37239607 261.46010997 -51.75569005 259.02073161 -49.77734375 256.39453125 C-45.4567343 250.50541547 -42.93838235 244.03422277 -40.27734375 237.26953125 C-39.61734375 237.59953125 -38.95734375 237.92953125 -38.27734375 238.26953125 C-38.80521484 239.78353516 -38.80521484 239.78353516 -39.34375 241.328125 C-43.21238991 252.59296739 -46.51237363 263.97265636 -49.6640625 275.45703125 C-51.11955137 280.75356494 -52.67145584 286.01680335 -54.27734375 291.26953125 C-56.58734375 291.26953125 -58.89734375 291.26953125 -61.27734375 291.26953125 C-58.12369173 298.66848407 -54.45361075 304.08481195 -48.27734375 309.26953125 C-47.74496094 309.72585938 -47.21257813 310.1821875 -46.6640625 310.65234375 C-40.52966089 315.00579005 -32.64314894 313.86086509 -25.56640625 312.90234375 C-18.253235 311.21823807 -13.11067052 306.88132304 -8.27734375 301.26953125 C-6.28436617 298.04493831 -4.67415849 294.79097473 -3.27734375 291.26953125 C-5.25734375 291.26953125 -7.23734375 291.26953125 -9.27734375 291.26953125 C-9.67566406 290.05136719 -10.07398438 288.83320313 -10.484375 287.578125 C-11.01936831 285.95437339 -11.55453371 284.33067847 -12.08984375 282.70703125 C-12.35087891 281.90716797 -12.61191406 281.10730469 -12.88085938 280.28320312 C-14.08400557 276.64405723 -15.31712275 273.06534064 -16.859375 269.5546875 C-18.18540829 266.48252772 -19.20864504 263.4764366 -20.15234375 260.26953125 C-22.05378867 253.91664165 -24.16127018 247.65405768 -26.32421875 241.38671875 C-27.27734375 238.26953125 -27.27734375 238.26953125 -27.27734375 235.26953125 C-26.29015358 234.25688345 -25.28814064 233.25861651 -24.27734375 232.26953125 C-21.4871436 227.09972896 -19.24949848 221.26091767 -19.4921875 215.3203125 C-20.93387802 211.55470294 -24.19928335 210.1255376 -27.6015625 208.265625 C-30.41134649 207.21964702 -32.30938783 206.879955 -35.27734375 207.26953125 C-36.33506114 208.90017889 -37.33007421 210.57233998 -38.27734375 212.26953125 C-39.12296875 212.72328125 -39.96859375 213.17703125 -40.83984375 213.64453125 C-44.26597441 215.92861836 -44.46510815 218.35603247 -45.27734375 222.26953125 C-50.5562663 221.85549811 -53.63435512 221.20789733 -57.27734375 217.26953125 C-62.7787294 208.64858592 -64.41169217 197.02056513 -66.77636719 187.19628906 C-68.8721654 178.48964323 -71.71603578 172.27050976 -77.27734375 165.26953125 C-78.54509596 163.63733282 -79.79525401 161.9913149 -81.02734375 160.33203125 C-81.85492187 159.26662109 -81.85492187 159.26662109 -82.69921875 158.1796875 C-87.13858079 149.99324018 -87.87130241 140.78479528 -88.46484375 131.64453125 C-88.58653931 129.94526489 -88.58653931 129.94526489 -88.71069336 128.21166992 C-89.2364024 120.37721453 -89.43438163 112.60605669 -89.25 104.7578125 C-89.14709259 101.21586993 -89.14709259 101.21586993 -90.140625 97.65625 C-90.27734375 94.26953125 -90.27734375 94.26953125 -87.84765625 91.42578125 C-86.71835202 90.51608717 -85.56844941 89.63154573 -84.40234375 88.76953125 C-83.81042236 88.30248779 -83.21850098 87.83544434 -82.60864258 87.35424805 C-80.84720184 85.97088892 -79.06424773 84.61973804 -77.27734375 83.26953125 C-75.50609699 81.87422258 -73.73519094 80.47848111 -71.96484375 79.08203125 C-70.73798503 78.14151298 -69.5098343 77.20265717 -68.27734375 76.26953125 C-74.56874691 76.98521997 -80.29901518 78.69636754 -86.3125 80.62890625 C-91.96155314 82.37479479 -91.96155314 82.37479479 -95.27734375 81.26953125 C-96.38588781 78.81185818 -96.33381299 77.49301544 -95.67236328 74.87524414 C-95.1713208 73.5718811 -95.1713208 73.5718811 -94.66015625 72.2421875 C-94.30050781 71.28505859 -93.94085937 70.32792969 -93.5703125 69.34179688 C-92.99216797 67.85196289 -92.99216797 67.85196289 -92.40234375 66.33203125 C-91.65172189 64.36581187 -90.90421558 62.39839965 -90.16015625 60.4296875 C-89.82387207 59.55965088 -89.48758789 58.68961426 -89.14111328 57.79321289 C-88.28660322 55.2965847 -87.73319862 52.86580814 -87.27734375 50.26953125 C-87.93734375 50.26953125 -88.59734375 50.26953125 -89.27734375 50.26953125 C-89.54305176 50.85379883 -89.80875977 51.43806641 -90.08251953 52.04003906 C-92.14050047 55.8801457 -95.20402784 58.84303611 -98.15234375 62.01953125 C-98.77753906 62.71691406 -99.40273438 63.41429687 -100.046875 64.1328125 C-100.65660156 64.79152344 -101.26632812 65.45023437 -101.89453125 66.12890625 C-102.44737793 66.73186523 -103.00022461 67.33482422 -103.56982422 67.95605469 C-105.27734375 69.26953125 -105.27734375 69.26953125 -109.27734375 69.26953125 C-108.75616304 64.71954094 -107.01829657 62.21256211 -104.21484375 58.64453125 C-103.38593621 57.57482467 -102.55782594 56.50449988 -101.73046875 55.43359375 C-101.31474609 54.90024414 -100.89902344 54.36689453 -100.47070312 53.81738281 C-98.75149596 51.58747826 -97.10851719 49.30548045 -95.46484375 47.01953125 C-92.06148088 42.32711912 -88.6186674 37.66552742 -85.15234375 33.01953125 C-84.66145264 32.35791992 -84.17056152 31.69630859 -83.66479492 31.01464844 C-80.77874596 27.15756073 -77.78143564 23.46411417 -74.57250977 19.87011719 C-73.25656938 18.24385797 -72.2973266 16.62544034 -71.33984375 14.76953125 C-69.43587413 11.20058402 -66.85506743 8.79222223 -63.94140625 6.02734375 C-62.31164739 4.30576749 -61.26189712 2.7283266 -60.15234375 0.64453125 C-58.19163414 -2.88474604 -56.41221331 -5.1927172 -53.27734375 -7.73046875 C-35.33553798 -11.88513469 -16.36143212 -7.55879028 0 0 Z" transform="translate(705.27734375,143.73046875)"/><path fill="#052536" d="M0 0 C3.34202612 3.84333003 5.09853779 8.3368903 7 13 C7.45632813 14.07121094 7.45632813 14.07121094 7.921875 15.1640625 C10.27517374 21.26931866 10.9251102 27.5060892 10 34 C8.09466336 37.99770019 6.68561966 39.23578525 3 42 C6.3 42.66 9.6 43.32 13 44 C13.054138 46.24973447 13.09285491 48.49984383 13.125 50.75 C13.14820313 52.00296875 13.17140625 53.2559375 13.1953125 54.546875 C12.91542943 59.49520767 12.91542943 59.49520767 11 62 C7.375 62.75 7.375 62.75 4 63 C4.08750555 65.22988284 4.19569061 67.45896005 4.3125 69.6875 C4.37050781 70.92886719 4.42851562 72.17023438 4.48828125 73.44921875 C5.01956373 77.13575139 6.0649163 78.89675554 8 82 C8.40625 84.65625 8.40625 84.65625 8.5 87.5 C9.21004574 98.1377761 12.03560462 107.6071013 15.875 117.5 C16.20250244 118.36109375 16.53000488 119.2221875 16.86743164 120.109375 C18.87215754 125.09108215 20.85231518 128.42691483 25 132 C28.65588825 135.58341469 32.21271083 139.18768868 35.5625 143.0625 C36.14515625 143.7225 36.7278125 144.3825 37.328125 145.0625 C38.39732573 146.30157374 39.4329676 147.57094629 40.421875 148.875 C41.89476507 150.66232728 43.00664029 151.81216697 45 153 C47.54029199 153.07886942 47.54029199 153.07886942 50.19921875 152.65234375 C51.09858154 152.53753662 51.99794434 152.42272949 52.92456055 152.30444336 C53.95190308 152.1537439 53.95190308 152.1537439 55 152 C54.99476318 151.16339844 54.98952637 150.32679688 54.98413086 149.46484375 C54.96696987 146.32633728 54.95449227 143.18785493 54.94506836 140.04931641 C54.93763579 138.03676759 54.92492171 136.02424051 54.91210938 134.01171875 C54.89594517 127.57836629 54.97039025 121.3560161 56 115 C54.515 114.505 54.515 114.505 53 114 C51.46733418 110.93466836 51.89723529 107.73245728 51.9375 104.375 C51.94201172 103.66859375 51.94652344 102.9621875 51.95117188 102.234375 C51.96296125 100.48954725 51.98089676 98.744763 52 97 C51.43539062 96.74347656 50.87078125 96.48695313 50.2890625 96.22265625 C41.95951154 91.77359576 34.90423734 84.3460224 28 78 C31.70421122 76.6435824 33.97519534 77.38504094 37.640625 78.65234375 C38.71054687 79.01650391 39.78046875 79.38066406 40.8828125 79.75585938 C42.54957031 80.34077148 42.54957031 80.34077148 44.25 80.9375 C45.93996094 81.51661133 45.93996094 81.51661133 47.6640625 82.10742188 C50.44608464 83.06226846 53.22437132 84.0267564 56 85 C57.93815513 80.98257238 57.93815513 80.98257238 56.83984375 76.65234375 C56.22230528 75.40571309 55.58718203 74.16768495 54.9375 72.9375 C54.27807956 71.61030166 53.62055138 70.28216159 52.96484375 68.953125 C52.46766846 67.9621582 52.46766846 67.9621582 51.96044922 66.95117188 C50.54243616 64.07044986 49.25901471 61.14065632 48 58.1875 C47.5875 57.23230469 47.175 56.27710938 46.75 55.29296875 C46 53 46 53 47 51 C47.38744385 51.39268066 47.7748877 51.78536133 48.17407227 52.18994141 C49.96745192 54.00438201 51.76494489 55.81469627 53.5625 57.625 C54.47612305 58.55119141 54.47612305 58.55119141 55.40820312 59.49609375 C58.46001273 62.5640505 61.5524508 65.57456922 64.77734375 68.4609375 C65.32511475 68.95126465 65.87288574 69.4415918 66.43725586 69.94677734 C68.10053667 71.27943932 68.10053667 71.27943932 71 71 C73.31 58.79 75.62 46.58 78 34 C78.66 34.33 79.32 34.66 80 35 C80.66477626 37.33859811 81.20702889 39.61502723 81.69140625 41.9921875 C81.91666237 43.0448027 81.91666237 43.0448027 82.14646912 44.11868286 C82.62649004 46.36917645 83.0948453 48.62190732 83.5625 50.875 C84.03603844 53.12040348 84.51194324 55.36528693 84.98924255 57.6098938 C85.28578363 59.00830918 85.5797092 60.4072823 85.8707428 61.80685425 C86.45754004 64.60530325 87.09464089 67.28392266 88 70 C90.8175735 71.01912233 92.10457087 71.45773328 95 71 C101.18798491 66.51371094 105.80954853 59.92550831 110.37109375 53.87109375 C111.17740234 52.94490234 111.17740234 52.94490234 112 52 C112.66 52 113.32 52 114 52 C113.32423161 59.07626039 110.86294618 65.27170272 108.3515625 71.88085938 C108.03703125 72.73873047 107.7225 73.59660156 107.3984375 74.48046875 C107.10630371 75.25285889 106.81416992 76.02524902 106.51318359 76.82104492 C105.9378987 79.26367942 106.19652971 80.65070096 107 83 C113.65729532 81.3871501 120.23885332 79.69784027 126.74609375 77.55078125 C129.23420892 76.94276697 131.44816532 76.9054876 134 77 C130.32306791 80.78002365 126.47845577 84.2397114 122.4375 87.625 C121.87353516 88.10195312 121.30957031 88.57890625 120.72851562 89.0703125 C117.88021875 91.46887829 115.0099366 93.80694106 112 96 C112.24943359 97.50626953 112.24943359 97.50626953 112.50390625 99.04296875 C112.9855999 102.88513932 113.02835122 106.44539813 112.9375 110.3125 C112.85584522 118.02668184 113.26153972 125.68179997 113.8125 133.375 C113.88267334 134.45563721 113.95284668 135.53627441 114.02514648 136.6496582 C114.70235338 145.47905603 115.6557058 154.86049975 121.25 162.0625 C121.86230469 162.89265625 122.47460938 163.7228125 123.10546875 164.578125 C124.30632239 166.11323686 125.53532733 167.62706455 126.80078125 169.109375 C133.51037495 177.50008641 135.45262307 187.77348437 138 198 C138.30808594 199.22460938 138.61617187 200.44921875 138.93359375 201.7109375 C139.40936156 203.62879946 139.88010188 205.54792208 140.34375 207.46875 C141.35975205 211.38761505 142.66298058 215.17994451 144 219 C142.6696875 219.5878125 142.6696875 219.5878125 141.3125 220.1875 C136.8533175 222.62743005 133.63368652 225.09894045 132 230 C131.91410697 231.39655459 131.88227285 232.79685777 131.88647461 234.19604492 C131.88655014 235.03668991 131.88662567 235.8773349 131.88670349 236.74345398 C131.89186478 237.64666885 131.89702606 238.54988373 131.90234375 239.48046875 C131.9037587 240.40845779 131.90517365 241.33644684 131.90663147 242.29255676 C131.91223063 245.25757058 131.92478296 248.22250899 131.9375 251.1875 C131.94251511 253.19726453 131.947078 255.20703025 131.95117188 257.21679688 C131.96219979 262.14456032 131.97946383 267.07226737 132 272 C129.82435614 269.82435614 129.51068462 268.83853234 128.74609375 265.9375 C128.42415039 264.74253906 128.42415039 264.74253906 128.09570312 263.5234375 C127.87849609 262.69070313 127.66128906 261.85796875 127.4375 261 C127.00044124 259.35370286 126.56171656 257.70784682 126.12109375 256.0625 C125.9295874 255.33160156 125.73808105 254.60070312 125.54077148 253.84765625 C125.03880974 251.92931361 125.03880974 251.92931361 124 250 C122.3052035 239.83122098 122.90947599 229.26944653 123 219 C122.34 219 121.68 219 121 219 C120.92652344 220.49853516 120.92652344 220.49853516 120.8515625 222.02734375 C120.77679687 223.31769531 120.70203125 224.60804688 120.625 225.9375 C120.55539062 227.22527344 120.48578125 228.51304687 120.4140625 229.83984375 C120.27742187 230.88269531 120.14078125 231.92554688 120 233 C119.34 233.33 118.68 233.66 118 234 C116.17075675 228.37507702 115.47910244 223.00731324 115 217.125 C114.46196728 210.57893519 113.54900965 204.38966482 112 198 C112.37995692 220.2159341 113.273947 242.37717179 114.5 264.5625 C115.40757716 281.03821346 116.26818353 297.50372877 116.6875 314 C116.70619141 314.71479523 116.72488281 315.42959045 116.74414062 316.16604614 C117.00444678 326.44437329 117.03578575 336.71915033 117 347 C110.87389209 349.92382423 104.59904729 351.47214176 98 353 C97.9536148 344.74180433 97.91809943 336.48366329 97.89637566 328.22536945 C97.88594819 324.39051517 97.871808 320.55575017 97.84912109 316.72094727 C97.82735562 313.01863416 97.81542357 309.31640681 97.81024551 305.61403465 C97.8065564 304.20307249 97.79935246 302.7921149 97.78853989 301.38118935 C97.77397658 299.4017153 97.77318266 297.42215456 97.77294922 295.44262695 C97.768508 294.31677689 97.76406677 293.19092682 97.75949097 292.03096008 C98.0028829 288.96366886 98.69810109 286.76982489 100 284 C99.41992188 284.39832031 98.83984375 284.79664063 98.2421875 285.20703125 C86.75182482 293 86.75182482 293 83 293 C82.87354726 284.25067441 83.24441584 275.60040352 83.875 266.875 C83.96378418 265.61341064 84.05256836 264.35182129 84.14404297 263.05200195 C84.85069241 253.33215692 85.81283399 243.67195361 87 234 C82.627898 257.61761322 82.627898 257.61761322 79.125 281.375 C79.00535889 282.28572266 78.88571777 283.19644531 78.76245117 284.13476562 C77.00120259 296.86271804 77.00120259 296.86271804 80 309 C80.680625 309.33 81.36125 309.66 82.0625 310 C84 311 84 311 84.78125 313.2578125 C85.2248998 318.81927965 80.88247887 323.59518496 77.578125 327.81640625 C76.63202246 328.91930668 75.67171433 330.01014393 74.69921875 331.08984375 C72.55562224 333.4995419 70.53332236 335.99666342 68.5 338.5 C67.00027546 340.33355867 65.50029229 342.16690585 64 344 C63.39285156 344.74636719 62.78570313 345.49273437 62.16015625 346.26171875 C60.81816765 347.87932359 59.41554377 349.4463544 58 351 C57.34 351 56.68 351 56 351 C55.67 351.99 55.34 352.98 55 354 C53 354 51 354 49 354 C48.79375 354.680625 48.5875 355.36125 48.375 356.0625 C46.57104973 359.91639375 44.0989655 363.07787764 41 366 C40.34 366 39.68 366 39 366 C39.18175781 365.46632813 39.36351562 364.93265625 39.55078125 364.3828125 C40.94369915 360.25406099 42.27464122 356.11927997 43.5 351.9375 C44.37167701 348.98373436 45.31606651 346.18922068 46.4375 343.3125 C48.39814907 338.27229741 49.61768831 333.01650304 50.9375 327.78125 C51.68806966 325.11010503 52.47855486 322.68650634 53.48828125 320.125 C55.2049606 315.6782711 56.21282628 311.15719581 57.1875 306.5 C57.36474609 305.67757813 57.54199219 304.85515625 57.72460938 304.0078125 C58.15515326 302.00636525 58.57835661 300.00334121 59 298 C58.82871582 298.52956299 58.65743164 299.05912598 58.48095703 299.60473633 C57.70038884 302.00889688 56.91277811 304.41069278 56.125 306.8125 C55.85558594 307.64587891 55.58617187 308.47925781 55.30859375 309.33789062 C55.04433594 310.14033203 54.78007813 310.94277344 54.5078125 311.76953125 C54.14647217 312.87711792 54.14647217 312.87711792 53.77783203 314.00708008 C53 316 53 316 51 319 C50.5094109 320.35113062 50.06090428 321.71793565 49.64453125 323.09375 C48.03242794 328.09076491 45.95215102 332.76830856 43.6875 337.5 C43.29159668 338.33225098 42.89569336 339.16450195 42.48779297 340.02197266 C40.08003252 344.99879298 37.55033058 349.72907785 34.2890625 354.2109375 C32.91507511 356.04615972 32.91507511 356.04615972 31.67529297 358.36791992 C29.98473079 361.02398971 28.20044759 362.76764295 25.90625 364.90234375 C20.56675178 370.7980397 20.67247209 376.89925144 20.5 384.5625 C20.41105469 386.50479492 20.41105469 386.50479492 20.3203125 388.48632812 C20.17987859 391.65779385 20.07404943 394.82640729 20 398 C19.67 398 19.34 398 19 398 C18.89396941 388.4808091 19.04488999 379.06842654 19.71484375 369.56640625 C20.09668475 363.86209006 20.28724327 358.15014546 20.5 352.4375 C20.80618167 344.27001248 21.20718319 336.13086387 21.82421875 327.98046875 C21.97783283 325.37585663 21.97318998 322.85437246 21.875 320.25 C22 317 22 317 23.390625 315.671875 C25.62467891 313.35106171 26.03465426 311.09366219 26.875 308 C30.18890002 296.70034844 35.72368972 286.4373182 41.01123047 275.96142578 C42.51514878 272.97809746 44.00728879 269.98895129 45.5 267 C46.33333333 265.33333333 47.16666667 263.66666667 48 262 C48.66 262 49.32 262 50 262 C50.37125 260.7625 50.37125 260.7625 50.75 259.5 C52.8699255 253.56420859 55.92985858 248.09368289 58.94360352 242.57006836 C65.58337251 230.34472989 71.26321736 217.66708487 77 205 C76.59442871 205.74765625 76.18885742 206.4953125 75.77099609 207.265625 C75.23555176 208.25046875 74.70010742 209.2353125 74.1484375 210.25 C73.61911621 211.22453125 73.08979492 212.1990625 72.54443359 213.203125 C68.33683551 220.8228284 63.57423721 228.30599329 58 235 C57.34 235 56.68 235 56 235 C55.7328418 235.57202148 55.46568359 236.14404297 55.19042969 236.73339844 C53.95055306 239.09414795 52.54258967 241.12570462 50.953125 243.265625 C50.355 244.07386719 49.756875 244.88210938 49.140625 245.71484375 C48.51671875 246.55144531 47.8928125 247.38804687 47.25 248.25 C46.6415625 249.07113281 46.033125 249.89226562 45.40625 250.73828125 C40.54916207 257.28704724 40.54916207 257.28704724 38.29248047 260.21679688 C35.62535536 263.69033798 33.28609678 266.91114638 31.625 271 C31.30789063 271.763125 30.99078125 272.52625 30.6640625 273.3125 C30.33535156 274.1478125 30.33535156 274.1478125 30 275 C29.34 275 28.68 275 28 275 C27.6596875 276.175625 27.6596875 276.175625 27.3125 277.375 C25.59339067 282.12301625 23.31915279 286.52102552 21 291 C20.01 290.67 19.02 290.34 18 290 C18.14151828 287.9163691 18.28837936 285.83310062 18.4375 283.75 C18.51871094 282.58984375 18.59992187 281.4296875 18.68359375 280.234375 C18.93347572 277.68002602 19.37214031 275.46659163 20 273 C19.62092718 270.81296615 19.62092718 270.81296615 19 269 C19.66 269 20.32 269 21 269 C20.98839844 268.08476562 20.97679687 267.16953125 20.96484375 266.2265625 C20.95582031 265.03804688 20.94679688 263.84953125 20.9375 262.625 C20.92589844 261.44164062 20.91429687 260.25828125 20.90234375 259.0390625 C21 256 21 256 22 254 C22.09499503 252.50243129 22.12987198 251.00057068 22.125 249.5 C22.12757813 248.7059375 22.13015625 247.911875 22.1328125 247.09375 C22.13277996 244.94081466 22.13277996 244.94081466 21 243 C21.04945488 236.10104438 22.45167004 229.61270776 24.37890625 223.01953125 C25.6130302 217.01967077 25.91246209 213.00053482 22.7265625 207.73046875 C21.70661609 206.20674382 20.67192739 204.69281438 19.625 203.1875 C18.5243827 201.50277739 17.42812913 199.81519708 16.3359375 198.125 C15.7800293 197.27164063 15.22412109 196.41828125 14.65136719 195.5390625 C13.83394043 194.28222656 13.83394043 194.28222656 13 193 C12.48856445 192.21625 11.97712891 191.4325 11.45019531 190.625 C2.82094008 177.08353122 0.98307914 165.20078915 3.40942383 149.3203125 C4.47680577 141.65438226 2.86892734 136.13435579 0.0625 129 C-0.70021547 126.98052298 -1.4594991 124.95974548 -2.21484375 122.9375 C-2.72712524 121.62072266 -2.72712524 121.62072266 -3.24975586 120.27734375 C-4 118 -4 118 -4 115 C-4.9590625 114.814375 -4.9590625 114.814375 -5.9375 114.625 C-6.618125 114.41875 -7.29875 114.2125 -8 114 C-9.5826993 110.8346014 -9.65696549 107.35358491 -10.0625 103.875 C-10.15337891 103.12089844 -10.24425781 102.36679688 -10.33789062 101.58984375 C-10.56190852 99.72695812 -10.78138573 97.86352748 -11 96 C-11.99 95.67 -12.98 95.34 -14 95 C-17.75912409 77.51824818 -17.75912409 77.51824818 -16 74 C-15.7724985 72.12943209 -15.59037189 70.25314042 -15.4375 68.375 C-15.35371094 67.37210937 -15.26992188 66.36921875 -15.18359375 65.3359375 C-15.12300781 64.56507813 -15.06242187 63.79421875 -15 63 C-16.3921875 63.1546875 -16.3921875 63.1546875 -17.8125 63.3125 C-18.864375 63.209375 -19.91625 63.10625 -21 63 C-24.17894726 59.07262926 -24.40630847 55.76445597 -24.375 50.8125 C-24.38273437 49.58144531 -24.39046875 48.35039062 -24.3984375 47.08203125 C-24.26695312 46.06496094 -24.13546875 45.04789063 -24 44 C-21.09907498 42.06604999 -20.10325263 41.69868059 -16.8125 41.375 C-15.554375 41.25125 -14.29625 41.1275 -13 41 C-13.3609375 40.55011719 -13.721875 40.10023438 -14.09375 39.63671875 C-17.67035497 34.67914686 -18.77245273 30.74597074 -18.5 24.6328125 C-17.69126868 20.37433664 -15.94110313 18.15118192 -13 15 C-12.34 15 -11.68 15 -11 15 C-10.7421875 14.42378906 -10.484375 13.84757813 -10.21875 13.25390625 C-8.8951324 10.80606215 -7.3699228 8.99362273 -5.5 6.9375 C-3.44184439 4.66567993 -1.70861829 2.56292743 0 0 Z" transform="translate(362,34)"/><path fill="#0E3850" d="M0 0 C0.33 12.54 0.66 25.08 1 38 C5.2075 38.185625 9.415 38.37125 13.75 38.5625 C15.0709668 38.62381104 16.39193359 38.68512207 17.75292969 38.74829102 C18.79868164 38.79139404 19.84443359 38.83449707 20.921875 38.87890625 C21.99018555 38.9260376 23.05849609 38.97316895 24.15917969 39.02172852 C26.68163387 39.00243508 28.58607395 38.61563895 31 38 C31.66 38.33 32.32 38.66 33 39 C35.09651716 38.76543772 37.19263481 38.52655106 39.28616333 38.2666626 C44.38660344 37.76549146 49.50048707 37.85800215 54.62109375 37.8671875 C56.39275658 37.86575241 56.39275658 37.86575241 58.20021057 37.86428833 C60.68026788 37.86361119 63.16032701 37.86543281 65.64038086 37.86962891 C69.44974689 37.87501732 73.25899681 37.86965101 77.06835938 37.86328125 C79.48177109 37.86394146 81.89518274 37.86522143 84.30859375 37.8671875 C86.02253578 37.86415115 86.02253578 37.86415115 87.77110291 37.86105347 C89.34898338 37.86578171 89.34898338 37.86578171 90.95874023 37.87060547 C91.88645737 37.87140106 92.8141745 37.87219666 93.77000427 37.87301636 C96 38 96 38 98 39 C100.49149593 38.88233785 102.95394432 38.71161489 105.4375 38.5 C112.0724894 37.9977349 118.38868434 38.08954339 125 39 C121.82213692 59.45159407 114.04998566 77.54939464 105 96 C106.65 96.33 108.3 96.66 110 97 C111.33303265 100.99909795 110.1570501 103.79078269 109 107.6875 C108.66367554 108.85345703 108.66367554 108.85345703 108.32055664 110.04296875 C107.82424793 111.75934874 107.32412404 113.47462873 106.82080078 115.18896484 C105.94733012 118.18038101 105.09550467 121.17744921 104.24609375 124.17578125 C103.64378784 126.28401385 103.04092911 128.39208861 102.4375 130.5 C102.01694336 131.98439575 102.01694336 131.98439575 101.58789062 133.4987793 C99.75101972 139.84312258 97.5392036 145.90639767 95 152 C94.33071989 153.66561891 93.66406055 155.33229325 93 157 C89 167 89 167 87.99804688 169.50366211 C87.33676619 171.15767263 86.67659565 172.81212747 86.01757812 174.46704102 C84.29498532 178.78844647 82.55319488 183.10091679 80.78125 187.40234375 C80.40613281 188.31306641 80.03101563 189.22378906 79.64453125 190.16210938 C78.88288695 192.00903181 78.11987068 193.85538906 77.35546875 195.70117188 C74.7332631 202.07646568 72.30798358 208.50447263 70 215 C69.34 215 68.68 215 68 215 C68.18820313 214.45472656 68.37640625 213.90945313 68.5703125 213.34765625 C69.23047809 210.62795997 69.46027685 208.77839844 69 206 C65.34532484 201.49766255 60.79928969 198.19952646 56 195 C56 194.34 56 193.68 56 193 C53.43483083 192.14494361 52.2921992 191.89733542 49.6875 192.8125 C46.46677733 193.03720158 46.03352458 192.56690972 43.625 190.5625 C40.31754727 187.47940402 37.37098229 184.10930366 34.48046875 180.63671875 C33.07899285 178.88811115 33.07899285 178.88811115 31 178 C28.28470076 179.22834966 25.68881353 180.60151283 23.109375 182.09375 C16.59989628 185.68165165 11.2854965 185.82137412 4 184 C3.67 184.66 3.34 185.32 3 186 C4.2375 186.928125 4.2375 186.928125 5.5 187.875 C6.325 188.57625 7.15 189.2775 8 190 C8 190.66 8 191.32 8 192 C-0.83518627 190.89560172 -9.83124148 186.46967357 -16 180 C-17.42375209 177.67493707 -18.70915506 175.33223447 -19.921875 172.890625 C-20.8601699 170.83848135 -20.8601699 170.83848135 -23 170 C-23.33 169.01 -23.66 168.02 -24 167 C-24.99 166.01 -24.99 166.01 -26 165 C-29 160.38461538 -29 160.38461538 -29 158 C-29.66 157.67 -30.32 157.34 -31 157 C-31.80362048 154.7039415 -32.40557569 152.38359133 -33.0234375 150.03125 C-33.81147968 147.85548806 -33.81147968 147.85548806 -35.8515625 147.09375 C-38.56166509 146.97549098 -39.74525574 147.50436803 -42 149 C-43.65371476 150.70215357 -43.65371476 150.70215357 -45.1875 152.6875 C-48.94468954 157.14559692 -53.19812478 160.70257495 -58 164 C-58.33 164 -58.66 164 -59 164 C-59 113.51 -59 63.02 -59 11 C-53.8122968 9.2707656 -51.16905908 8.84000557 -45.9375 8.8125 C-36.1346368 8.51249606 -27.34383068 5.15057679 -18.24145508 1.74023438 C-11.82449441 -0.37894924 -7.09510007 0 0 0 Z" transform="translate(60,114)"/><path fill="#0C354B" d="M0 0 C72.6 0 145.2 0 220 0 C220 56 220 56 217 62 C216.71125 62.9075 216.4225 63.815 216.125 64.75 C214.83538946 68.47554156 213.12921172 71.84493665 211.31640625 75.33984375 C210.05274063 77.89342325 208.93715667 80.48721707 207.82788086 83.1105957 C206.33930978 86.50783888 204.66586684 89.81205429 203 93.125 C202.65710938 93.81464844 202.31421875 94.50429687 201.9609375 95.21484375 C200.52317642 98.08487827 199.07600814 100.87627871 197.39453125 103.61328125 C195.79614638 106.34889232 194.7618879 109.08301189 193.6875 112.0625 C191.22038337 118.62666016 188.22360396 124.78063843 185 131 C184.0386479 132.91515431 183.08009436 134.83171726 182.125 136.75 C181.41666667 138.16666667 180.70833333 139.58333333 180 141 C180.66 141.33 181.32 141.66 182 142 C181.55011719 142.4125 181.10023438 142.825 180.63671875 143.25 C178.92362404 145.08166213 177.92071699 146.75808976 176.8125 149 C176.46832031 149.680625 176.12414062 150.36125 175.76953125 151.0625 C174.81543592 153.11723483 174.81543592 153.11723483 175 156 C173.68023552 157.67743175 172.34527394 159.34295637 171 161 C169.75149631 163.48716144 169.75149631 163.48716144 168.75 166.1875 C166.55377363 171.68148684 164.22157037 177.09700138 161.8125 182.5 C161.29478027 183.66631958 161.29478027 183.66631958 160.76660156 184.85620117 C158.90036024 189.04427702 158.90036024 189.04427702 158 191 C157.69537842 191.71994141 157.39075684 192.43988281 157.0769043 193.18164062 C156 195 156 195 153 196 C152.09603673 197.98197743 152.09603673 197.98197743 151.5390625 200.421875 C150.0663924 205.80447467 148.2894942 211.00997802 146.375 216.25 C146.03235107 217.19020996 145.68970215 218.13041992 145.33666992 219.09912109 C141.79307378 228.72076365 137.92244913 238.20087577 133.97363281 247.66210938 C133.12770865 249.69334553 132.29107895 251.72790296 131.4609375 253.765625 C129.77675957 257.87791222 128.10294057 261.86886421 125.9375 265.75 C123.50450467 270.37958626 122.51948159 275.46975946 121.39428711 280.54199219 C120.19885343 285.80114657 120.19885343 285.80114657 118 288 C115.828125 288.4140625 115.828125 288.4140625 113.25 288.625 C112.3528125 288.70105469 111.455625 288.77710938 110.53125 288.85546875 C108 289 108 289 104.75 288.9375 C101.38549506 289.01396602 97.48240022 289.51759978 95 292 C89.88372645 292.65593251 86.20356567 291.04630743 81.6015625 289.0859375 C77.80538945 287.50134875 73.91410644 286.2566763 70 285 C69.01 284.67 68.02 284.34 67 284 C66.01 284.33 65.02 284.66 64 285 C62.02471212 285 60.0492907 284.99795624 58.07421875 284.96875 C55.31983177 285.01024736 52.69640694 285.46071861 50 286 C48.81293253 282.56137521 48.89247448 281.23984164 50.40625 277.86328125 C51.09354404 276.67348768 51.79220661 275.49021404 52.5 274.3125 C57.29782883 265.89388977 60.6716777 257.08007927 64 248 C64.66 248 65.32 248 66 248 C67.37388326 243.59949272 68.27474357 239.62398621 68 235 C64.56204431 230.1638973 59.8748242 227.2498828 55 224 C55 223.34 55 222.68 55 222 C52.43483083 221.14494361 51.2921992 220.89733542 48.6875 221.8125 C45.46677733 222.03720158 45.03352458 221.56690972 42.625 219.5625 C39.31754727 216.47940402 36.37098229 213.10930366 33.48046875 209.63671875 C32.07899285 207.88811115 32.07899285 207.88811115 30 207 C27.28470076 208.22834966 24.68881353 209.60151283 22.109375 211.09375 C15.59989628 214.68165165 10.2854965 214.82137412 3 213 C2.67 213.66 2.34 214.32 2 215 C3.2375 215.928125 3.2375 215.928125 4.5 216.875 C5.325 217.57625 6.15 218.2775 7 219 C7 219.66 7 220.32 7 221 C-1.83518627 219.89560172 -10.83124148 215.46967357 -17 209 C-18.42375209 206.67493707 -19.70915506 204.33223447 -20.921875 201.890625 C-21.8601699 199.83848135 -21.8601699 199.83848135 -24 199 C-24.33 198.01 -24.66 197.02 -25 196 C-25.99 195.01 -25.99 195.01 -27 194 C-30 189.38461538 -30 189.38461538 -30 187 C-30.66 186.67 -31.32 186.34 -32 186 C-32.80362048 183.7039415 -33.40557569 181.38359133 -34.0234375 179.03125 C-34.81147968 176.85548806 -34.81147968 176.85548806 -36.8515625 176.09375 C-39.56166509 175.97549098 -40.74525574 176.50436803 -43 178 C-44.65371476 179.70215357 -44.65371476 179.70215357 -46.1875 181.6875 C-49.94468954 186.14559692 -54.19812478 189.70257495 -59 193 C-59.33 193 -59.66 193 -60 193 C-60 142.51 -60 92.02 -60 40 C-54.8122968 38.2707656 -52.16905908 37.84000557 -45.9375 37.8125 C-37.1346368 37.51249606 -28.34383068 34.15057679 -19.24145508 30.74023438 C-12.48355788 28.50845741 -7.53849553 29 0 29 C0 19.43 0 9.86 0 0 Z" transform="translate(362,34)"/><path fill="#041924" d="M0 0 C0.66 0.33 1.32 0.66 2 1 C2.66477626 3.33859811 3.20702889 5.61502723 3.69140625 7.9921875 C3.841577 8.69393097 3.99174774 9.39567444 4.14646912 10.11868286 C4.62649004 12.36917645 5.0948453 14.62190732 5.5625 16.875 C6.03603844 19.12040348 6.51194324 21.36528693 6.98924255 23.6098938 C7.28578363 25.00830918 7.5797092 26.4072823 7.8707428 27.80685425 C8.45754004 30.60530325 9.09464089 33.28392266 10 36 C12.8175735 37.01912233 14.10457087 37.45773328 17 37 C23.18798491 32.51371094 27.80954853 25.92550831 32.37109375 19.87109375 C32.90863281 19.25363281 33.44617188 18.63617188 34 18 C34.66 18 35.32 18 36 18 C35.32423161 25.07626039 32.86294618 31.27170272 30.3515625 37.88085938 C29.87976563 39.16766602 29.87976563 39.16766602 29.3984375 40.48046875 C29.10630371 41.25285889 28.81416992 42.02524902 28.51318359 42.82104492 C27.9378987 45.26367942 28.19652971 46.65070096 29 49 C35.65729532 47.3871501 42.23885332 45.69784027 48.74609375 43.55078125 C51.23420892 42.94276697 53.44816532 42.9054876 56 43 C52.32306791 46.78002365 48.47845577 50.2397114 44.4375 53.625 C43.87353516 54.10195312 43.30957031 54.57890625 42.72851562 55.0703125 C39.88021875 57.46887829 37.0099366 59.80694106 34 62 C34.24943359 63.50626953 34.24943359 63.50626953 34.50390625 65.04296875 C34.9855999 68.88513932 35.02835122 72.44539813 34.9375 76.3125 C34.85584522 84.02668184 35.26153972 91.68179997 35.8125 99.375 C35.91776001 100.99595581 35.91776001 100.99595581 36.02514648 102.6496582 C36.64150976 110.68577925 37.44239925 119.16359887 42 126 C42 126.99 42 127.98 42 129 C23.55299152 125.7265225 23.55299152 125.7265225 18 120 C16.79628837 116.51641071 16.69337286 112.90532661 16.4375 109.25 C16.35371094 108.07953125 16.26992188 106.9090625 16.18359375 105.703125 C16.12300781 104.81109375 16.06242188 103.9190625 16 103 C15.63261719 103.88558594 15.63261719 103.88558594 15.2578125 104.7890625 C13.78451199 107.37877706 12.26100497 108.60420189 9.875 110.375 C9.07835937 110.98085938 8.28171875 111.58671875 7.4609375 112.2109375 C5.88682447 113.35529269 4.2891611 114.46834536 2.6640625 115.5390625 C-1.89695529 118.60394298 -1.89695529 118.60394298 -4.125 123.5625 C-4.00328021 126.90979433 -3.52353252 129.04255451 -2 132 C-5.73487777 131.5020163 -7.81237635 131.12508244 -11 129 C-11.28875 128.030625 -11.5775 127.06125 -11.875 126.0625 C-12.73942894 122.86249262 -12.73942894 122.86249262 -15.375 121.1875 C-17.61177474 120.17562571 -19.59418524 119.44552125 -22 119 C-23.29379996 113.06494939 -23.14707333 107.16573433 -23.125 101.125 C-23.13080078 99.54912109 -23.13080078 99.54912109 -23.13671875 97.94140625 C-23.12953142 92.198731 -22.8620672 86.67869665 -22 81 C-23.485 80.505 -23.485 80.505 -25 80 C-26.53266582 76.93466836 -26.10276471 73.73245728 -26.0625 70.375 C-26.05798828 69.66859375 -26.05347656 68.9621875 -26.04882812 68.234375 C-26.03703875 66.48954725 -26.01910324 64.744763 -26 63 C-26.84691406 62.61521484 -26.84691406 62.61521484 -27.7109375 62.22265625 C-36.04048846 57.77359576 -43.09576266 50.3460224 -50 44 C-46.29578878 42.6435824 -44.02480466 43.38504094 -40.359375 44.65234375 C-38.75449219 45.19858398 -38.75449219 45.19858398 -37.1171875 45.75585938 C-36.00601563 46.14580078 -34.89484375 46.53574219 -33.75 46.9375 C-32.62335937 47.32357422 -31.49671875 47.70964844 -30.3359375 48.10742188 C-27.55391536 49.06226846 -24.77562868 50.0267564 -22 51 C-20.06184487 46.98257238 -20.06184487 46.98257238 -21.16015625 42.65234375 C-21.77769472 41.40571309 -22.41281797 40.16768495 -23.0625 38.9375 C-23.72192044 37.61030166 -24.37944862 36.28216159 -25.03515625 34.953125 C-25.36660645 34.29248047 -25.69805664 33.63183594 -26.03955078 32.95117188 C-27.45756384 30.07044986 -28.74098529 27.14065632 -30 24.1875 C-30.4125 23.23230469 -30.825 22.27710938 -31.25 21.29296875 C-32 19 -32 19 -31 17 C-30.61255615 17.39268066 -30.2251123 17.78536133 -29.82592773 18.18994141 C-28.03254808 20.00438201 -26.23505511 21.81469627 -24.4375 23.625 C-23.82841797 24.24246094 -23.21933594 24.85992187 -22.59179688 25.49609375 C-19.53998727 28.5640505 -16.4475492 31.57456922 -13.22265625 34.4609375 C-12.67488525 34.95126465 -12.12711426 35.4415918 -11.56274414 35.94677734 C-9.89946333 37.27943932 -9.89946333 37.27943932 -7 37 C-3.535 18.685 -3.535 18.685 0 0 Z" transform="translate(582,176)"/><path fill="#6F6F69" d="M0 0 C7.50889293 5.13699601 7.50889293 5.13699601 8.71875 9.7265625 C8.8115625 10.47679687 8.904375 11.22703125 9 12 C5.04 13.98 5.04 13.98 1 16 C0.2575 15.236875 -0.485 14.47375 -1.25 13.6875 C-2.61125 12.3571875 -2.61125 12.3571875 -4 11 C-4.5775 10.401875 -5.155 9.80375 -5.75 9.1875 C-9.44393083 7.2379254 -12.93839701 7.14528557 -17 8 C-21.13927528 10.41327559 -24.29416297 13.4779226 -26 18 C-26.65940779 24.62833283 -27.10420781 31.43000369 -23 37 C-19.65455973 40.17701993 -17.11042692 40.43224228 -12.5625 40.4375 C-11.45003906 40.45683594 -10.33757812 40.47617187 -9.19140625 40.49609375 C-5.35402313 39.89958499 -3.71822182 38.72808832 -1 36 C-0.67 35.01 -0.34 34.02 0 33 C-3.96 32.67 -7.92 32.34 -12 32 C-12 29.03 -12 26.06 -12 23 C-4.41 23 3.18 23 11 23 C11 33.76237958 10.14668847 39.4201789 3 47 C-2.27535344 50.69274741 -6.50213135 51.15323727 -12.875 51.1875 C-14.06867188 51.20167969 -15.26234375 51.21585938 -16.4921875 51.23046875 C-24.29284408 50.71795345 -28.69804805 47.41925178 -34 42 C-37.98599094 36.47104482 -38.20386756 31.35940437 -38.25 24.6875 C-38.2809375 23.58631836 -38.2809375 23.58631836 -38.3125 22.46289062 C-38.36785902 14.66418811 -35.78193493 9.26633885 -30.53515625 3.50390625 C-22.32212516 -4.54193845 -9.89670782 -4.89680856 0 0 Z" transform="translate(485,851)"/><path fill="#1B3541" d="M0 0 C72.27 0 144.54 0 219 0 C219 0.33 219 0.66 219 1 C147.06 1.33 75.12 1.66 1 2 C1.33 22.46 1.66 42.92 2 64 C4.4581051 65.22905255 6.08449147 65.13829342 8.83413696 65.15821838 C10.36542992 65.17290161 10.36542992 65.17290161 11.92765808 65.18788147 C13.05190689 65.19363693 14.1761557 65.1993924 15.33447266 65.20532227 C16.51494675 65.21522186 17.69542084 65.22512146 18.91166687 65.23532104 C22.15316782 65.26154157 25.39466343 65.28339011 28.63620806 65.30332303 C32.02217815 65.32516848 35.40810314 65.3525642 38.79403687 65.37937927 C45.20777728 65.42932569 51.6215427 65.47425727 58.03533208 65.51740164 C65.33635754 65.56675738 72.63733774 65.62168166 79.93831944 65.67708123 C94.95883747 65.79093118 109.9793981 65.89776364 125 66 C125.33 66.99 125.66 67.98 126 69 C125.34 69.66 124.68 70.32 124 71 C124 70.01 124 69.02 124 68 C110.84351845 67.78313918 110.84351845 67.78313918 97.75 68.87890625 C96 69 96 69 94 68 C92.17804545 67.90395154 90.35256011 67.87204145 88.52807617 67.87060547 C87.38316208 67.86745331 86.23824799 67.86430115 85.05863953 67.86105347 C83.19463249 67.86408981 83.19463249 67.86408981 81.29296875 67.8671875 C80.02028641 67.86623077 78.74760406 67.86527405 77.43635559 67.86428833 C74.73870473 67.86360662 72.0411439 67.86496087 69.34350586 67.86962891 C65.89358205 67.87530896 62.44373633 67.8720574 58.99381542 67.86605644 C55.69769712 67.86156105 52.40158807 67.86471525 49.10546875 67.8671875 C47.86887009 67.86516327 46.63227142 67.86313904 45.35820007 67.86105347 C44.2038295 67.86420563 43.04945892 67.86735779 41.86010742 67.87060547 C40.84687912 67.87140106 39.83365082 67.87219666 38.78971863 67.87301636 C35.98948245 67.92637362 35.98948245 67.92637362 33.25874329 68.57058716 C31 69 31 69 29 68 C27.66516294 68.32725969 26.33207691 68.66168063 25 69 C23.30074386 69.02633445 21.59999004 68.99256099 19.90234375 68.9140625 C18.93619141 68.87023437 17.97003906 68.82640625 16.97460938 68.78125 C15.47124023 68.70390625 15.47124023 68.70390625 13.9375 68.625 C12.93138672 68.58117187 11.92527344 68.53734375 10.88867188 68.4921875 C3.39536373 68.13178791 3.39536373 68.13178791 0 67 C-1.49546576 64.00906848 -1.12994784 61.28430235 -1.1328125 57.94921875 C-1.13376923 57.22176956 -1.13472595 56.49432037 -1.13571167 55.74482727 C-1.13639482 54.18364375 -1.13453125 52.62245743 -1.13037109 51.0612793 C-1.12523221 48.79012652 -1.13019752 46.51919158 -1.13671875 44.24804688 C-1.12419674 29.46581005 -0.51037444 14.80085869 0 0 Z" transform="translate(60,114)"/><path fill="#031722" d="M0 0 C0.66 0.33 1.32 0.66 2 1 C2.66477626 3.33859811 3.20702889 5.61502723 3.69140625 7.9921875 C3.841577 8.69393097 3.99174774 9.39567444 4.14646912 10.11868286 C4.62649004 12.36917645 5.0948453 14.62190732 5.5625 16.875 C6.03603844 19.12040348 6.51194324 21.36528693 6.98924255 23.6098938 C7.28578363 25.00830918 7.5797092 26.4072823 7.8707428 27.80685425 C8.45754004 30.60530325 9.09464089 33.28392266 10 36 C12.8175735 37.01912233 14.10457087 37.45773328 17 37 C23.18798491 32.51371094 27.80954853 25.92550831 32.37109375 19.87109375 C32.90863281 19.25363281 33.44617188 18.63617188 34 18 C34.66 18 35.32 18 36 18 C35.32423161 25.07626039 32.86294618 31.27170272 30.3515625 37.88085938 C29.87976563 39.16766602 29.87976563 39.16766602 29.3984375 40.48046875 C29.10630371 41.25285889 28.81416992 42.02524902 28.51318359 42.82104492 C27.9378987 45.26367942 28.19652971 46.65070096 29 49 C35.65729532 47.3871501 42.23885332 45.69784027 48.74609375 43.55078125 C51.23420892 42.94276697 53.44816532 42.9054876 56 43 C52.32306791 46.78002365 48.47845577 50.2397114 44.4375 53.625 C43.87353516 54.10195312 43.30957031 54.57890625 42.72851562 55.0703125 C39.88021875 57.46887829 37.0099366 59.80694106 34 62 C34.24943359 63.50626953 34.24943359 63.50626953 34.50390625 65.04296875 C34.9855999 68.88513932 35.02835122 72.44539813 34.9375 76.3125 C34.85584522 84.02668184 35.26153972 91.68179997 35.8125 99.375 C35.91776001 100.99595581 35.91776001 100.99595581 36.02514648 102.6496582 C36.64150976 110.68577925 37.44239925 119.16359887 42 126 C42 126.99 42 127.98 42 129 C23.55299152 125.7265225 23.55299152 125.7265225 18 120 C16.79628837 116.51641071 16.69337286 112.90532661 16.4375 109.25 C16.35371094 108.07953125 16.26992188 106.9090625 16.18359375 105.703125 C16.12300781 104.81109375 16.06242188 103.9190625 16 103 C15.63261719 103.88558594 15.63261719 103.88558594 15.2578125 104.7890625 C13.78451199 107.37877706 12.26100497 108.60420189 9.875 110.375 C9.07835937 110.98085938 8.28171875 111.58671875 7.4609375 112.2109375 C5.88682447 113.35529269 4.2891611 114.46834536 2.6640625 115.5390625 C-1.89695529 118.60394298 -1.89695529 118.60394298 -4.125 123.5625 C-4.00328021 126.90979433 -3.52353252 129.04255451 -2 132 C-5.73487777 131.5020163 -7.81237635 131.12508244 -11 129 C-11.28875 128.030625 -11.5775 127.06125 -11.875 126.0625 C-12.73942894 122.86249262 -12.73942894 122.86249262 -15.375 121.1875 C-17.61177474 120.17562571 -19.59418524 119.44552125 -22 119 C-23.29379996 113.06494939 -23.14707333 107.16573433 -23.125 101.125 C-23.13080078 99.54912109 -23.13080078 99.54912109 -23.13671875 97.94140625 C-23.12953142 92.198731 -22.8620672 86.67869665 -22 81 C-23.485 80.505 -23.485 80.505 -25 80 C-26.53266582 76.93466836 -26.10276471 73.73245728 -26.0625 70.375 C-26.05798828 69.66859375 -26.05347656 68.9621875 -26.04882812 68.234375 C-26.03703875 66.48954725 -26.01910324 64.744763 -26 63 C-26.84691406 62.61521484 -26.84691406 62.61521484 -27.7109375 62.22265625 C-36.04048846 57.77359576 -43.09576266 50.3460224 -50 44 C-46.29578878 42.6435824 -44.02480466 43.38504094 -40.359375 44.65234375 C-38.75449219 45.19858398 -38.75449219 45.19858398 -37.1171875 45.75585938 C-36.00601563 46.14580078 -34.89484375 46.53574219 -33.75 46.9375 C-32.62335937 47.32357422 -31.49671875 47.70964844 -30.3359375 48.10742188 C-27.55391536 49.06226846 -24.77562868 50.0267564 -22 51 C-20.06184487 46.98257238 -20.06184487 46.98257238 -21.16015625 42.65234375 C-21.77769472 41.40571309 -22.41281797 40.16768495 -23.0625 38.9375 C-23.72192044 37.61030166 -24.37944862 36.28216159 -25.03515625 34.953125 C-25.36660645 34.29248047 -25.69805664 33.63183594 -26.03955078 32.95117188 C-27.45756384 30.07044986 -28.74098529 27.14065632 -30 24.1875 C-30.4125 23.23230469 -30.825 22.27710938 -31.25 21.29296875 C-32 19 -32 19 -31 17 C-30.61255615 17.39268066 -30.2251123 17.78536133 -29.82592773 18.18994141 C-28.03254808 20.00438201 -26.23505511 21.81469627 -24.4375 23.625 C-23.82841797 24.24246094 -23.21933594 24.85992187 -22.59179688 25.49609375 C-19.53998727 28.5640505 -16.4475492 31.57456922 -13.22265625 34.4609375 C-12.67488525 34.95126465 -12.12711426 35.4415918 -11.56274414 35.94677734 C-9.89946333 37.27943932 -9.89946333 37.27943932 -7 37 C-3.535 18.685 -3.535 18.685 0 0 Z" transform="translate(504,142)"/><path fill="#042333" d="M0 0 C7.67523989 3.71596629 14.05559259 9.04382797 19 16 C19 16.66 19 17.32 19 18 C19.66 18 20.32 18 21 18 C21.625 20.875 21.625 20.875 22 24 C21.34 24.66 20.68 25.32 20 26 C19.01 26 18.02 26 17 26 C17.19529297 26.96099609 17.19529297 26.96099609 17.39453125 27.94140625 C18.13466379 32.58279817 18.63017107 35.93778125 15.875 39.9375 C11.33226429 45.25399838 5.80800138 47.30398456 -1.05078125 48.296875 C-4.77462746 48.54933915 -6.67944038 48.238556 -9.6875 46 C-16.88449318 36.66336019 -18.62443706 29.8482929 -18 18 C-17.25 14.3125 -17.25 14.3125 -16 12 C-14.0625 11 -14.0625 11 -12 11 C-11.01 11.66 -10.02 12.32 -9 13 C-9 13.66 -9 14.32 -9 15 C-10.98 15.33 -12.96 15.66 -15 16 C-13.02 16.33 -11.04 16.66 -9 17 C-8.34 15.02 -7.68 13.04 -7 11 C-10.3 10.67 -13.6 10.34 -17 10 C-17.33 8.68 -17.66 7.36 -18 6 C-16.37554381 5.01993141 -14.75041739 4.04097364 -13.125 3.0625 C-12.22007812 2.51722656 -11.31515625 1.97195312 -10.3828125 1.41015625 C-6.28539189 -1.0147107 -4.71594724 -1.10153512 0 0 Z" transform="translate(581,239)"/><path fill="#1B3541" d="M0 0 C72.27 0 144.54 0 219 0 C219 0.33 219 0.66 219 1 C147.06 1.33 75.12 1.66 1 2 C1.33 22.46 1.66 42.92 2 64 C4.4581051 65.22905255 6.08449147 65.13829342 8.83413696 65.15821838 C10.36542992 65.17290161 10.36542992 65.17290161 11.92765808 65.18788147 C13.05190689 65.19363693 14.1761557 65.1993924 15.33447266 65.20532227 C16.51494675 65.21522186 17.69542084 65.22512146 18.91166687 65.23532104 C22.15316782 65.26154157 25.39466343 65.28339011 28.63620806 65.30332303 C32.02217815 65.32516848 35.40810314 65.3525642 38.79403687 65.37937927 C45.20777728 65.42932569 51.6215427 65.47425727 58.03533208 65.51740164 C65.33635754 65.56675738 72.63733774 65.62168166 79.93831944 65.67708123 C94.95883747 65.79093118 109.9793981 65.89776364 125 66 C125.33 66.99 125.66 67.98 126 69 C125.34 69.66 124.68 70.32 124 71 C124 70.01 124 69.02 124 68 C110.84351845 67.78313918 110.84351845 67.78313918 97.75 68.87890625 C96 69 96 69 94 68 C92.17804545 67.90395154 90.35256011 67.87204145 88.52807617 67.87060547 C87.38316208 67.86745331 86.23824799 67.86430115 85.05863953 67.86105347 C83.19463249 67.86408981 83.19463249 67.86408981 81.29296875 67.8671875 C80.02028641 67.86623077 78.74760406 67.86527405 77.43635559 67.86428833 C74.73870473 67.86360662 72.0411439 67.86496087 69.34350586 67.86962891 C65.89358205 67.87530896 62.44373633 67.8720574 58.99381542 67.86605644 C55.69769712 67.86156105 52.40158807 67.86471525 49.10546875 67.8671875 C47.86887009 67.86516327 46.63227142 67.86313904 45.35820007 67.86105347 C44.2038295 67.86420563 43.04945892 67.86735779 41.86010742 67.87060547 C40.84687912 67.87140106 39.83365082 67.87219666 38.78971863 67.87301636 C35.98948245 67.92637362 35.98948245 67.92637362 33.25874329 68.57058716 C31 69 31 69 29 68 C27.66516294 68.32725969 26.33207691 68.66168063 25 69 C23.30074386 69.02633445 21.59999004 68.99256099 19.90234375 68.9140625 C18.93619141 68.87023437 17.97003906 68.82640625 16.97460938 68.78125 C15.47124023 68.70390625 15.47124023 68.70390625 13.9375 68.625 C12.93138672 68.58117187 11.92527344 68.53734375 10.88867188 68.4921875 C3.39536373 68.13178791 3.39536373 68.13178791 0 67 C-1.49546576 64.00906848 -1.12994784 61.28430235 -1.1328125 57.94921875 C-1.13376923 57.22176956 -1.13472595 56.49432037 -1.13571167 55.74482727 C-1.13639482 54.18364375 -1.13453125 52.62245743 -1.13037109 51.0612793 C-1.12523221 48.79012652 -1.13019752 46.51919158 -1.13671875 44.24804688 C-1.12419674 29.46581005 -0.51037444 14.80085869 0 0 Z" transform="translate(60,114)"/><path fill="#233A45" d="M0 0 C0.66 0.33 1.32 0.66 2 1 C-3.32496581 2.64685051 -8.44633566 3.02393854 -13.8125 2.8125 C-18.64544825 2.75158048 -20.40105055 3.69285726 -24 7 C-26.65130062 7.91044663 -29.24358349 8.43937291 -32 9 C-32.33 8.34 -32.66 7.68 -33 7 C-22.12084374 0.04301916 -12.79045447 -1.46287586 0 0 Z" transform="translate(482,390)"/><path fill="#1F333D" d="M0 0 C0.33 0 0.66 0 1 0 C1 25.74 1 51.48 1 78 C1.99 78 2.98 78 4 78 C3.34 79.32 2.68 80.64 2 82 C1.34 82 0.68 82 0 82 C0 54.94 0 27.88 0 0 Z" transform="translate(534,114)"/><path fill="#484F51" d="M0 0 C0.66 0.33 1.32 0.66 2 1 C1.34 2.32 0.68 3.64 0 5 C1.65 5 3.3 5 5 5 C5.33 4.34 5.66 3.68 6 3 C8.3140622 2.26924352 10.64828869 1.59861742 13 1 C7 7 7 7 5.15234375 7.09765625 C3.1015625 7.06510417 1.05078125 7.03255208 -1 7 C-0.67 4.69 -0.34 2.38 0 0 Z" transform="translate(191,367)"/><path fill="#022539" d="M0 0 C2.10269958 2.17395046 2.93977988 3.54638491 3.34057617 6.56542969 C3.32486572 7.50805664 3.30915527 8.45068359 3.29296875 9.421875 C3.28330078 10.44667969 3.27363281 11.47148437 3.26367188 12.52734375 C3.23853516 13.59082031 3.21339844 14.65429688 3.1875 15.75 C3.17396484 16.82894531 3.16042969 17.90789062 3.14648438 19.01953125 C3.11116584 21.6801942 3.06184199 24.33984296 3 27 C0.03 27 -2.94 27 -6 27 C-6.11654436 23.4377769 -6.1873639 19.87604658 -6.25 16.3125 C-6.28351563 15.30509766 -6.31703125 14.29769531 -6.3515625 13.25976562 C-6.45051389 5.76419814 -6.45051389 5.76419814 -4.109375 1.79296875 C-2 0 -2 0 0 0 Z" transform="translate(385,261)"/><path fill="#02141F" d="M0 0 C1.875 0.625 1.875 0.625 4 2 C5.25 5.125 5.25 5.125 6 8 C3.5625 6.8125 3.5625 6.8125 1 5 C0.1875 2.3125 0.1875 2.3125 0 0 Z" transform="translate(374,382)"/><path fill="#11191A" d="M0 0 C0.33 0.66 0.66 1.32 1 2 C0.16189391 4.38151978 -0.73429824 6.6335343 -1.75 8.9375 C-2.01554688 9.57107422 -2.28109375 10.20464844 -2.5546875 10.85742188 C-3.96020628 14.101714 -5.23232379 16.74084262 -8 19 C-7.46381315 11.49338405 -5.64942006 5.24589005 0 0 Z" transform="translate(537,591)"/><path fill="#15303F" d="M0 0 C0.33 0 0.66 0 1 0 C0.34832443 3.5786304 -1.78286492 6.74820188 -4 10 C-5.32 9.67 -6.64 9.34 -8 9 C-7.67 8.34 -7.34 7.68 -7 7 C-6.01 7.33 -5.02 7.66 -4 8 C-3.566875 6.8553125 -3.566875 6.8553125 -3.125 5.6875 C-2 3 -2 3 0 0 Z" transform="translate(295,351)"/><path fill="#021E2C" d="M0 0 C-1.29299694 2.88437779 -2.65941363 4.87219421 -5 7 C-5.99 6.67 -6.98 6.34 -8 6 C-7.0479279 4.99403703 -6.08812654 3.99538437 -5.125 3 C-4.59132813 2.443125 -4.05765625 1.88625 -3.5078125 1.3125 C-2 0 -2 0 0 0 Z" transform="translate(588,318)"/><path fill="#25343B" d="M0 0 C0.66 0.33 1.32 0.66 2 1 C-0.31 3.31 -2.62 5.62 -5 8 C-5.33 7.34 -5.66 6.68 -6 6 C-4 4 -2 2 0 0 Z" transform="translate(405,159)"/><path fill="#1C3440" d="M0 0 C0.33 0.66 0.66 1.32 1 2 C0.22265625 3.9453125 0.22265625 3.9453125 -0.9375 6.125 C-1.31777344 6.84945312 -1.69804688 7.57390625 -2.08984375 8.3203125 C-2.39019531 8.87460938 -2.69054687 9.42890625 -3 10 C-3.99 9.67 -4.98 9.34 -6 9 C-5.34 9 -4.68 9 -4 9 C-3.896875 8.2575 -3.79375 7.515 -3.6875 6.75 C-2.95746496 3.82985982 -1.93210602 2.26812446 0 0 Z" transform="translate(579,134)"/></svg>