<svg width="48" height="48" viewBox="0 0 48 48" fill="none" xmlns="http://www.w3.org/2000/svg">
<g clip-path="url(#clip0_405_5)">
<path d="M0 0H48V48H0V0Z" fill="#F0F0F0"/>
<path d="M23.9184 9.47917C23.238 9.47917 22.6861 10.0271 22.6861 10.7115C22.6861 11.3918 23.238 11.9438 23.9184 11.9438C24.6027 11.9438 25.1507 11.3918 25.1507 10.7115C25.1507 10.0271 24.6027 9.47917 23.9184 9.47917Z" fill="black"/>
<path d="M29.8383 14.7708C29.2155 14.148 28.1884 13.7812 26.8528 13.7812H21.0268C19.6912 13.7812 18.6641 14.148 18.0413 14.7708C17.3838 15.3937 16.8917 16.3312 16.857 17.5833H31.0227C30.988 16.3312 30.4959 15.3937 29.8383 14.7708Z" fill="black"/>
<path d="M31.0227 18.2917H16.857V21.125H18.7309V20.2708H29.1497V21.125H31.0227V18.2917Z" fill="black"/>
<path d="M29.1497 21.8333H18.7309V29.8958H16.857V32.7292H31.0227V29.8958H29.1497V21.8333Z" fill="black"/>
<path d="M32.2592 33.4375H15.6206C15.2165 33.4375 14.8894 33.7646 14.8894 34.1688V35.5833C14.8894 35.9875 15.2165 36.3146 15.6206 36.3146H32.2592C32.6634 36.3146 32.9904 35.9875 32.9904 35.5833V34.1688C32.9904 33.7646 32.6634 33.4375 32.2592 33.4375Z" fill="black"/>
</g>
<defs>
<clipPath id="clip0_405_5">
<rect width="48" height="48" fill="white"/>
</clipPath>
</defs>
</svg>
