<svg width="48" height="48" viewBox="0 0 48 48" fill="none" xmlns="http://www.w3.org/2000/svg">
<path d="M33.6493 8.35064L24 4L14.3507 8.35064L8.35064 14.3507L4 24L8.35064 33.6493L14.3507 39.6493L24 44L33.6493 39.6493L39.6493 33.6493L44 24L39.6493 14.3507L33.6493 8.35064Z" fill="#2D2A42"/>
<path d="M33.6493 8.35064L24 4L14.3507 8.35064L8.35064 14.3507L4 24L8.35064 33.6493L14.3507 39.6493L24 44L33.6493 39.6493L39.6493 33.6493L44 24L39.6493 14.3507L33.6493 8.35064Z" stroke="#8A77D2" stroke-width="2"/>
<path d="M28.8286 12.4355L14.3507 19.1741V33.6493L24 39.6493L33.6493 33.6493L39.6493 28.8286V14.3507L28.8286 12.4355Z" fill="#8A77D2"/>
<path d="M19.1714 35.5645L24 33.6493L28.8286 35.5645V39.6493L24 44L19.1714 39.6493V35.5645Z" fill="#AF9FF4"/>
<path d="M14.3507 19.1741L19.1714 14.3507L24 12.4355L28.8286 14.3507L33.6493 19.1741V28.8286L28.8286 33.6493L24 35.5645L19.1714 33.6493L14.3507 28.8286V19.1741Z" fill="#AF9FF4"/>
<path d="M19.1714 8.35064L24 10.2659L28.8286 8.35064L33.6493 14.3507L28.8286 12.4355L24 14.3507L19.1714 12.4355L14.3507 14.3507L19.1714 8.35064Z" fill="#F0F0F0"/>
<path d="M14.3507 14.3507V19.1741H8.35064L14.3507 14.3507Z" fill="#AF9FF4"/>
<path d="M33.6493 14.3507V19.1741H39.6493L33.6493 14.3507Z" fill="#AF9FF4"/>
<path d="M14.3507 33.6493V28.8286H8.35064L14.3507 33.6493Z" fill="#AF9FF4"/>
<a/>
<path d="M33.6493 33.6493V28.8286H39.6493L33.6493 33.6493Z" fill="#AF9FF4"/>
</svg>
