<svg width="48" height="48" viewBox="0 0 48 48" fill="none" xmlns="http://www.w3.org/2000/svg">
<path d="M12 4C7.58172 4 4 7.58172 4 12V36C4 40.4183 7.58172 44 12 44H36C40.4183 44 44 40.4183 44 36V12C44 7.58172 40.4183 4 36 4H12Z" fill="#4CAF50"/>
<path d="M15.4243 19.349C16.9203 22.428 19.4973 25.005 22.5763 26.501L25.1053 23.972C25.4333 23.644 25.9183 23.551 26.3503 23.702C27.5683 24.12 28.8683 24.36 30.2033 24.36C30.9743 24.36 31.6033 24.989 31.6033 25.76V30.136C31.6033 30.907 30.9743 31.536 30.2033 31.536C20.1423 31.536 12.0003 23.394 12.0003 13.333C12.0003 12.562 12.6293 11.933 13.4003 11.933H17.7763C18.5473 11.933 19.1763 12.562 19.1763 13.333C19.1763 14.668 19.4163 15.968 19.8343 17.186C19.9853 17.618 19.8923 18.103 19.5643 18.431L17.0353 20.96C17.0353 20.96 15.4243 19.349 15.4243 19.349Z" fill="white"/>
</svg>
