<?xml version="1.0" standalone="no"?>
<!DOCTYPE svg PUBLIC "-//W3C//DTD SVG 20010904//EN"
 "http://www.w3.org/TR/2001/REC-SVG-20010904/DTD/svg10.dtd">
<svg version="1.0" xmlns="http://www.w3.org/2000/svg"
 width="1024.000000pt" height="1024.000000pt" viewBox="0 0 1024.000000 1024.000000"
 preserveAspectRatio="xMidYMid meet">

<g transform="translate(0.000000,1024.000000) scale(0.100000,-0.100000)"
fill="#000000" stroke="none">
<path d="M3374 9525 c-41 -112 -62 -142 -167 -239 -90 -83 -113 -111 -143
-172 -33 -65 -37 -81 -37 -156 -1 -107 23 -164 85 -205 l43 -28 -88 -5 c-121
-8 -131 -19 -148 -160 -10 -89 -10 -113 2 -150 12 -39 20 -47 59 -62 25 -9 62
-20 83 -23 44 -7 64 -33 69 -90 3 -37 1 -40 -25 -43 -40 -5 -70 -55 -62 -104
3 -24 -1 -49 -11 -72 -14 -28 -15 -42 -6 -77 8 -31 8 -47 0 -56 -17 -20 -4
-193 18 -234 9 -19 34 -54 54 -79 21 -25 40 -56 44 -70 4 -14 11 -114 15 -224
9 -208 12 -219 56 -213 18 2 20 -5 23 -68 2 -38 9 -138 15 -222 7 -83 11 -157
9 -162 -3 -8 -334 -11 -1098 -11 l-1094 0 0 -460 0 -460 1104 0 1103 0 -90
-172 c-98 -190 -207 -394 -344 -648 -49 -91 -125 -232 -168 -315 -43 -82 -133
-251 -200 -375 -67 -124 -155 -288 -195 -365 -40 -77 -126 -239 -190 -360 -64
-121 -150 -283 -190 -360 -40 -77 -76 -144 -80 -150 -4 -5 -38 -68 -75 -140
-37 -71 -88 -165 -111 -207 -24 -43 -44 -79 -44 -82 0 -3 -15 -31 -33 -63 -38
-66 -147 -272 -147 -279 0 -2 240 -4 534 -4 l533 0 68 127 c37 71 114 214 170
318 56 105 169 316 250 470 81 154 178 336 215 405 37 69 114 214 171 323 57
108 153 286 213 395 132 240 142 259 157 297 12 30 12 30 26 -35 10 -44 13
-108 11 -200 l-4 -135 -57 -116 c-85 -173 -101 -241 -101 -429 -1 -172 8 -206
80 -325 l35 -59 -25 -126 c-52 -259 -79 -460 -136 -1021 -39 -387 -122 -936
-194 -1289 -14 -69 -26 -126 -26 -127 0 -2 653 -3 1450 -3 l1451 0 -5 33 c-3
17 -10 79 -16 137 -5 58 -26 251 -45 430 -43 408 -51 500 -70 840 -9 151 -22
354 -30 450 -8 96 -17 218 -21 271 l-6 95 42 85 c23 46 58 124 76 173 19 48
37 92 39 97 3 4 21 -2 40 -15 42 -29 176 -66 237 -66 l45 0 316 -422 c173
-233 341 -458 372 -500 l56 -78 655 0 655 0 -73 88 c-142 168 -393 477 -486
600 -50 66 -103 130 -452 562 -140 173 -328 407 -416 520 -89 113 -196 246
-238 295 -42 50 -76 95 -76 100 0 6 48 69 106 140 117 144 127 150 232 138 48
-5 56 -9 77 -43 23 -36 103 -110 120 -110 4 0 29 19 56 43 26 23 69 60 96 82
l48 40 70 -6 c39 -4 117 -20 175 -37 71 -21 147 -35 235 -42 71 -6 131 -12
132 -13 4 -5 -129 -431 -222 -709 l-100 -297 -58 -1 -57 0 21 -43 c64 -125
146 -214 234 -253 101 -44 164 -57 271 -56 111 2 172 18 273 72 77 41 122 89
181 191 l48 84 -63 3 -63 3 -45 127 c-93 263 -157 441 -207 577 -28 77 -65
180 -82 230 -30 86 -30 89 -12 100 10 5 36 27 57 48 30 31 37 45 37 77 0 22
-5 40 -10 40 -6 0 -29 -12 -52 -26 -37 -24 -48 -26 -107 -21 -98 8 -340 54
-471 89 -63 16 -143 33 -177 37 -34 3 -63 9 -65 11 -20 25 -78 111 -78 115 0
2 34 29 74 59 41 31 79 63 84 73 5 10 13 50 16 88 6 62 4 75 -17 117 l-24 47
26 33 c14 18 111 137 216 263 195 235 269 325 435 530 52 64 156 189 230 278
74 90 141 170 149 180 13 16 -21 17 -626 17 l-639 0 -89 -117 c-108 -141 -285
-362 -459 -573 -70 -85 -191 -234 -269 -330 -78 -96 -189 -231 -247 -300 -58
-69 -134 -162 -169 -208 -35 -45 -65 -82 -67 -82 -2 0 -30 55 -63 123 -84 173
-195 294 -348 380 -41 23 -72 51 -106 97 -27 36 -75 94 -106 130 l-58 65 39
50 39 50 -6 80 c-3 44 -17 174 -31 289 -14 115 -22 217 -17 225 4 9 7 21 8 26
0 6 12 26 27 45 85 111 77 209 -26 343 -20 26 -36 53 -36 60 0 18 35 49 165
148 188 143 361 282 340 275 -11 -4 -96 -30 -190 -57 -168 -50 -334 -101 -366
-114 -12 -5 -24 6 -43 41 l-27 48 32 76 c102 245 218 534 215 537 -1 2 -72
-70 -156 -160 -84 -89 -189 -199 -233 -244 l-79 -82 -43 6 c-52 7 -45 -14
-100 303 -70 399 -78 436 -86 409 -5 -13 -29 -159 -54 -324 -25 -165 -48 -317
-51 -338 -4 -28 -12 -41 -30 -48 -66 -24 -61 -27 -229 127 -88 81 -196 182
-241 225 -45 44 -84 79 -87 79 -3 0 60 -136 139 -302 l145 -302 -34 -34 -35
-35 -128 32 c-71 17 -214 54 -318 81 -105 27 -192 48 -194 46 -2 -3 119 -86
270 -186 150 -100 279 -188 287 -196 13 -11 11 -21 -15 -71 -39 -78 -40 -155
-1 -230 15 -29 27 -55 27 -58 0 -3 -101 -5 -225 -5 l-224 0 -11 43 c-24 93
-44 161 -111 372 -103 329 -137 474 -120 517 6 15 16 94 23 177 l12 149 -57
110 -56 111 14 48 c8 26 15 80 15 119 0 78 5 84 60 84 107 0 118 19 116 203
l-1 139 -28 24 c-19 16 -40 24 -66 24 -54 0 -101 11 -101 23 0 5 11 25 26 44
14 18 23 37 19 42 -3 5 1 11 7 13 10 4 13 37 13 124 0 138 -15 202 -77 339
-22 49 -53 124 -68 165 -22 60 -30 71 -36 55z m5078 -5700 c49 -143 96 -272
104 -287 l15 -28 -319 0 -319 0 34 103 c109 328 263 812 264 826 0 16 53 -132
221 -614z"/>
</g>
</svg>
