<?xml version="1.0" standalone="no"?>
<!DOCTYPE svg PUBLIC "-//W3C//DTD SVG 20010904//EN"
 "http://www.w3.org/TR/2001/REC-SVG-20010904/DTD/svg10.dtd">
<svg version="1.0" xmlns="http://www.w3.org/2000/svg"
 width="720.000000pt" height="1280.000000pt" viewBox="0 0 720.000000 1280.000000"
 preserveAspectRatio="xMidYMid meet">

<g transform="translate(0.000000,1280.000000) scale(0.100000,-0.100000)"
fill="#000000" stroke="none">
<path d="M0 6400 l0 -6400 3600 0 3600 0 0 2765 0 2765 -34 0 c-39 0 -182 -40
-241 -67 -59 -28 -146 -79 -177 -105 -15 -13 -56 -45 -92 -73 -36 -27 -64 -55
-61 -62 2 -7 -1 -10 -8 -7 -7 2 -23 -6 -37 -18 -57 -52 -70 -57 -119 -40 -37
13 -54 13 -96 4 -129 -30 -184 -50 -214 -75 -20 -16 -44 -27 -62 -27 l-30 0
18 25 c10 13 26 27 36 31 14 4 17 12 13 29 -4 14 -1 27 6 31 8 5 9 2 5 -9 -3
-10 -3 -17 1 -17 16 0 285 295 360 395 28 38 76 128 127 240 100 223 181 352
266 429 51 46 109 83 109 70 0 -4 6 -2 13 4 15 12 103 45 170 62 l47 13 -1
776 c-1 458 -5 750 -10 712 -14 -111 -63 -295 -99 -376 -60 -134 -97 -204
-160 -299 -38 -59 -70 -108 -70 -110 0 -3 -13 -18 -30 -34 -16 -17 -30 -29
-30 -28 0 1 12 27 26 57 37 75 79 199 99 292 26 117 17 413 -15 512 -47 147
-136 298 -253 430 -34 39 -66 76 -72 83 -5 7 -35 39 -65 71 -106 110 -198 219
-251 297 -59 88 -120 237 -147 359 -26 124 -22 436 12 735 60 546 72 857 41
1094 -45 346 -169 644 -396 953 -37 50 -65 94 -61 98 4 4 2 5 -4 3 -13 -3
-147 137 -142 149 2 4 -4 8 -13 8 -9 0 -41 23 -71 50 -62 58 -180 154 -256
209 -29 21 -49 43 -45 48 3 7 1 8 -5 4 -14 -9 -163 104 -155 117 3 6 1 7 -6 3
-14 -9 -163 114 -216 179 -21 25 -42 45 -48 45 -6 0 -7 -3 -4 -7 4 -3 1 -13
-6 -22 -10 -14 -10 -14 4 -3 14 10 20 7 42 -22 14 -18 23 -37 19 -41 -4 -5 -2
-5 4 -2 7 4 18 -1 25 -10 21 -24 167 -144 224 -183 117 -80 255 -192 249 -202
-4 -7 -2 -8 5 -4 21 14 320 -263 417 -388 205 -260 339 -550 405 -873 40 -197
37 -644 -6 -1023 -51 -443 -62 -757 -31 -900 55 -252 138 -397 362 -630 121
-127 237 -264 292 -345 199 -297 224 -630 75 -1023 -12 -32 -19 -40 -26 -30
-6 9 -7 8 -3 -5 6 -20 -13 -69 -25 -62 -4 3 -11 0 -15 -6 -4 -8 -3 -9 4 -5 16
10 15 0 -4 -29 -9 -14 -20 -22 -25 -19 -5 3 -6 -1 -3 -9 8 -22 -53 -87 -77
-82 -11 2 -17 0 -14 -6 4 -5 11 -7 16 -4 23 15 4 -13 -63 -90 -40 -46 -76 -82
-80 -79 -4 3 -5 -3 -1 -12 5 -13 3 -15 -7 -9 -9 5 -11 4 -6 -4 4 -6 -1 -23
-12 -39 -78 -112 -112 -272 -112 -532 -1 -222 -20 -331 -82 -454 -15 -30 -22
-36 -29 -25 -8 11 -9 11 -7 -3 3 -15 -42 -82 -94 -139 -40 -43 -121 -105 -168
-128 -25 -12 -52 -25 -60 -30 -37 -20 -59 -29 -115 -46 -33 -11 -65 -24 -71
-30 -17 -17 -26 -53 -15 -59 16 -10 1 -36 -20 -36 -10 0 -19 -4 -19 -10 0 -5
7 -10 16 -10 13 0 15 -8 10 -42 -4 -26 -1 -47 7 -57 10 -14 10 -14 -5 -3 -10
8 -26 11 -38 7 -12 -4 -26 -2 -33 3 -7 5 -30 15 -52 21 -22 7 -49 16 -60 21
-11 5 -60 24 -110 44 -49 19 -142 55 -207 80 l-116 46 -131 0 c-106 0 -143 -4
-196 -21 -61 -20 -65 -24 -66 -53 -1 -17 -5 12 -10 64 -4 52 -14 118 -22 145
-61 213 -67 243 -72 370 -3 72 -11 177 -17 234 -10 97 -9 106 8 118 10 7 25
13 33 13 38 0 125 54 195 120 69 66 146 173 133 186 -8 8 -218 -33 -259 -50
-18 -8 -51 -27 -73 -43 -50 -36 -68 -43 -85 -33 -21 13 0 32 103 91 89 50 180
92 282 128 77 28 143 64 218 119 66 49 96 63 165 77 40 8 40 18 1 45 -25 19
-30 28 -27 59 2 29 10 41 41 60 l37 24 0 73 c0 66 4 79 42 151 36 67 42 86 42
138 -1 66 -12 94 -80 192 -23 35 -50 83 -59 108 -10 25 -22 45 -26 45 -22 0
-5 -72 38 -164 53 -114 60 -166 29 -234 -10 -23 -22 -42 -26 -42 -4 0 -13 27
-20 60 -7 33 -16 60 -21 60 -5 0 -10 -39 -11 -87 l-3 -86 -28 44 c-15 24 -52
61 -82 82 -58 40 -95 93 -116 165 -17 57 -29 53 -29 -11 0 -59 39 -152 109
-257 l40 -60 -26 0 c-27 0 -152 67 -236 126 -50 36 -67 42 -67 22 0 -19 82
-91 173 -152 110 -73 137 -104 137 -159 0 -91 -98 -225 -196 -268 -25 -12 -47
-19 -49 -17 -2 2 5 35 16 73 22 81 26 199 7 193 -7 -3 -26 -45 -43 -94 -48
-142 -96 -203 -202 -258 -35 -17 -73 -21 -73 -7 0 5 11 28 24 52 14 24 35 89
47 144 11 55 34 133 50 173 30 76 35 102 20 102 -12 0 -53 -53 -74 -96 -9 -18
-30 -73 -47 -124 -38 -116 -39 -118 -112 -215 -32 -44 -73 -102 -91 -129 -37
-56 -76 -89 -97 -81 -8 3 -33 31 -55 62 -22 31 -62 83 -90 116 -81 96 -94 120
-130 225 -44 128 -82 209 -109 228 -31 22 -31 1 -1 -80 14 -38 35 -120 45
-182 14 -80 27 -126 45 -154 23 -36 24 -40 7 -40 -34 0 -140 60 -164 93 -36
47 -48 72 -68 146 -21 75 -49 145 -55 139 -20 -19 -4 -188 24 -262 7 -16 9
-31 7 -34 -6 -5 -106 80 -147 125 -38 42 -66 92 -79 144 -20 79 -4 101 149
199 138 89 191 134 175 149 -5 5 -62 -22 -139 -65 -141 -79 -222 -117 -229
-106 -9 15 32 109 78 181 56 87 76 138 76 193 0 50 -14 42 -34 -20 -11 -33
-34 -65 -72 -102 -61 -60 -78 -88 -88 -140 -7 -38 -40 -100 -54 -100 -18 0
-32 54 -32 125 0 75 -14 101 -25 48 -4 -16 -9 -39 -12 -53 -5 -24 -6 -24 -25
14 -31 60 -21 130 32 241 29 61 44 106 46 140 3 48 3 49 -9 20 -6 -16 -29 -64
-51 -105 -103 -195 -100 -188 -99 -256 0 -55 7 -78 47 -160 25 -52 64 -117 87
-144 43 -51 54 -95 28 -111 -8 -5 -22 -6 -31 -3 -26 8 -23 -18 5 -43 12 -11
40 -30 61 -43 22 -13 67 -51 100 -84 68 -68 171 -128 335 -196 129 -54 251
-131 251 -160 0 -26 -3 -26 -69 14 -31 19 -90 44 -131 55 -41 11 -97 27 -125
35 -27 9 -51 16 -52 16 -11 0 2 -42 29 -92 47 -89 133 -171 209 -200 61 -23
64 -26 88 -81 l24 -58 -26 -107 c-40 -162 -85 -372 -102 -477 -10 -63 -53
-145 -72 -138 -11 4 -14 2 -9 -5 3 -6 -3 -16 -15 -22 -12 -7 -19 -8 -15 -2 3
6 0 13 -6 16 -7 3 -2 3 11 0 16 -4 21 -3 16 6 -4 7 1 13 12 16 20 6 59 61 49
71 -3 3 1 17 8 32 7 14 16 46 19 71 6 52 -8 26 -18 -32 -3 -21 -11 -38 -17
-38 -6 0 -8 -9 -5 -20 3 -11 1 -18 -4 -14 -5 3 -6 -2 -3 -10 8 -20 -40 -51
-63 -40 -14 6 -11 9 17 14 l35 6 -29 9 c-20 5 -31 4 -37 -6 -14 -22 -10 -39 9
-40 12 0 10 -3 -7 -10 -13 -5 -33 -7 -45 -4 -15 5 -17 4 -7 -3 11 -8 11 -10 0
-15 -8 -3 -1 -4 15 -4 16 1 31 -4 33 -10 3 -7 -3 -13 -11 -13 -9 0 -25 -6 -36
-12 -17 -11 -22 -10 -31 2 -9 13 -10 13 -6 -1 6 -20 -34 -41 -60 -33 -14 5
-15 4 -4 -4 16 -12 -3 -27 -21 -16 -6 4 -8 3 -5 -3 4 -6 -11 -24 -33 -42 -39
-31 -40 -31 -77 -16 -28 12 -54 14 -103 9 -55 -5 -69 -3 -83 11 -9 9 -17 12
-17 6 0 -6 -15 -11 -33 -11 -19 0 -54 -6 -79 -14 -27 -8 -52 -10 -59 -5 -13 8
-5 13 14 10 5 -1 6 3 2 9 -8 13 -32 13 -37 -1 -2 -7 -13 -9 -26 -5 -25 8 -30
26 -7 26 22 0 18 17 -5 23 -10 3 -21 0 -23 -7 -3 -8 -7 -8 -18 1 -8 6 -26 14
-39 16 -48 10 -80 27 -80 43 0 10 -3 15 -6 11 -3 -3 -15 3 -27 14 -11 10 -29
19 -38 19 -10 0 -21 5 -24 10 -4 6 -11 7 -17 4 -6 -4 -18 3 -27 14 -32 42 -95
56 -241 53 -93 -1 -130 1 -120 8 8 6 25 8 37 4 18 -4 23 -1 23 15 0 11 -7 25
-15 32 -9 7 -14 19 -11 27 3 7 -1 13 -9 13 -10 0 -15 10 -15 30 l0 30 64 0
c63 0 96 14 96 42 0 7 20 9 58 5 48 -5 54 -4 40 7 -25 19 -23 23 19 37 20 6
48 23 62 36 l26 24 -22 19 c-15 11 -23 29 -23 48 0 20 -7 33 -22 41 -13 6 -15
9 -6 7 10 -3 20 -1 23 4 4 6 -1 10 -9 10 -9 0 -16 7 -16 15 0 8 5 15 11 15 5
0 7 -5 3 -12 -5 -8 -2 -9 10 -5 9 4 14 3 11 -2 -3 -5 3 -12 12 -14 17 -4 17
-5 1 -6 -10 0 -18 -5 -18 -11 0 -14 33 -13 48 2 8 8 15 8 28 -3 12 -9 15 -10
10 -1 -4 6 -2 12 3 12 6 0 11 5 11 10 0 6 -12 8 -27 5 -23 -4 -25 -4 -8 4 18
9 17 10 -7 10 -16 1 -28 6 -28 11 0 6 -22 10 -49 10 -44 0 -49 -3 -55 -25 -7
-26 -20 -32 -31 -15 -3 6 -1 10 4 10 6 0 11 6 11 14 0 10 -18 16 -67 19 -140
9 -313 12 -313 4 0 -5 -4 -6 -9 -2 -5 3 -12 1 -15 -4 -3 -5 -23 -12 -43 -16
-38 -7 -85 -35 -115 -68 -16 -18 -17 -18 -30 2 -13 21 -28 28 -28 13 0 -5 17
-27 38 -49 59 -64 101 -120 111 -145 15 -41 24 -121 12 -113 -6 3 -11 2 -11
-4 0 -18 -78 -51 -121 -51 -48 0 -64 14 -229 204 -52 60 -102 117 -110 126
-14 14 -112 129 -148 173 -9 9 -12 20 -8 24 4 4 11 1 15 -6 6 -9 11 -10 15 -2
4 6 2 11 -3 11 -6 0 -11 7 -11 15 0 9 6 12 15 9 10 -4 15 0 15 14 0 11 7 22
15 26 8 3 15 14 15 25 0 11 7 26 15 35 8 8 15 19 15 24 0 6 6 13 13 15 9 4 9
6 0 6 -7 1 -13 9 -13 19 0 15 130 -113 295 -292 30 -33 55 -54 55 -48 0 7 9
12 20 12 13 0 20 7 20 19 0 34 -35 48 -67 28 -6 -4 -14 -3 -18 3 -3 5 1 10 9
10 12 0 16 10 16 40 0 22 5 40 10 40 6 0 10 -9 10 -21 0 -11 4 -17 10 -14 10
6 5 74 -10 133 -5 19 -5 30 1 26 15 -9 23 27 11 47 -16 25 -15 40 4 54 15 11
15 14 -1 38 -9 14 -14 31 -10 36 9 16 -26 63 -42 57 -8 -3 -11 -2 -8 3 3 6 -3
14 -12 20 -14 7 -8 8 22 5 56 -7 114 16 150 60 27 34 30 45 30 104 0 57 -4 73
-27 107 -28 40 -176 213 -452 528 -113 129 -149 177 -152 201 -1 17 -4 33 -5
36 -1 3 -1 9 0 13 1 5 -3 6 -8 3 -5 -4 -13 -1 -16 4 -10 17 4 60 19 60 8 0 17
7 20 16 3 8 2 12 -4 9 -6 -3 -10 -1 -10 5 0 15 50 32 78 27 16 -3 22 -1 18 9
-6 15 55 31 73 19 6 -3 32 -10 59 -15 26 -4 58 -12 72 -16 l25 -7 -20 24 c-11
13 -13 19 -5 13 27 -18 123 -53 190 -69 68 -15 181 -20 179 -7 -4 23 3 34 17
28 10 -4 24 5 41 24 16 19 34 30 51 30 l27 1 -25 15 -25 15 24 -7 c81 -22 173
13 207 78 19 37 21 115 4 149 -7 13 -36 51 -64 84 -58 69 -188 218 -197 225
-28 25 -170 193 -188 223 -35 57 -26 121 23 163 61 53 154 67 242 37 51 -17
105 -67 206 -188 28 -33 74 -85 102 -115 28 -30 76 -84 106 -119 95 -111 134
-147 173 -160 87 -29 177 40 177 136 0 50 -14 69 -166 230 -165 174 -185 202
-186 252 -1 73 64 141 136 141 14 0 60 -10 103 -21 102 -28 205 -23 285 13
106 49 178 181 165 303 -8 83 -18 98 -171 270 -169 189 -245 275 -306 345 -35
41 -76 89 -91 105 -91 101 -101 115 -85 116 9 1 19 2 24 3 4 1 24 5 45 10 152
30 268 203 238 354 -20 100 -49 148 -172 287 -38 42 -118 138 -184 220 -106
131 -195 204 -288 239 -27 10 -47 19 -45 21 2 2 27 -2 55 -8 48 -10 54 -9 68
9 8 10 15 38 15 62 0 30 4 42 15 42 7 0 18 6 22 14 9 15 103 28 103 14 0 -13
63 -5 67 9 3 7 -3 9 -17 6 -13 -4 -32 2 -50 16 -16 11 -34 21 -39 21 -6 0 -9
6 -7 13 15 48 16 67 1 67 -11 0 -15 -11 -15 -40 0 -45 -14 -54 -24 -15 -4 14
-11 23 -16 20 -5 -3 -11 4 -15 15 -3 11 -13 20 -21 20 -10 0 -14 12 -14 40 0
39 -1 40 -35 40 -34 0 -35 1 -35 40 0 33 3 40 20 40 15 0 20 7 20 25 0 23 -4
25 -40 25 -29 0 -40 4 -40 15 0 8 -7 15 -15 15 -11 0 -15 11 -15 40 0 40 0 40
40 41 22 1 46 2 53 3 7 0 13 19 15 44 l3 42 -40 0 c-30 0 -41 4 -41 15 0 9 -9
15 -25 15 -18 0 -25 5 -25 19 0 41 -11 51 -56 51 -32 0 -50 6 -70 25 l-27 25
-22 -20 c-23 -22 -35 -25 -35 -10 0 6 7 10 16 10 15 0 15 2 0 24 -10 17 -12
27 -5 31 15 10 -19 45 -43 45 -14 0 -18 8 -19 43 -1 41 -1 41 -10 12 -5 -16
-7 -36 -4 -42 2 -7 0 -23 -6 -35 -8 -21 -9 -20 -4 5 3 16 2 26 -3 23 -5 -3
-16 10 -25 29 -12 25 -13 35 -4 39 9 3 9 5 0 5 -21 2 -14 21 7 21 11 0 20 7
20 16 0 11 -6 14 -21 9 -25 -8 -51 21 -43 50 6 20 6 20 -9 0 -8 -11 -12 -22
-8 -25 4 -3 10 -13 14 -22 3 -10 -24 14 -61 53 -37 39 -68 75 -70 79 -4 12 36
32 48 25 6 -3 10 -2 10 4 0 21 -23 23 -49 3 -24 -17 -27 -17 -27 -3 0 9 7 17
16 18 44 4 57 10 74 36 14 21 25 28 43 24 17 -3 23 0 23 14 0 10 -9 19 -22 22
-22 3 -21 4 7 16 20 8 53 10 102 5 63 -5 73 -4 73 10 0 13 13 16 80 16 76 0
80 -1 80 -22 0 -21 1 -21 13 -3 15 19 37 13 37 -11 0 -8 7 -14 15 -14 9 0 15
9 15 24 0 14 5 28 12 32 8 5 9 0 4 -17 -4 -13 -9 -44 -11 -69 -2 -25 -2 -36 1
-25 3 11 12 38 20 59 9 22 12 51 9 67 -4 16 -1 36 5 46 10 15 10 14 5 -9 -3
-16 -1 -28 5 -28 5 0 11 8 12 18 0 9 2 24 2 32 1 8 7 14 14 12 7 -1 12 4 12
11 0 8 7 28 16 46 10 19 13 42 10 57 -8 29 1 64 15 64 5 0 7 -12 3 -27 l-6
-28 21 30 c26 37 26 45 1 45 -11 0 -20 5 -20 10 0 6 7 10 15 10 21 0 19 28 -2
33 -13 3 -14 5 -3 6 20 1 60 87 60 128 l0 33 -1340 0 -1340 0 0 -6400z m2590
6210 c0 -5 -7 -10 -15 -10 -8 0 -15 5 -15 10 0 6 7 10 15 10 8 0 15 -4 15 -10z
m-3 -46 c-3 -3 -12 -4 -19 -1 -8 3 -5 6 6 6 11 1 17 -2 13 -5z m-20 -51 c-3
-10 -5 -4 -5 12 0 17 2 24 5 18 2 -7 2 -21 0 -30z m23 -27 c0 -3 -4 -8 -10
-11 -5 -3 -10 -1 -10 4 0 6 5 11 10 11 6 0 10 -2 10 -4z m-23 -48 c-3 -8 -6 -5
-6 6 -1 11 2 17 5 13 3 -3 4 -12 1 -19z m-67 2 c0 -5 -4 -10 -10 -10 -5 0
-10 5 -10 10 0 6 5 10 10 10 6 0 10 -4 10 -10z m-860 -60 c6 -11 9 -20 8 -20
-2 0 -11 9 -21 20 -9 11 -13 20 -7 20 5 0 14 -9 20 -20z m890 9 c0 -6 -6 -9
-12 -6 -7 2 -18 -5 -25 -17 l-12 -21 -1 22 c0 21 11 31 38 32 6 1 12 -4 12
-10z m-46 -74 c-7 -16 -24 -21 -24 -6 0 8 7 13 27 20 1 1 0 -6 -3 -14z m-584
-109 c0 -3 -4 -8 -10 -11 -5 -3 -10 -1 -10 4 0 6 5 11 10 11 6 0 10 -2 10 -4z
m287 -479 l1 -42 -13 35 c-17 45 -18 61 -2 55 6 -3 13 -24 14 -48z m0 -69 c-3
-8 -6 -5 -6 6 -1 11 2 17 5 13 3 -3 4 -12 1 -19z m-30 -260 c-3 -8 -6 -5 -6 6
-1 11 2 17 5 13 3 -3 4 -12 1 -19z m-10 -110 c-3 -7 -5 -2 -5 12 0 14 2 19 5
13 2 -7 2 -19 0 -25z m433 -95 c0 -5 -5 -15 -10 -23 -8 -12 -10 -11 -10 8 0
12 5 22 10 22 6 0 10 -3 10 -7z m-45 -63 c3 -5 -1 -10 -9 -10 -9 0 -16 5 -16
10 0 6 4 10 9 10 6 0 13 -4 16 -10z m-951 -492 c4 -17 11 -25 19 -22 8 3 17
-11 25 -41 6 -25 16 -45 22 -45 5 0 10 -9 10 -21 0 -31 18 -59 35 -53 11 5 15
-2 15 -25 0 -19 6 -34 15 -37 8 -4 15 -14 15 -24 0 -27 23 -65 40 -65 8 0 17
-11 18 -25 2 -13 14 -34 27 -46 18 -16 24 -36 30 -91 8 -78 9 -82 48 -106 29
-19 77 -87 77 -111 0 -7 15 -25 34 -40 20 -15 37 -38 41 -56 3 -16 17 -45 31
-65 19 -28 22 -40 14 -55 -10 -18 0 -123 16 -164 5 -13 -2 -13 -58 0 -119 28
-263 44 -405 44 -117 0 -141 -2 -137 -14 4 -10 40 -15 154 -18 99 -3 153 -8
163 -17 11 -8 22 -9 34 -3 21 10 230 -21 272 -41 23 -11 27 -20 33 -76 4 -36
10 -71 13 -79 4 -10 1 -12 -12 -7 -27 12 -151 33 -215 37 -105 6 -65 -16 52
-29 110 -12 189 -29 191 -42 0 -3 2 -26 5 -51 2 -25 13 -77 24 -114 l19 -69
-76 7 c-42 3 -128 6 -191 6 -97 0 -113 2 -108 15 4 11 -2 15 -22 14 -15 0 -21
-3 -14 -6 28 -11 9 -21 -43 -22 -30 0 -55 4 -55 9 0 6 17 10 38 11 34 0 35 1
12 10 -33 13 -71 4 -64 -16 4 -10 0 -15 -11 -15 -11 0 -15 5 -11 15 3 9 0 15
-9 15 -8 0 -15 -4 -15 -10 0 -5 -18 -10 -40 -10 -22 0 -40 5 -40 10 0 6 -12
10 -27 9 -19 0 -23 -3 -13 -7 10 -5 16 -20 15 -44 0 -21 2 -38 4 -38 2 0 19
11 37 25 41 31 90 33 99 5 3 -11 10 -20 15 -20 5 0 12 9 15 20 11 33 60 26
111 -17 43 -35 44 -35 33 -10 -7 15 -16 27 -21 27 -4 0 -8 5 -8 11 0 19 120 2
152 -21 30 -22 49 -27 30 -8 -7 7 -12 16 -12 20 0 15 110 8 157 -11 26 -10 64
-21 83 -24 24 -4 18 0 -20 13 -68 23 -31 27 53 5 32 -8 74 -15 92 -15 l35 0 0
81 c0 51 4 78 10 74 6 -3 10 -39 10 -79 l0 -73 31 -7 c17 -3 64 -6 104 -6 83
0 83 1 80 95 -4 87 10 74 15 -15 l5 -85 88 -3 87 -3 0 43 c0 24 3 68 7 98 6
49 8 52 14 25 4 -16 7 -56 8 -87 1 -77 7 -88 46 -88 28 0 33 4 39 31 3 17 6
60 6 95 0 102 19 86 22 -18 3 -88 4 -93 26 -96 21 -3 22 0 23 75 2 126 14 143
23 31 4 -54 12 -100 16 -103 5 -3 7 -12 3 -20 -4 -12 5 -15 43 -16 l49 -1 -48
-8 c-27 -5 -51 -11 -54 -13 -2 -3 -10 -43 -17 -89 l-12 -83 -5 71 c-6 89 -17
104 -79 104 -67 0 -92 -23 -101 -91 l-6 -54 -2 47 c0 26 -5 58 -11 72 -9 25
-13 26 -90 26 l-80 0 -1 -32 -1 -33 -7 30 -6 30 -105 -4 c-134 -4 -149 -15
-152 -105 l-1 -61 -6 61 -6 60 -62 -24 c-57 -21 -63 -27 -63 -52 0 -16 4 -32
10 -35 9 -6 5 -104 -5 -114 -3 -2 -5 23 -5 55 0 38 -6 67 -15 80 -15 19 -15
19 -35 -5 -11 -13 -20 -33 -20 -45 0 -16 -12 -26 -45 -39 -39 -16 -45 -23 -50
-55 -13 -83 -19 -89 -25 -27 l-5 60 -14 -45 -15 -45 -7 35 -6 35 -2 -41 c0
-23 -9 -59 -18 -80 l-17 -39 -5 34 -6 33 -25 -20 c-15 -12 -30 -42 -40 -78
-18 -64 -39 -84 -38 -34 1 46 -7 45 -22 -2 -7 -24 -18 -47 -24 -53 -34 -30
-49 -70 -55 -143 -2 -25 -20 -1 -32 41 -6 23 -14 37 -16 30 -2 -6 0 -28 5 -47
8 -28 7 -34 -4 -29 -8 3 -14 -1 -14 -8 0 -33 -22 -92 -30 -80 -4 7 -6 21 -3
30 2 10 -5 34 -17 54 -13 22 -17 38 -11 38 6 1 16 2 23 3 20 2 19 22 -2 41
-21 19 -42 13 -22 -7 17 -17 15 -28 -7 -28 -13 0 -24 -13 -35 -40 -9 -23 -23
-43 -31 -46 -8 -4 -12 -10 -9 -16 3 -5 12 -1 20 9 8 11 13 13 14 5 0 -7 -11
-23 -25 -36 -22 -21 -23 -24 -9 -44 8 -12 20 -19 26 -16 7 5 9 2 6 -7 -3 -8 0
-23 8 -33 11 -16 16 -17 29 -6 8 7 19 10 23 6 9 -10 -27 -36 -50 -36 -10 0
-24 -11 -30 -25 -6 -14 -18 -25 -27 -25 -14 0 -14 2 -1 10 13 9 13 10 0 10
-26 1 -41 16 -34 34 4 9 14 16 23 14 9 -1 17 2 19 7 1 6 -20 11 -48 12 -49 3
-55 -1 -51 -34 2 -17 -19 -27 -31 -15 -8 8 -7 16 3 28 12 15 12 16 -6 11 -15
-5 -27 3 -47 30 -16 20 -28 45 -28 56 0 13 -5 17 -15 14 -10 -5 -14 1 -13 21
1 15 -2 50 -6 77 -7 47 -6 52 23 80 17 17 31 33 31 37 1 33 -145 134 -155 106
-24 -70 -27 -74 -35 -53 -4 11 -11 33 -16 49 -10 35 -27 37 -34 5 -4 -16 -15
5 -39 77 -31 94 -72 166 -87 152 -3 -4 -1 -22 5 -40 6 -18 12 -72 13 -119 3
-80 1 -88 -25 -122 -30 -40 -72 -54 -135 -44 -41 7 -36 2 -250 242 -69 77
-152 171 -186 208 -34 38 -65 75 -69 83 -8 14 -76 17 -98 4 -7 -5 -14 -51 -19
-111 l-7 -104 -2 87 c-1 64 -5 91 -17 102 -8 9 -12 16 -8 16 4 0 -1 9 -11 20
-41 45 -84 8 -86 -75 l-2 -50 -7 49 c-3 28 -11 51 -18 54 -6 2 -8 10 -5 18 4
10 -4 14 -30 14 -20 0 -39 5 -42 10 -5 9 16 14 52 13 9 -1 10 4 2 20 -10 18
-9 19 10 14 20 -5 21 -1 21 54 0 32 4 59 9 59 15 0 20 -13 27 -76 7 -71 9 -74
40 -74 22 0 24 4 24 45 0 46 7 54 29 33 10 -11 12 -10 9 1 -2 9 14 17 52 25
83 18 144 58 176 117 7 13 28 -5 111 -95 l101 -112 95 8 c85 7 99 10 122 34
15 15 33 46 40 68 12 39 13 40 14 11 l2 -30 23 29 c20 24 24 42 28 121 3 68 8
96 20 109 9 9 19 36 22 61 3 25 8 65 11 88 6 44 6 44 58 55 29 7 104 15 167
18 63 4 122 10 130 15 10 5 11 8 3 9 -7 0 -13 9 -13 20 0 14 -7 20 -22 20 -21
-1 -21 -2 -5 -11 28 -16 10 -28 -41 -27 -26 1 -95 -7 -154 -17 -113 -18 -138
-16 -138 11 0 16 55 73 99 104 17 12 23 32 32 98 6 45 9 101 7 124 -4 40 -1
44 80 127 76 79 84 91 93 142 9 45 18 64 49 93 35 33 39 42 45 106 6 55 12 73
28 85 13 9 22 27 23 47 1 18 7 34 13 36 6 2 11 19 11 38 0 22 6 37 15 40 9 4
15 19 15 38 0 17 3 42 7 56 l7 25 7 -30 c4 -16 10 -42 13 -57z m-69 -3208 c-3
-5 -12 -10 -18 -10 -7 0 -6 4 3 10 19 12 23 12 15 0z m35 -74 c0 -3 -4 -8 -10
-11 -5 -3 -10 -1 -10 4 0 6 5 11 10 11 6 0 10 -2 10 -4z m30 -41 c-6 -8 -5
-16 3 -25 9 -10 9 -11 -1 -5 -16 8 -32 46 -25 58 3 4 11 3 19 -4 10 -8 11 -15
4 -24z m-451 -449 c69 -78 138 -154 152 -171 15 -16 97 -109 184 -205 87 -96
166 -188 176 -205 26 -41 34 -109 19 -158 -22 -77 -77 -117 -160 -117 -68 0
-94 19 -212 154 -53 61 -182 208 -287 326 -105 118 -191 218 -191 222 0 3 20
18 45 32 79 47 117 119 118 227 1 70 -10 78 156 -105z m5986 54 c-3 -5 -12 -10
-18 -10 -7 0 -6 4 3 10 19 12 23 12 15 0z m-90 -50 c-3 -5 -12 -10 -18 -10 -7
0 -6 4 3 10 19 12 23 12 15 0z m-115 -34 c0 -2 -8 -10 -17 -17 -16 -13 -17 -12
-4 4 13 16 21 21 21 13z m-160 -140 c0 -2 -8 -10 -17 -17 -16 -13 -17 -12 -4
4 13 16 21 21 21 13z m20 -19 c0 -2 -10 -12 -22 -23 l-23 -19 19 23 c18 21 26
27 26 19z m-353 -404 c-3 -10 -5 -2 -5 17 0 19 2 27 5 18 2 -10 2 -26 0 -35z
m100 15 c-3 -8 -6 -5 -6 6 -1 11 2 17 5 13 3 -3 4 -12 1 -19z m-26 -104 c-5
-21 -9 -30 -10 -19 -1 24 10 67 15 62 3 -2 0 -22 -5 -43z m-84 -256 c-2 -18
-4 -4 -4 32 0 36 2 50 4 33 2 -18 2 -48 0 -65z m44 61 c-5 -13 -10 -19 -10 -12
-1 15 10 45 15 40 3 -2 0 -15 -5 -28z m0 -116 c-12 -20 -14 -14 -5 12 4 9 9
14 11 11 3 -2 0 -13 -6 -23z m-45 -24 c-9 -19 -15 -26 -16 -16 0 17 21 59 27
53 2 -2 -3 -18 -11 -37z m-5112 -131 c-4 -6 -3 -8 3 -5 11 7 82 -64 102 -101
10 -18 9 -21 -4 -16 -9 4 -24 -6 -40 -24 -48 -57 -176 -116 -238 -110 -31 3
-32 4 -33 53 -1 85 -3 91 -39 146 -25 36 -32 55 -24 59 8 6 8 9 0 14 -6 4 -11
17 -11 29 1 21 1 21 15 -3 l14 -25 1 28 c0 32 20 57 45 57 9 0 23 7 32 15 9 9
23 13 34 10 15 -5 18 -2 13 12 -4 10 26 -15 65 -54 43 -44 69 -78 65 -85z m783
80 c-3 -8 -6 -5 -6 6 -1 11 2 17 5 13 3 -3 4 -12 1 -19z m599 -11 c8 -19 7
-23 -6 -23 -12 0 -16 7 -13 21 2 11 1 14 -3 8 -3 -7 -10 -13 -15 -13 -6 0 -7
5 -3 12 5 8 2 9 -9 5 -10 -3 -17 -2 -17 3 0 6 12 10 28 10 18 0 30 -7 38 -23z
m3705 -11 c-11 -27 -24 -37 -16 -11 3 8 7 22 10 31 3 9 8 15 11 12 2 -3 0 -17
-5 -32z m-3918 17 c-7 -2 -19 -2 -25 0 -7 3 -2 5 12 5 14 0 19 -2 13 -5z m134
1 c-3 -3 -12 -4 -19 -1 -8 3 -5 6 6 6 11 1 17 -2 13 -5z m-193 -13 c3 -4 -6 -6
-19 -3 -14 2 -25 6 -25 8 0 8 39 4 44 -5z m334 -26 c-6 -14 -13 -23 -16 -21
-7 7 9 46 18 46 5 0 4 -11 -2 -25z m-1732 -32 c-4 -4 -11 -1 -16 7 -16 25 -11
35 7 17 9 -9 13 -20 9 -24z m1754 -33 c0 -5 -5 -10 -11 -10 -5 0 -7 5 -4 10 3
6 8 10 11 10 2 0 4 -4 4 -10z m-200 -155 c0 -9 -9 -15 -21 -15 -18 0 -19 2 -9
15 7 8 16 15 21 15 5 0 9 -7 9 -15z m-253 -37 c-3 -8 -6 -5 -6 6 -1 11 2 17 5
13 3 -3 4 -12 1 -19z m-1045 -24 c-28 -20 -28 -34 1 -34 16 0 18 3 8 9 -10 7
-11 10 -1 16 8 5 18 1 25 -8 7 -10 17 -17 24 -17 6 0 11 -17 11 -40 0 -22 -5
-40 -11 -40 -6 0 -19 -10 -29 -22 l-18 -22 -7 33 c-6 29 -8 30 -19 15 -8 -10
-18 -14 -25 -9 -7 4 0 -11 15 -34 20 -31 30 -39 37 -29 7 10 8 9 4 -3 -3 -9
-2 -21 1 -26 8 -10 -56 56 -125 130 -24 26 -40 47 -34 47 5 0 19 -12 30 -27
12 -14 24 -23 28 -20 3 4 -1 15 -10 25 -15 16 -15 18 2 18 13 0 17 -7 16 -29
-1 -15 2 -30 7 -33 4 -3 8 4 8 14 0 11 7 23 16 26 22 8 13 29 -17 37 l-24 7
25 1 c14 1 34 8 44 16 11 8 24 15 30 15 6 0 0 -7 -12 -16z m1177 -75 c-6 -12
-5 -20 1 -24 15 -9 2 -25 -21 -25 -20 0 -26 15 -9 25 6 3 10 16 10 29 0 12 3
26 7 29 12 12 22 -16 12 -34z m41 9 c0 -16 -3 -19 -11 -11 -6 6 -8 16 -5 22
11 17 16 13 16 -11z m-1120 -64 c0 -8 -4 -12 -10 -9 -5 3 -10 10 -10 16 0 5
5 9 10 9 6 0 10 -7 10 -16z m42 -29 c2 -27 -1 -44 -7 -42 -13 5 -19 87 -7 87
6 0 12 -20 14 -45z m-142 19 c0 -8 -4 -12 -10 -9 -5 3 -10 10 -10 16 0 5 5 9
10 9 6 0 10 -7 10 -16z m4545 -94 c3 -5 1 -10 -4 -10 -6 0 -11 5 -11 10 0 6
2 10 4 10 3 0 8 -4 11 -10z m21 -27 c-11 -11 -17 4 -9 23 7 18 8 18 11 1 2
-10 1 -21 -2 -24z m-4473 -7 c4 16 5 16 6 2 2 -31 -17 -29 -39 4 l-22 33 25
-29 c22 -26 25 -27 30 -10z m52 -6 c-3 -5 -11 -10 -16 -10 -6 0 -7 5 -4 10 3
6 11 10 16 10 6 0 7 -4 4 -10z m225 -16 c0 -2 -21 -4 -46 -4 -25 0 -43 4 -40
8 4 7 86 4 86 -4z m47 10 c-3 -3 -12 -4 -19 -1 -8 3 -5 6 6 6 11 1 17 -2 13
-5z m4148 -4 c-3 -5 -11 -10 -16 -10 -6 0 -7 5 -4 10 3 6 11 10 16 10 6 0 7
-4 4 -10z m-10 -40 c3 -5 1 -10 -4 -10 -6 0 -11 5 -11 10 0 6 2 10 4 10 3 0
8 -4 11 -10z m20 -110 c-3 -5 -12 -10 -18 -10 -7 0 -6 4 3 10 19 12 23 12 15
0z m-5764 -2877 c13 -16 12 -17 -3 -4 -10 7 -18 15 -18 17 0 8 8 3 21 -13z"/></g>
</svg>
