<?xml version="1.0" standalone="no"?>
<!DOCTYPE svg PUBLIC "-//W3C//DTD SVG 20010904//EN"
 "http://www.w3.org/TR/2001/REC-SVG-20010904/DTD/svg10.dtd">
<svg version="1.0" xmlns="http://www.w3.org/2000/svg"
 width="720.000000pt" height="1280.000000pt" viewBox="0 0 720.000000 1280.000000"
 preserveAspectRatio="xMidYMid meet">

<g transform="translate(0.000000,1280.000000) scale(0.100000,-0.100000)"
fill="#1a2a5e" stroke="none">
<path d="M0 6400 l0 -6400 3600 0 3600 0 0 2765 0 2765 -34 0 c-39 0 -182 -40
-241 -67 -59 -28 -146 -79 -177 -105 -15 -13 -56 -45 -92 -73 -36 -27 -64 -55
-61 -62 2 -7 -1 -10 -8 -7 -7 2 -23 -6 -37 -18 -57 -52 -70 -57 -119 -40 -37
13 -54 13 -96 4 -129 -30 -184 -50 -214 -75 -20 -16 -44 -27 -62 -27 l-30 0
18 25 c10 13 26 27 36 31 14 4 17 12 13 29 -4 14 -1 27 6 31 8 5 9 2 5 -9 -3
-10 -3 -17 1 -17 16 0 285 295 360 395 28 38 76 128 127 240 100 223 181 352
266 429 51 46 109 83 109 70 0 -4 6 -2 13 4 15 12 103 45 170 62 l47 13 -1
776 c-1 458 -5 750 -10 712 -14 -111 -63 -295 -99 -376 -60 -134 -97 -204
-160 -299 -38 -59 -70 -108 -70 -110 0 -3 -13 -18 -30 -34 -16 -17 -30 -29
-30 -28 0 1 12 27 26 57 37 75 79 199 99 292 26 117 17 413 -15 512 -47 147
-136 298 -253 430 -34 39 -66 76 -72 83 -5 7 -35 39 -65 71 -106 110 -198 219
-251 297 -59 88 -120 237 -147 359 -26 124 -22 436 12 735 60 546 72 857 41
1094 -45 346 -169 644 -396 953 -37 50 -65 94 -61 98 4 4 2 5 -4 3 -13 -3
-147 137 -142 149 2 4 -4 8 -13 8 -9 0 -41 23 -71 50 -62 58 -180 154 -256
209 -29 21 -49 43 -45 48 3 7 1 8 -5 4 -14 -9 -163 104 -155 117 3 6 1 7 -6 3
-14 -9 -163 114 -216 179 -21 25 -42 45 -48 45 -6 0 -7 -3 -4 -7 4 -3 1 -13
-6 -22 -10 -14 -10 -14 4 -3 14 10 20 7 42 -22 14 -18 23 -37 19 -41 -4 -5 -2
-5 4 -2 7 4 18 -1 25 -10 21 -24 167 -144 224 -183 117 -80 255 -192 249 -202
-4 -7 -2 -8 5 -4 21 14 320 -263 417 -388 205 -260 339 -550 405 -873 40 -197
37 -644 -6 -1023 -51 -443 -62 -757 -31 -900 55 -252 138 -397 362 -630 121
-127 237 -264 292 -345 199 -297 224 -630 75 -1023 -12 -32 -19 -40 -26 -30
-6 9 -7 8 -3 -5 6 -20 -13 -69 -25 -62 -4 3 -11 0 -15 -6 -4 -8 -3 -9 4 -5 16
10 15 0 -4 -29 -9 -14 -20 -22 -25 -19 -5 3 -6 -1 -3 -9 8 -22 -53 -87 -77
-82 -11 2 -17 0 -14 -6 4 -5 11 -7 16 -4 23 15 4 -13 -63 -90 -40 -46 -76 -82
-80 -79 -4 3 -5 -3 -1 -12 5 -13 3 -15 -7 -9 -9 5 -11 4 -6 -4 4 -6 -1 -23
-12 -39 -78 -112 -112 -272 -112 -532 -1 -222 -20 -331 -82 -454 -15 -30 -22
-36 -29 -25 -8 11 -9 11 -7 -3 3 -15 -42 -82 -94 -139 -40 -43 -121 -105 -168
-128 -25 -12 -52 -25 -60 -30 -37 -20 -59 -29 -115 -46 -33 -11 -65 -24 -71
-30 -17 -17 -26 -53 -15 -59 16 -10 1 -36 -20 -36 -10 0 -19 -4 -19 -10 0 -5
7 -10 16 -10 13 0 15 -8 10 -42 -4 -26 -1 -47 7 -57 10 -14 10 -14 -5 -3 -10
8 -26 11 -38 7 -12 -4 -26 -2 -33 3 -7 5 -30 15 -52 21 -22 7 -49 16 -60 21
-11 5 -60 24 -110 44 -49 19 -142 55 -207 80 l-116 46 -131 0 c-106 0 -143 -4
-196 -21 -61 -20 -65 -24 -66 -53 -1 -17 -5 12 -10 64 -4 52 -14 118 -22 145
-61 213 -67 243 -72 370 -3 72 -11 177 -17 234 -10 97 -9 106 8 118 10 7 25
13 33 13 38 0 125 54 195 120 69 66 146 173 133 186 -8 8 -218 -33 -259 -50
-18 -8 -51 -27 -73 -43 -50 -36 -68 -43 -85 -33 -21 13 0 32 103 91 89 50 180
92 282 128 77 28 143 64 218 119 66 49 96 63 165 77 40 8 40 18 1 45 -25 19
-30 28 -27 59 2 29 10 41 41 60 l37 24 0 73 c0 66 4 79 42 151 36 67 42 86 42
138 -1 66 -12 94 -80 192 -23 35 -50 83 -59 108 -10 25 -22 45 -26 45 -22 0
-5 -72 38 -164 53 -114 60 -166 29 -234 -10 -23 -22 -42 -26 -42 -4 0 -13 27
-20 60 -7 33 -16 60 -21 60 -5 0 -10 -39 -11 -87 l-3 -86 -28 44 c-15 24 -52
61 -82 82 -58 40 -95 93 -116 165 -17 57 -29 53 -29 -11 0 -59 39 -152 109
-257 l40 -60 -26 0 c-27 0 -152 67 -236 126 -50 36 -67 42 -67 22 0 -19 82
-91 173 -152 110 -73 137 -104 137 -159 0 -91 -98 -225 -196 -268 -25 -12 -47
-19 -49 -17 -2 2 5 35 16 73 22 81 26 199 7 193 -7 -3 -26 -45 -43 -94 -48
-142 -96 -203 -202 -258 -35 -17 -73 -21 -73 -7 0 5 11 28 24 52 14 24 35 89
47 144 11 55 34 133 50 173 30 76 35 102 20 102 -12 0 -53 -53 -74 -96 -9 -18
-30 -73 -47 -124 -38 -116 -39 -118 -112 -215 -32 -44 -73 -102 -91 -129 -37
-56 -76 -89 -97 -81 -8 3 -33 31 -55 62 -22 31 -62 83 -90 116 -81 96 -94 120
-130 225 -44 128 -82 209 -109 228 -31 22 -31 1 -1 -80 14 -38 35 -120 45
-182 14 -80 27 -126 45 -154 23 -36 24 -40 7 -40 -34 0 -140 60 -164 93 -36
47 -48 72 -68 146 -21 75 -49 145 -55 139 -20 -19 -4 -188 24 -262 7 -16 9
-31 7 -34 -6 -5 -106 80 -147 125 -38 42 -66 92 -79 144 -20 79 -4 101 149
199 138 89 191 134 175 149 -5 5 -62 -22 -139 -65 -141 -79 -222 -117 -229
-106 -9 15 32 109 78 181 56 87 76 138 76 193 0 50 -14 42 -34 -20 -11 -33
-34 -65 -72 -102 -61 -60 -78 -88 -88 -140 -7 -38 -40 -100 -54 -100 -18 0
-32 54 -32 125 0 75 -14 101 -25 48 -4 -16 -9 -39 -12 -53 -5 -24 -6 -24 -25
14 -31 60 -21 130 32 241 29 61 44 106 46 140 3 48 3 49 -9 20 -6 -16 -29 -64
-51 -105 -103 -195 -100 -188 -99 -256 0 -55 7 -78 47 -160 25 -52 64 -117 87
-144 43 -51 54 -95 28 -111 -8 -5 -22 -6 -31 -3 -26 8 -23 -18 5 -43 12 -11
40 -30 61 -43 22 -13 67 -51 100 -84 68 -68 171 -128 335 -196 129 -54 251
-131 251 -160 0 -26 -3 -26 -69 14 -31 19 -90 44 -131 55 -41 11 -97 27 -125
35 -27 9 -51 16 -52 16 -11 0 2 -42 29 -92 47 -89 133 -171 209 -200 61 -23
64 -26 88 -81 l24 -58 -26 -107 c-40 -162 -85 -372 -102 -477 -10 -63 -53
-145 -72 -138 -11 4 -14 2 -9 -5 3 -6 -3 -16 -15 -22 -12 -7 -19 -8 -15 -2 3
6 0 13 -6 16 -7 3 -2 3 11 0 16 -4 21 -3 16 6 -4 7 1 13 12 16 20 6 59 61 49
71 -3 3 1 17 8 32 7 14 16 46 19 71 6 52 -8 26 -18 -32 -3 -21 -11 -38 -17
-38 -6 0 -8 -9 -5 -20 3 -11 1 -18 -4 -14 -5 3 -6 -2 -3 -10 8 -20 -40 -51
-63 -40 -14 6 -11 9 17 14 l35 6 -29 9 c-20 5 -31 4 -37 -6 -14 -22 -10 -39 9
-40 12 0 10 -3 -7 -10 -13 -5 -33 -7 -45 -4 -15 5 -17 4 -7 -3 11 -8 11 -10 0
-15 -8 -3 -1 -4 15 -4 16 1 31 -4 33 -10 3 -7 -3 -13 -11 -13 -9 0 -25 -6 -36
-12 -17 -11 -22 -10 -31 2 -9 13 -10 13 -6 -1 6 -20 -34 -41 -60 -33 -14 5
-15 4 -4 -4 16 -12 -3 -27 -21 -16 -6 4 -8 3 -5 -3 4 -6 -11 -24 -33 -42 -39
-31 -40 -31 -77 -16 -28 12 -54 14 -103 9 -55 -5 -69 -3 -83 11 -9 9 -17 12
-17 6 0 -6 -15 -11 -33 -11 -19 0 -54 -6 -79 -14 -27 -8 -52 -10 -59 -5 -13 8
-5 13 14 10 5 -1 6 3 2 9 -8 13 -32 13 -37 -1 -2 -7 -13 -9 -26 -5 -25 8 -30
26 -7 26 22 0 18 17 -5 23 -10 3 -21 0 -23 -7 -3 -8 -7 -8 -18 1 -8 6 -26 14
-39 16 -48 10 -80 27 -80 43 0 10 -3 15 -6 11 -3 -3 -15 3 -27 14 -11 10 -29
19 -38 19 -10 0 -21 5 -24 10 -4 6 -11 7 -17 4 -6 -4 -18 3 -27 14 -32 42 -95
56 -241 53 -93 -1 -130 1 -120 8 8 6 25 8 37 4 18 -4 23 -1 23 15 0 11 -7 25
-15 32 -9 7 -14 19 -11 27 3 7 -1 13 -9 13 -10 0 -15 10 -15 30 l0 30 64 0
c63 0 96 14 96 42 0 7 20 9 58 5 48 -5 54 -4 40 7 -25 19 -23 23 19 37 20 6
48 23 62 36 l26 24 -22 19 c-15 11 -23 29 -23 48 0 20 -7 33 -22 41 -13 6 -15
9 -6 7 10 -3 20 -1 23 4 4 6 -1 10 -9 10 -9 0 -16 7 -16 15 0 8 5 15 11 15 5
0 7 -5 3 -12 -5 -8 -2 -9 10 -5 9 4 14 3 11 -2 -3 -5 3 -12 12 -14 17 -4 17
-5 1 -6 -10 0 -18 -5 -18 -11 0 -14 33 -13 48 2 8 8 15 8 28 -3 12 -9 15 -10
10 -1 -4 6 -2 12 3 12 6 0 11 5 11 10 0 6 -12 8 -27 5 -23 -4 -25 -4 -8 4 18
9 17 10 -7 10 -16 1 -28 6 -28 11 0 6 -22 10 -49 10 -44 0 -49 -3 -55 -25 -7
-26 -20 -32 -31 -15 -3 6 -1 10 4 10 6 0 11 6 11 14 0 10 -18 16 -67 19 -140
9 -313 12 -313 4 0 -5 -4 -6 -9 -2 -5 3 -12 1 -15 -4 -3 -5 -23 -12 -43 -16
-38 -7 -85 -35 -115 -68 -16 -18 -17 -18 -30 2 -13 21 -28 28 -28 13 0 -5 17
-27 38 -49 59 -64 101 -120 111 -145 15 -41 24 -121 12 -113 -6 3 -11 2 -11
-4 0 -18 -78 -51 -121 -51 -48 0 -64 14 -229 204 -52 60 -102 117 -110 126
-14 14 -112 129 -148 173 -9 9 -12 20 -8 24 4 4 11 1 15 -6 6 -9 11 -10 15 -2
4 6 2 11 -3 11 -6 0 -11 7 -11 15 0 9 6 12 15 9 10 -4 15 0 15 14 0 11 7 22
15 26 8 3 15 14 15 25 0 11 7 26 15 35 8 8 15 19 15 24 0 6 6 13 13 15 9 4 9
6 0 6 -7 1 -13 9 -13 19 0 15 130 -113 295 -292 30 -33 55 -54 55 -48 0 7 9
12 20 12 13 0 20 7 20 19 0 34 -35 48 -67 28 -6 -4 -14 -3 -18 3 -3 5 1 10 9
10 12 0 16 10 16 40 0 22 5 40 10 40 6 0 10 -9 10 -21 0 -11 4 -17 10 -14 10
6 5 74 -10 133 -5 19 -5 30 1 26 15 -9 23 27 11 47 -16 25 -15 40 4 54 15 11
15 14 -1 38 -9 14 -14 31 -10 36 9 16 -26 63 -42 57 -8 -3 -11 -2 -8 3 3 6 -3
14 -12 20 -14 7 -8 8 22 5 56 -7 114 16 150 60 27 34 30 45 30 104 0 57 -4 73
-27 107 -28 40 -176 213 -452 528 -113 129 -149 177 -152 201 -1 17 -4 33 -5
36 -1 3 -1 9 0 13 1 5 -3 6 -8 3 -5 -4 -13 -1 -16 4 -10 17 4 60 19 60 8 0 17
7 20 16 3 8 2 12 -4 9 -6 -3 -10 -1 -10 5 0 15 50 32 78 27 16 -3 22 -1 18 9
-6 15 55 31 73 19 6 -3 32 -10 59 -15 26 -4 58 -12 72 -16 l25 -7 -20 24 c-11
13 -13 19 -5 13 27 -18 123 -53 190 -69 68 -15 181 -20 179 -7 -4 23 3 34 17
28 10 -4 24 5 41 24 16 19 34 30 51 30 l27 1 -25 15 -25 15 24 -7 c81 -22 173
13 207 78 19 37 21 115 4 149 -7 13 -36 51 -64 84 -58 69 -188 218 -197 225
-28 25 -170 193 -188 223 -35 57 -26 121 23 163 61 53 154 67 242 37 51 -17
105 -67 206 -188 28 -33 74 -85 102 -115 28 -30 76 -84 106 -119 95 -111 134
-147 173 -160 87 -29 177 40 177 136 0 50 -14 69 -166 230 -165 174 -185 202
-186 252 -1 73 64 141 136 141 14 0 60 -10 103 -21 102 -28 205 -23 285 13
106 49 178 181 165 303 -8 83 -18 98 -171 270 -169 189 -245 275 -306 345 -35
41 -76 89 -91 105 -91 101 -101 115 -85 116 9 1 19 2 24 3 4 1 24 5 45 10 152
30 268 203 238 354 -20 100 -49 148 -172 287 -38 42 -118 138 -184 220 -106
131 -195 204 -288 239 -27 10 -47 19 -45 21 2 2 27 -2 55 -8 48 -10 54 -9 68
9 8 10 15 38 15 62 0 30 4 42 15 42 7 0 18 6 22 14 9 15 103 28 103 14 0 -13
63 -5 67 9 3 7 -3 9 -17 6 -13 -4 -32 2 -50 16 -16 11 -34 21 -39 21 -6 0 -9
6 -7 13 15 48 16 67 1 67 -11 0 -15 -11 -15 -40 0 -45 -14 -54 -24 -15 -4 14
-11 23 -16 20 -5 -3 -11 4 -15 15 -3 11 -13 20 -21 20 -10 0 -14 12 -14 40 0
39 -1 40 -35 40 -34 0 -35 1 -35 40 0 33 3 40 20 40 15 0 20 7 20 25 0 23 -4
25 -40 25 -29 0 -40 4 -40 15 0 8 -7 15 -15 15 -11 0 -15 11 -15 40 0 40 0 40
40 41 22 1 46 2 53 3 7 0 13 19 15 44 l3 42 -40 0 c-30 0 -41 4 -41 15 0 9 -9
15 -25 15 -18 0 -25 5 -25 19 0 41 -11 51 -56 51 -32 0 -50 6 -70 25 l-27 25
-22 -20 c-23 -22 -35 -25 -35 -10 0 6 7 10 16 10 15 0 15 2 0 24 -10 17 -12
27 -5 31 15 10 -19 45 -43 45 -14 0 -18 8 -19 43 -1 41 -1 41 -10 12 -5 -16
-7 -36 -4 -42 2 -7 0 -23 -6 -35 -8 -21 -9 -20 -4 5 3 16 2 26 -3 23 -5 -3
-16 10 -25 29 -12 25 -13 35 -4 39 9 3 9 5 0 5 -21 2 -14 21 7 21 11 0 20 7
20 16 0 11 -6 14 -21 9 -25 -8 -51 21 -43 50 6 20 6 20 -9 0 -8 -11 -12 -22
-8 -25 4 -3 10 -13 14 -22 3 -10 -24 14 -61 53 -37 39 -68 75 -70 79 -4 12 36
32 48 25 6 -3 10 -2 10 4 0 21 -23 23 -49 3 -24 -17 -27 -17 -27 -3 0 9 7 17
16 18 44 4 57 10 74 36 14 21 25 28 43 24 17 -3 23 0 23 14 0 10 -9 19 -22 22
-22 3 -21 4 7 16 20 8 53 10 102 5 63 -5 73 -4 73 10 0 13 13 16 80 16 76 0
80 -1 80 -22 0 -21 1 -21 13 -3 15 19 37 13 37 -11 0 -8 7 -14 15 -14 9 0 15
9 15 24 0 14 5 28 12 32 8 5 9 0 4 -17 -4 -13 -9 -44 -11 -69 -2 -25 -2 -36 1
-25 3 11 12 38 20 59 9 22 12 51 9 67 -4 16 -1 36 5 46 10 15 10 14 5 -9 -3
-16 -1 -28 5 -28 5 0 11 8 12 18 0 9 2 24 2 32 1 8 7 14 14 12 7 -1 12 4 12
11 0 8 7 28 16 46 10 19 13 42 10 57 -8 29 1 64 15 64 5 0 7 -12 3 -27 l-6
-28 21 30 c26 37 26 45 1 45 -11 0 -20 5 -20 10 0 6 7 10 15 10 21 0 19 28 -2
33 -13 3 -14 5 -3 6 20 1 60 87 60 128 l0 33 -1340 0 -1340 0 0 -6400z m2590
6210 c0 -5 -7 -10 -15 -10 -8 0 -15 5 -15 10 0 6 7 10 15 10 8 0 15 -4 15 -10z
m-3 -46 c-3 -3 -12 -4 -19 -1 -8 3 -5 6 6 6 11 1 17 -2 13 -5z m-20 -51 c-3
-10 -5 -4 -5 12 0 17 2 24 5 18 2 -7 2 -21 0 -30z m23 -27 c0 -3 -4 -8 -10
-11 -5 -3 -10 -1 -10 4 0 6 5 11 10 11 6 0 10 -2 10 -4z m-23 -48 c-3 -8 -6
-5 -6 6 -1 11 2 17 5 13 3 -3 4 -12 1 -19z m-67 2 c0 -5 -4 -10 -10 -10 -5 0
-10 5 -10 10 0 6 5 10 10 10 6 0 10 -4 10 -10z m-860 -60 c6 -11 9 -20 8 -20
-2 0 -11 9 -21 20 -9 11 -13 20 -7 20 5 0 14 -9 20 -20z m890 9 c0 -6 -6 -9
-12 -6 -7 2 -18 -5 -25 -17 l-12 -21 -1 22 c0 21 11 31 38 32 6 1 12 -4 12
-10z m-46 -74 c-7 -16 -24 -21 -24 -6 0 8 7 13 27 20 1 1 0 -6 -3 -14z m-584
-109 c0 -3 -4 -8 -10 -11 -5 -3 -10 -1 -10 4 0 6 5 11 10 11 6 0 10 -2 10 -4z
m287 -479 l1 -42 -13 35 c-17 45 -18 61 -2 55 6 -3 13 -24 14 -48z m0 -69 c-3
-8 -6 -5 -6 6 -1 11 2 17 5 13 3 -3 4 -12 1 -19z m-30 -260 c-3 -8 -6 -5 -6 6
-1 11 2 17 5 13 3 -3 4 -12 1 -19z m-10 -110 c-3 -7 -5 -2 -5 12 0 14 2 19 5
13 2 -7 2 -19 0 -25z m433 -95 c0 -5 -5 -15 -10 -23 -8 -12 -10 -11 -10 8 0
12 5 22 10 22 6 0 10 -3 10 -7z m-45 -63 c3 -5 -1 -10 -9 -10 -9 0 -16 5 -16
10 0 6 4 10 9 10 6 0 13 -4 16 -10z m-951 -492 c4 -17 11 -25 19 -22 8 3 17
-11 25 -41 6 -25 16 -45 22 -45 5 0 10 -9 10 -21 0 -31 18 -59 35 -53 11 5 15
-2 15 -25 0 -19 6 -34 15 -37 8 -4 15 -14 15 -24 0 -27 23 -65 40 -65 8 0 17
-11 18 -25 2 -13 14 -34 27 -46 18 -16 24 -36 30 -91 8 -78 9 -82 48 -106 29
-19 77 -87 77 -111 0 -7 15 -25 34 -40 20 -15 37 -38 41 -56 3 -16 17 -45 31
-65 19 -28 22 -40 14 -55 -10 -18 0 -123 16 -164 5 -13 -2 -13 -58 0 -119 28
-263 44 -405 44 -117 0 -141 -2 -137 -14 4 -10 40 -15 154 -18 99 -3 153 -8
163 -17 11 -8 22 -9 34 -3 21 10 230 -21 272 -41 23 -11 27 -20 33 -76 4 -36
10 -71 13 -79 4 -10 1 -12 -12 -7 -27 12 -151 33 -215 37 -105 6 -65 -16 52
-29 110 -12 189 -29 191 -42 0 -3 2 -26 5 -51 2 -25 13 -77 24 -114 l19 -69
-76 7 c-42 3 -128 6 -191 6 -97 0 -113 2 -108 15 4 11 -2 15 -22 14 -15 0 -21
-3 -14 -6 28 -11 9 -21 -43 -22 -30 0 -55 4 -55 9 0 6 17 10 38 11 34 0 35 1
12 10 -33 13 -71 4 -64 -16 4 -10 0 -15 -11 -15 -11 0 -15 5 -11 15 3 9 0 15
-9 15 -8 0 -15 -4 -15 -10 0 -5 -18 -10 -40 -10 -22 0 -40 5 -40 10 0 6 -12
10 -27 9 -19 0 -23 -3 -13 -7 10 -5 16 -20 15 -44 0 -21 2 -38 4 -38 2 0 19
11 37 25 41 31 90 33 99 5 3 -11 10 -20 15 -20 5 0 12 9 15 20 11 33 60 26
111 -17 43 -35 44 -35 33 -10 -7 15 -16 27 -21 27 -4 0 -8 5 -8 11 0 19 120 2
152 -21 30 -22 49 -27 30 -8 -7 7 -12 16 -12 20 0 15 110 8 157 -11 26 -10 64
-21 83 -24 24 -4 18 0 -20 13 -68 23 -31 27 53 5 32 -8 74 -15 92 -15 l35 0 0
81 c0 51 4 78 10 74 6 -3 10 -39 10 -79 l0 -73 31 -7 c17 -3 64 -6 104 -6 83
0 83 1 80 95 -4 87 10 74 15 -15 l5 -85 88 -3 87 -3 0 43 c0 24 3 68 7 98 6
49 8 52 14 25 4 -16 7 -56 8 -87 1 -77 7 -88 46 -88 28 0 33 4 39 31 3 17 6
60 6 95 0 102 19 86 22 -18 3 -88 4 -93 26 -96 21 -3 22 0 23 75 2 126 14 143
23 31 4 -54 12 -100 16 -103 5 -3 7 -12 3 -20 -4 -12 5 -15 43 -16 l49 -1 -48
-8 c-27 -5 -51 -11 -54 -13 -2 -3 -10 -43 -17 -89 l-12 -83 -5 71 c-6 89 -17
104 -79 104 -67 0 -92 -23 -101 -91 l-6 -54 -2 47 c0 26 -5 58 -11 72 -9 25
-13 26 -90 26 l-80 0 -1 -32 -1 -33 -7 30 -6 30 -105 -4 c-134 -4 -149 -15
-152 -105 l-1 -61 -6 61 -6 60 -62 -24 c-57 -21 -63 -27 -63 -52 0 -16 4 -32
10 -35 9 -6 5 -104 -5 -114 -3 -2 -5 23 -5 55 0 38 -6 67 -15 80 -15 19 -15
19 -35 -5 -11 -13 -20 -33 -20 -45 0 -16 -12 -26 -45 -39 -39 -16 -45 -23 -50
-55 -13 -83 -19 -89 -25 -27 l-5 60 -14 -45 -15 -45 -7 35 -6 35 -2 -41 c0
-23 -9 -59 -18 -80 l-17 -39 -5 34 -6 33 -25 -20 c-15 -12 -30 -42 -40 -78
-18 -64 -39 -84 -38 -34 1 46 -7 45 -22 -2 -7 -24 -18 -47 -24 -53 -34 -30
-49 -70 -55 -143 -2 -25 -20 -1 -32 41 -6 23 -14 37 -16 30 -2 -6 0 -28 5 -47
8 -28 7 -34 -4 -29 -8 3 -14 -1 -14 -8 0 -33 -22 -92 -30 -80 -4 7 -6 21 -3
30 2 10 -5 34 -17 54 -13 22 -17 38 -11 38 6 1 16 2 23 3 20 2 19 22 -2 41
-21 19 -42 13 -22 -7 17 -17 15 -28 -7 -28 -13 0 -24 -13 -35 -40 -9 -23 -23
-43 -31 -46 -8 -4 -12 -10 -9 -16 3 -5 12 -1 20 9 8 11 13 13 14 5 0 -7 -11
-23 -25 -36 -22 -21 -23 -24 -9 -44 8 -12 20 -19 26 -16 7 5 9 2 6 -7 -3 -8 0
-23 8 -33 11 -16 16 -17 29 -6 8 7 19 10 23 6 9 -10 -27 -36 -50 -36 -10 0
-24 -11 -30 -25 -6 -14 -18 -25 -27 -25 -14 0 -14 2 -1 10 13 9 13 10 0 10
-26 1 -41 16 -34 34 4 9 14 16 23 14 9 -1 17 2 19 7 1 6 -20 11 -48 12 -49 3
-55 -1 -51 -34 2 -17 -19 -27 -31 -15 -8 8 -7 16 3 28 12 15 12 16 -6 11 -15
-5 -27 3 -47 30 -16 20 -28 45 -28 56 0 13 -5 17 -15 14 -10 -5 -14 1 -13 21
1 15 -2 50 -6 77 -7 47 -6 52 23 80 17 17 31 33 31 37 1 33 -145 134 -155 106
-24 -70 -27 -74 -35 -53 -4 11 -11 33 -16 49 -10 35 -27 37 -34 5 -4 -16 -15
5 -39 77 -31 94 -72 166 -87 152 -3 -4 -1 -22 5 -40 6 -18 12 -72 13 -119 3
-80 1 -88 -25 -122 -30 -40 -72 -54 -135 -44 -41 7 -36 2 -250 242 -69 77
-152 171 -186 208 -34 38 -65 75 -69 83 -8 14 -76 17 -98 4 -7 -5 -14 -51 -19
-111 l-7 -104 -2 87 c-1 64 -5 91 -17 102 -8 9 -12 16 -8 16 4 0 -1 9 -11 20
-41 45 -84 8 -86 -75 l-2 -50 -7 49 c-3 28 -11 51 -18 54 -6 2 -8 10 -5 18 4
10 -4 14 -30 14 -20 0 -39 5 -42 10 -5 9 16 14 52 13 9 -1 10 4 2 20 -10 18
-9 19 10 14 20 -5 21 -1 21 54 0 32 4 59 9 59 15 0 20 -13 27 -76 7 -71 9 -74
40 -74 22 0 24 4 24 45 0 46 7 54 29 33 10 -11 12 -10 9 1 -2 9 14 17 52 25
83 18 144 58 176 117 7 13 28 -5 111 -95 l101 -112 95 8 c85 7 99 10 122 34
15 15 33 46 40 68 12 39 13 40 14 11 l2 -30 23 29 c20 24 24 42 28 121 3 68 8
96 20 109 9 9 19 36 22 61 3 25 8 65 11 88 6 44 6 44 58 55 29 7 104 15 167
18 63 4 122 10 130 15 10 5 11 8 3 9 -7 0 -13 9 -13 20 0 14 -7 20 -22 20 -21
-1 -21 -2 -5 -11 28 -16 10 -28 -41 -27 -26 1 -95 -7 -154 -17 -113 -18 -138
-16 -138 11 0 16 55 73 99 104 17 12 23 32 32 98 6 45 9 101 7 124 -4 40 -1
44 80 127 76 79 84 91 93 142 9 45 18 64 49 93 35 33 39 42 45 106 6 55 12 73
28 85 13 9 22 27 23 47 1 18 7 34 13 36 6 2 11 19 11 38 0 22 6 37 15 40 9 4
15 19 15 38 0 17 3 42 7 56 l7 25 7 -30 c4 -16 10 -42 13 -57z m-69 -3208 c-3
-5 -12 -10 -18 -10 -7 0 -6 4 3 10 19 12 23 12 15 0z m35 -74 c0 -3 -4 -8 -10
-11 -5 -3 -10 -1 -10 4 0 6 5 11 10 11 6 0 10 -2 10 -4z m30 -41 c-6 -8 -5
-16 3 -25 9 -10 9 -11 -1 -5 -16 8 -32 46 -25 58 3 4 11 3 19 -4 10 -8 11 -15
4 -24z m-451 -449 c69 -78 138 -154 152 -171 15 -16 97 -109 184 -205 87 -96
166 -188 176 -205 26 -41 34 -109 19 -158 -22 -77 -77 -117 -160 -117 -68 0
-94 19 -212 154 -53 61 -182 208 -287 326 -105 118 -191 218 -191 222 0 3 20
18 45 32 79 47 117 119 118 227 1 70 -10 78 156 -105z m5986 54 c-3 -5 -12 -10
-18 -10 -7 0 -6 4 3 10 19 12 23 12 15 0z m-90 -50 c-3 -5 -12 -10 -18 -10 -7
0 -6 4 3 10 19 12 23 12 15 0z m-115 -34 c0 -2 -8 -10 -17 -17 -16 -13 -17
-12 -4 4 13 16 21 21 21 13z m-160 -140 c0 -2 -8 -10 -17 -17 -16 -13 -17
-12 -4 4 13 16 21 21 21 13z m20 -19 c0 -2 -10 -12 -22 -23 l-23 -19 19 23
c18 21 26 27 26 19z m-353 -404 c-3 -10 -5 -2 -5 17 0 19 2 27 5 18 2 -10 2
-26 0 -35z m100 15 c-3 -8 -6 -5 -6 6 -1 11 2 17 5 13 3 -3 4 -12 1 -19z m-26
-104 c-5 -21 -9 -30 -10 -19 -1 24 10 67 15 62 3 -2 0 -22 -5 -43z m-84 -256
c-2 -18 -4 -4 -4 32 0 36 2 50 4 33 2 -18 2 -48 0 -65z m44 61 c-5 -13 -10
-19 -10 -12 -1 15 10 45 15 40 3 -2 0 -15 -5 -28z m0 -116 c-12 -20 -14 -14
-5 12 4 9 9 14 11 11 3 -2 0 -13 -6 -23z m-45 -24 c-9 -19 -15 -26 -16 -16 0
17 21 59 27 53 2 -2 -3 -18 -11 -37z m-5112 -131 c-4 -6 -3 -8 3 -5 11 7 82
-64 102 -101 10 -18 9 -21 -4 -16 -9 4 -24 -6 -40 -24 -48 -57 -176 -116 -238
-110 -31 3 -32 4 -33 53 -1 85 -3 91 -39 146 -25 36 -32 55 -24 59 8 6 8 9 0
14 -6 4 -11 17 -11 29 1 21 1 21 15 -3 l14 -25 1 28 c0 32 20 57 45 57 9 0 23
7 32 15 9 9 23 13 34 10 15 -5 18 -2 13 12 -4 10 26 -15 65 -54 43 -44 69 -78
65 -85z m783 80 c-3 -8 -6 -5 -6 6 -1 11 2 17 5 13 3 -3 4 -12 1 -19z m599
-11 c8 -19 7 -23 -6 -23 -12 0 -16 7 -13 21 2 11 1 14 -3 8 -3 -7 -10 -13 -15
-13 -6 0 -7 5 -3 12 5 8 2 9 -9 5 -10 -3 -17 -2 -17 3 0 6 12 10 28 10 18 0
30 -7 38 -23z m3705 -11 c-11 -27 -24 -37 -16 -11 3 8 7 22 10 31 3 9 8 15 11
12 2 -3 0 -17 -5 -32z m-3918 17 c-7 -2 -19 -2 -25 0 -7 3 -2 5 12 5 14 0 19
-2 13 -5z m134 1 c-3 -3 -12 -4 -19 -1 -8 3 -5 6 6 6 11 1 17 -2 13 -5z m-193
-13 c3 -4 -6 -6 -19 -3 -14 2 -25 6 -25 8 0 8 39 4 44 -5z m334 -26 c-6 -14
-13 -23 -16 -21 -7 7 9 46 18 46 5 0 4 -11 -2 -25z m-1732 -32 c-4 -4 -11 -1
-16 7 -16 25 -11 35 7 17 9 -9 13 -20 9 -24z m1754 -33 c0 -5 -5 -10 -11 -10
-5 0 -7 5 -4 10 3 6 8 10 11 10 2 0 4 -4 4 -10z m-200 -155 c0 -9 -9 -15 -21
-15 -18 0 -19 2 -9 15 7 8 16 15 21 15 5 0 9 -7 9 -15z m-253 -37 c-3 -8 -6
-5 -6 6 -1 11 2 17 5 13 3 -3 4 -12 1 -19z m-1045 -24 c-28 -20 -28 -34 1 -34
16 0 18 3 8 9 -10 7 -11 10 -1 16 8 5 18 1 25 -8 7 -10 17 -17 24 -17 6 0 11
-17 11 -40 0 -22 -5 -40 -11 -40 -6 0 -19 -10 -29 -22 l-18 -22 -7 33 c-6 29
-8 30 -19 15 -8 -10 -18 -14 -25 -9 -7 4 0 -11 15 -34 20 -31 30 -39 37 -29 7
10 8 9 4 -3 -3 -9 -2 -21 1 -26 8 -10 -56 56 -125 130 -24 26 -40 47 -34 47 5
0 19 -12 30 -27 12 -14 24 -23 28 -20 3 4 -1 15 -10 25 -15 16 -15 18 2 18 13
0 17 -7 16 -29 -1 -15 2 -30 7 -33 4 -3 8 4 8 14 0 11 7 23 16 26 22 8 13 29
-17 37 l-24 7 25 1 c14 1 34 8 44 16 11 8 24 15 30 15 6 0 0 -7 -12 -16z
m1177 -75 c-6 -12 -5 -20 1 -24 15 -9 2 -25 -21 -25 -20 0 -26 15 -9 25 6 3
10 16 10 29 0 12 3 26 7 29 12 12 22 -16 12 -34z m41 9 c0 -16 -3 -19 -11 -11
-6 6 -8 16 -5 22 11 17 16 13 16 -11z m-1120 -64 c0 -8 -4 -12 -10 -9 -5 3
-10 10 -10 16 0 5 5 9 10 9 6 0 10 -7 10 -16z m42 -29 c2 -27 -1 -44 -7 -42
-13 5 -19 87 -7 87 6 0 12 -20 14 -45z m-142 19 c0 -8 -4 -12 -10 -9 -5 3 -10
10 -10 16 0 5 5 9 10 9 6 0 10 -7 10 -16z m4545 -94 c3 -5 1 -10 -4 -10 -6 0
-11 5 -11 10 0 6 2 10 4 10 3 0 8 -4 11 -10z m21 -27 c-11 -11 -17 4 -9 23 7
18 8 18 11 1 2 -10 1 -21 -2 -24z m-4473 -7 c4 16 5 16 6 2 2 -31 -17 -29 -39
4 l-22 33 25 -29 c22 -26 25 -27 30 -10z m52 -6 c-3 -5 -11 -10 -16 -10 -6 0
-7 5 -4 10 3 6 11 10 16 10 6 0 7 -4 4 -10z m225 -16 c0 -2 -21 -4 -46 -4 -25
0 -43 4 -40 8 4 7 86 4 86 -4z m47 10 c-3 -3 -12 -4 -19 -1 -8 3 -5 6 6 6 11
1 17 -2 13 -5z m4148 -4 c-3 -5 -11 -10 -16 -10 -6 0 -7 5 -4 10 3 6 11 10 16
10 6 0 7 -4 4 -10z m-10 -40 c3 -5 1 -10 -4 -10 -6 0 -11 5 -11 10 0 6 2 10 4
10 3 0 8 -4 11 -10z m20 -110 c-3 -5 -12 -10 -18 -10 -7 0 -6 4 3 10 19 12 23
12 15 0z m-5764 -2877 c13 -16 12 -17 -3 -4 -10 7 -18 15 -18 17 0 8 8 3 21
-13z"/>
<path d="M1803 9953 c9 -2 25 -2 35 0 9 3 1 5 -18 5 -19 0 -27 -2 -17 -5z"/>
<path d="M1290 9903 c-36 -2 -69 -9 -75 -15 -7 -7 13 -8 65 -3 41 4 140 11
220 15 l145 7 -145 0 c-80 -1 -174 -2 -210 -4z"/>
<path d="M1210 9830 c0 -21 3 -21 238 -14 130 4 239 9 242 12 3 2 -103 2 -235
0 -204 -5 -235 -3 -205 8 l35 12 -37 1 c-32 1 -38 -2 -38 -19z"/>
<path d="M1450 9664 c-125 -11 -299 -38 -333 -51 -51 -21 -43 -24 19 -8 86 22
328 40 541 40 123 0 194 3 180 8 -24 10 -332 18 -407 11z"/>
<path d="M1895 9640 c3 -5 16 -10 28 -9 21 0 21 1 2 9 -28 12 -37 12 -30 0z"/>
<path d="M1320 9600 c0 -5 5 -10 11 -10 5 0 7 5 4 10 -3 6 -8 10 -11 10 -2 0
-4 -4 -4 -10z"/>
<path d="M1488 9603 c23 -2 59 -2 80 0 20 2 1 4 -43 4 -44 0 -61 -2 -37 -4z"/>
<path d="M1183 9593 c-7 -2 -13 -9 -13 -15 0 -6 7 -7 18 -3 9 4 39 7 67 6 27
-1 47 0 45 2 -8 8 -103 16 -117 10z"/>
<path d="M1472 9581 c-11 -6 -10 -10 4 -15 20 -8 32 0 18 14 -5 5 -15 5 -22 1z"/>
<path d="M1110 9570 c-24 -8 -23 -8 8 -9 17 -1 32 4 32 9 0 11 -5 11 -40 0z"/>
<path d="M1525 9469 c-14 -7 -4 -8 35 -4 132 12 482 -24 541 -55 27 -15 24 2
-3 19 -54 34 -178 50 -368 50 -102 0 -194 -5 -205 -10z"/>
<path d="M1513 9378 c2 -8 21 -13 45 -13 27 0 42 5 42 13 0 8 -16 12 -46 12
-32 0 -44 -4 -41 -12z"/>
<path d="M1620 9381 c0 -16 14 -19 98 -23 48 -3 72 0 72 8 0 6 -20 11 -47 12
-27 1 -65 4 -85 8 -25 4 -38 2 -38 -5z"/>
<path d="M1470 9370 c0 -5 5 -10 10 -10 6 0 10 5 10 10 0 6 -4 10 -10 10 -5 0
-10 -4 -10 -10z"/>
<path d="M1268 9363 c23 -2 61 -2 85 0 23 2 4 4 -43 4 -47 0 -66 -2 -42 -4z"/>
<path d="M1493 9303 c-67 -13 7 -18 275 -19 163 -1 326 -5 362 -8 44 -5 62 -4
55 3 -19 19 -190 31 -430 30 -132 -1 -250 -4 -262 -6z"/>
<path d="M1255 9290 c7 -12 102 -12 130 0 14 6 -5 9 -58 9 -50 1 -76 -3 -72
-9z"/>
<path d="M1218 9283 c7 -3 16 -2 19 1 4 3 -2 6 -13 5 -11 0 -14 -3 -6 -6z"/>
<path d="M1688 9203 c7 -3 16 -2 19 1 4 3 -2 6 -13 5 -11 0 -14 -3 -6 -6z"/>
<path d="M1760 9204 c8 -1 107 -4 220 -6 113 -3 187 -1 165 3 -37 7 -417 10
-385 3z"/>
<path d="M1368 9188 c5 -5 16 -8 23 -6 8 3 3 7 -10 11 -17 4 -21 3 -13 -5z"/>
<path d="M1570 9190 c-8 -5 -12 -11 -9 -14 2 -3 11 -1 19 4 8 5 12 11 9 14 -2
3 -11 1 -19 -4z"/>
<path d="M1258 9183 c12 -2 30 -2 40 0 9 3 -1 5 -23 4 -22 0 -30 -2 -17 -4z"/>
<path d="M1443 9183 c15 -2 37 -2 50 0 12 2 0 4 -28 4 -27 0 -38 -2 -22 -4z"/>
<path d="M1868 9178 c-13 -3 49 -6 137 -5 160 1 151 4 -22 9 -51 2 -103 0
-115 -4z"/>
<path d="M1283 9143 c42 -2 112 -2 155 0 42 1 7 3 -78 3 -85 0 -120 -2 -77 -3z"/>
<path d="M1543 9143 c9 -2 23 -2 30 0 6 3 -1 5 -18 5 -16 0 -22 -2 -12 -5z"/>
<path d="M1903 9143 c26 -2 67 -2 90 0 23 2 2 3 -48 3 -49 0 -68 -1 -42 -3z"/>
<path d="M2058 9143 c6 -2 18 -2 25 0 6 3 1 5 -13 5 -14 0 -19 -2 -12 -5z"/>
<path d="M1937 9103 c6 -15 32 -17 52 -4 9 6 3 10 -22 13 -25 3 -33 0 -30 -9z"/>
<path d="M1090 9095 c-25 -8 -61 -18 -80 -23 -22 -6 49 -7 198 -4 127 3 232 2
232 -2 0 -4 -5 -16 -10 -27 -10 -18 -10 -19 24 -3 33 16 64 60 50 73 -4 3 -9
0 -11 -6 -3 -7 -12 -13 -21 -13 -15 0 -15 2 -2 10 11 7 5 10 -23 10 -23 0 -36
-4 -32 -10 3 -6 -4 -10 -17 -10 -18 0 -20 2 -8 10 11 7 6 10 -22 10 -20 0 -39
-6 -42 -12 -5 -10 -7 -10 -12 0 -3 6 -10 12 -15 12 -6 0 -7 -4 -4 -10 3 -5 -1
-10 -9 -10 -9 0 -16 5 -16 10 0 14 -126 11 -180 -5z m157 -1 c-3 -3 -12 -4
-19 -1 -8 3 -5 6 6 6 11 1 17 -2 13 -5z"/>
<path d="M1900 9099 c0 -5 5 -7 10 -4 6 3 10 8 10 11 0 2 -4 4 -10 4 -5 0 -10
-5 -10 -11z"/>
<path d="M250 9010 c0 -31 5 -37 40 -54 22 -11 42 -17 44 -15 3 2 -15 27 -39
54 l-44 50 -1 -35z"/>
<path d="M1790 8910 l-245 -5 -6 -50 c-4 -31 -1 -65 7 -90 l14 -40 -4 36 -4
37 76 10 c188 26 185 26 178 6 -3 -11 -2 -25 3 -32 6 -10 10 -5 14 16 10 48
91 60 107 16 15 -39 13 -42 -32 -49 -67 -10 -78 -15 -78 -34 0 -16 6 -18 45
-13 42 4 45 3 45 -20 0 -27 21 -78 32 -78 4 0 5 13 2 28 -7 36 39 89 86 98 24
5 30 11 28 28 -3 22 -21 25 -65 11 -18 -6 -22 -2 -28 25 -4 17 -5 33 -3 35 1
2 28 6 59 10 55 7 55 7 80 -29 13 -20 29 -34 34 -32 11 3 11 32 1 57 -7 16 23
25 204 58 50 10 -141 10 -550 1z"/>
<path d="M880 8903 c55 -9 131 -47 151 -74 19 -26 26 -29 80 -29 46 0 59 -3
59 -15 0 -8 4 -15 10 -15 5 0 7 7 4 15 -5 12 4 15 47 15 l54 0 22 -48 22 -47
1 46 c0 25 7 68 15 94 8 27 13 50 12 51 -1 1 -57 4 -123 5 l-121 4 23 -35 c34
-50 30 -53 -22 -18 -66 45 -109 57 -189 56 -38 0 -59 -3 -45 -5z"/>
<path d="M821 8818 c118 -135 189 -211 189 -204 0 3 -11 23 -23 44 -13 20 -29
54 -36 74 -19 57 -65 113 -116 142 -90 50 -94 34 -14 -56z"/>
<path d="M1456 8854 c-47 -46 -59 -71 -30 -60 9 3 33 6 55 6 l39 0 0 44 c0 25
-4 47 -9 50 -4 3 -29 -15 -55 -40z"/>
<path d="M1390 8771 c0 -16 12 -41 20 -41 4 0 5 11 2 25 -4 23 -22 36 -22 16z"/>
<path d="M1680 8738 c-100 -21 -109 -27 -37 -26 75 1 87 -4 66 -29 -8 -10 -16
-31 -18 -48 -3 -32 -5 -34 73 70 13 18 0 45 -21 44 -10 -1 -38 -6 -63 -11z"/>
<path d="M1476 8712 c-6 -11 10 -82 22 -94 12 -12 21 53 10 81 -8 21 -23 27
-32 13z"/>
<path d="M1139 8643 c20 -50 27 -61 29 -42 7 64 11 69 48 69 49 0 34 16 -23
24 -27 4 -55 9 -64 12 -14 4 -12 -7 10 -63z"/>
<path d="M1662 8693 c-6 -3 -9 -9 -6 -15 4 -7 -4 -8 -24 -3 -27 6 -32 3 -37
-18 -4 -14 -5 -36 -3 -49 3 -23 6 -22 51 28 44 48 51 68 19 57z"/>
<path d="M1410 8670 c0 -5 7 -7 15 -4 8 4 15 8 15 10 0 2 -7 4 -15 4 -8 0 -15
-4 -15 -10z"/>
<path d="M1283 8585 c0 -22 2 -30 4 -17 2 12 2 30 0 40 -3 9 -5 -1 -4 -23z"/>
<path d="M1421 8406 c-14 -16 -4 -26 25 -26 16 0 22 4 18 14 -8 21 -31 27 -43
12z"/>
<path d="M1380 8321 c0 -14 24 -31 45 -31 11 0 30 -7 42 -15 19 -13 22 -13 27
1 10 27 7 46 -8 41 -8 -3 -17 -3 -20 1 -9 9 -86 12 -86 3z"/>
<path d="M1346 8292 c-10 -9 6 -56 27 -79 23 -25 43 -30 50 -10 5 17 -3 47
-15 47 -5 0 -20 11 -33 24 -13 13 -26 21 -29 18z"/>
<path d="M1580 8275 c-14 -16 -3 -20 19 -6 8 5 9 11 3 15 -5 3 -15 -1 -22 -9z"/>
<path d="M1442 8177 c-20 -47 -24 -74 -13 -81 5 -4 15 3 21 14 9 17 14 19 26
9 10 -8 14 -8 14 0 0 6 -4 11 -8 11 -5 0 -13 17 -19 38 l-10 37 -11 -28z"/>
<path d="M1535 8130 c-3 -5 -1 -10 4 -10 6 0 11 5 11 10 0 6 -2 10 -4 10 -3 0
-8 -4 -11 -10z"/>
<path d="M2735 12779 c-10 -30 -2 -32 12 -3 6 13 7 24 3 24 -5 0 -12 -9 -15
-21z"/>
<path d="M3753 12763 c-12 -59 -8 -341 6 -413 26 -134 106 -332 176 -436 97
-145 267 -242 550 -314 466 -120 720 -230 910 -394 33 -29 73 -63 89 -77 38
-33 140 -160 191 -239 94 -146 164 -369 185 -590 6 -66 9 -296 8 -545 -3 -383
-1 -438 15 -505 44 -187 108 -340 196 -470 74 -109 164 -198 372 -370 208
-172 341 -364 406 -585 12 -43 17 -96 17 -185 0 -106 -3 -135 -23 -188 -45
-123 -89 -180 -226 -297 -216 -183 -280 -249 -349 -358 -48 -75 -58 -105 -112
-326 -46 -190 -98 -328 -157 -418 -63 -94 -170 -186 -289 -248 -21 -10 -36
-21 -34 -23 6 -5 97 42 147 77 75 50 134 107 174 168 21 32 46 69 55 83 33 50
82 196 120 361 58 248 83 304 192 430 69 81 303 285 324 283 7 -1 12 2 9 6 -3
5 12 23 33 42 143 125 196 407 121 638 -30 90 -71 169 -145 280 -66 99 -132
166 -363 364 -63 54 -126 113 -142 130 -15 17 -43 48 -62 70 -82 91 -181 293
-225 461 -38 146 -43 224 -40 702 3 398 1 470 -14 553 -55 303 -153 494 -358
701 -211 212 -443 332 -865 445 -477 128 -601 191 -699 356 -20 35 -42 70 -47
78 -49 79 -105 249 -125 382 -13 87 -15 146 -10 261 7 147 4 180 -11 110z"/>
<path d="M5751 12783 c8 -10 16 -20 19 -23 6 -6 179 -223 230 -290 19 -25 40
-51 48 -58 7 -8 25 -30 40 -50 15 -21 29 -39 32 -42 8 -7 189 -236 230 -290
19 -25 37 -47 41 -50 19 -14 157 -224 184 -280 40 -80 77 -190 100 -294 14
-63 17 -108 12 -230 -7 -197 -41 -355 -127 -586 -57 -154 -125 -354 -137 -405
-61 -256 -56 -476 14 -660 58 -152 131 -258 296 -435 242 -259 377 -516 428
-815 6 -38 17 -104 24 -145 11 -66 13 -19 14 378 1 441 0 455 -19 482 -11 16
-28 31 -38 34 -9 3 -22 16 -27 28 -6 13 -15 23 -22 23 -6 0 -15 4 -20 9 -5 5
-3 6 5 2 20 -12 14 3 -19 44 -20 25 -37 37 -48 33 -12 -4 -13 -3 -3 5 10 7 2
24 -37 76 -28 37 -60 85 -72 107 -12 24 -24 37 -31 33 -7 -4 -8 -3 -4 5 4 6
-4 35 -17 64 -55 115 -72 201 -71 352 1 150 12 211 64 360 34 97 84 192 148
281 26 36 52 73 57 82 18 30 135 181 145 187 7 4 10 363 10 1046 l0 1039 -731
0 c-695 0 -731 -1 -718 -17z m1156 -1655 c-3 -8 -6 -5 -6 6 -1 11 2 17 5 13 3
-3 4 -12 1 -19z m-132 -1618 c-3 -5 -12 -10 -18 -10 -7 0 -6 4 3 10 19 12 23
12 15 0z m85 -185 c0 -5 -16 15 -35 45 -19 30 -35 59 -35 65 0 5 16 -15 35
-45 19 -30 35 -59 35 -65z"/>
<path d="M2684 12708 c-23 -33 -46 -80 -35 -74 8 6 10 0 6 -21 -6 -25 -5 -24
10 7 10 19 22 46 28 60 6 14 13 28 15 33 6 12 -15 8 -24 -5z"/>
<path d="M5284 12316 c1 -8 5 -18 8 -22 4 -3 5 1 4 10 -1 8 -5 18 -8 22 -4 3
-5 -1 -4 -10z"/>
<path d="M2085 12151 c-3 -5 -1 -12 5 -16 12 -7 30 2 30 16 0 12 -27 12 -35 0z"/>
<path d="M1964 12107 c-7 -8 -3 -18 18 -35 15 -13 31 -21 36 -18 4 2 14 1 22
-4 11 -7 11 -11 1 -24 -9 -11 -10 -16 -2 -16 13 0 35 49 26 58 -3 3 -5 0 -5
-7 0 -7 -5 -9 -10 -6 -6 4 -8 10 -6 14 3 4 -8 6 -24 5 -24 -2 -29 2 -27 18 2
24 -13 32 -29 15z"/>
<path d="M2412 12100 c0 -14 2 -19 5 -12 2 6 2 18 0 25 -3 6 -5 1 -5 -13z"/>
<path d="M2451 12084 c0 -11 3 -14 6 -6 3 7 2 16 -1 19 -3 4 -6 -2 -5 -13z"/>
<path d="M2160 12060 c0 -5 5 -10 10 -10 6 0 10 5 10 10 0 6 -4 10 -10 10 -5
0 -10 -4 -10 -10z"/>
<path d="M2436 11985 c4 -8 8 -15 10 -15 2 0 4 7 4 15 0 8 -4 15 -10 15 -5 0
-7 -7 -4 -15z"/>
<path d="M2451 11934 c0 -11 3 -14 6 -6 3 7 2 16 -1 19 -3 4 -6 -2 -5 -13z"/>
<path d="M2126 11905 c-3 -9 -2 -24 3 -32 7 -14 10 -13 16 6 8 27 -9 51 -19
26z"/>
<path d="M4095 11809 c-11 -16 -1 -19 13 -3 7 8 8 14 3 14 -5 0 -13 -5 -16
-11z"/>
<path d="M2305 11770 c-3 -5 -1 -10 4 -10 6 0 11 5 11 10 0 6 -2 10 -4 10 -3
0 -8 -4 -11 -10z"/>
<path d="M2792 11580 c7 -11 16 -20 20 -20 5 0 3 9 -4 20 -7 11 -16 20 -20 20
-5 0 -3 -9 4 -20z"/>
<path d="M2560 11500 c0 -13 11 -13 30 0 12 8 11 10 -7 10 -13 0 -23 -4 -23
-10z"/>
<path d="M2560 11460 c0 -5 10 -10 23 -10 18 0 19 2 7 10 -19 13 -30 13 -30 0z"/>
<path d="M2623 10952 c-13 -2 -23 -8 -23 -13 0 -10 50 -10 95 0 30 7 29 7 -10
12 -22 2 -50 3 -62 1z"/>
<path d="M6073 9715 c0 -27 2 -38 4 -22 2 15 2 37 0 50 -2 12 -4 0 -4 -28z"/>
<path d="M7011 8174 c0 -11 3 -14 6 -6 3 7 2 16 -1 19 -3 4 -6 -2 -5 -13z"/>
<path d="M7192 7940 c0 -14 2 -19 5 -12 2 6 2 18 0 25 -3 6 -5 1 -5 -13z"/>
<path d="M1920 7460 c0 -5 4 -10 9 -10 5 0 18 -3 28 -6 16 -6 16 -5 -2 9 -23
19 -35 21 -35 7z"/>
<path d="M6851 7323 c-10 -26 -10 -27 4 -9 8 11 15 23 15 28 0 15 -7 8 -19
-19z"/>
<path d="M1621 7263 c7 -12 15 -20 18 -17 3 2 -3 12 -13 22 -17 16 -18 16 -5
-5z"/>
<path d="M1656 7257 c3 -10 9 -15 12 -12 3 3 0 11 -7 18 -10 9 -11 8 -5 -6z"/>
<path d="M6735 7210 c-10 -11 -14 -20 -9 -20 5 0 15 9 22 20 7 11 11 20 9 20
-2 0 -12 -9 -22 -20z"/>
<path d="M6705 7160 c-4 -6 -10 -8 -15 -5 -4 3 -11 -2 -14 -10 -4 -13 -2 -13
14 -5 18 10 36 30 26 30 -3 0 -8 -5 -11 -10z"/>
<path d="M6656 7095 c-3 -8 -1 -15 4 -15 6 0 10 7 10 15 0 8 -2 15 -4 15 -2 0
-6 -7 -10 -15z"/>
<path d="M6546 6905 c-9 -26 -7 -32 5 -12 6 10 9 21 6 23 -2 3 -7 -2 -11 -11z"/>
<path d="M6630 6850 c0 -5 5 -10 11 -10 5 0 7 5 4 10 -3 6 -8 10 -11 10 -2 0
-4 -4 -4 -10z"/>
<path d="M6600 6823 c0 -9 -12 -31 -27 -47 l-28 -31 32 29 c31 28 50 66 32 66
-5 0 -9 -8 -9 -17z"/>
<path d="M6497 6815 c-4 -8 -2 -17 3 -20 6 -4 10 3 10 14 0 25 -6 27 -13 6z"/>
<path d="M6553 6795 c0 -8 4 -12 9 -9 5 3 6 10 3 15 -9 13 -12 11 -12 -6z"/>
<path d="M6485 6781 c4 -8 2 -17 -6 -22 -9 -6 -10 -9 -2 -9 19 0 27 21 13 33
-10 9 -11 9 -5 -2z"/>
<path d="M6523 6762 c-1 -22 0 -24 9 -8 6 10 6 22 2 26 -5 5 -10 -3 -11 -18z"/>
<path d="M6460 6733 c0 -6 8 -17 18 -24 16 -13 16 -13 2 6 -8 11 -16 22 -17
24 -2 2 -3 0 -3 -6z"/>
<path d="M6498 6733 c6 -2 10 -8 8 -12 -3 -4 1 -8 9 -8 11 0 12 4 4 14 -6 7
-17 13 -23 12 -7 0 -6 -2 2 -6z"/>
<path d="M6427 6663 c-4 -3 -7 -11 -7 -17 0 -6 5 -5 12 2 6 6 9 14 7 17 -3 3
-9 2 -12 -2z"/>
<path d="M6386 6529 c-12 -40 -15 -74 -11 -98 6 -31 9 -33 15 -16 12 27 11 56
0 30 -8 -18 -9 -17 -9 7 -1 15 4 39 10 55 10 26 12 27 20 8 6 -14 7 -6 4 24
-2 24 -6 45 -8 48 -2 2 -12 -24 -21 -58z"/>
<path d="M6347 6333 c-4 -28 -16 -78 -27 -110 -11 -32 -20 -67 -20 -78 0 -19
0 -19 14 1 8 11 16 38 19 60 3 37 4 36 5 -10 1 -34 -3 -55 -15 -68 -11 -13
-14 -22 -7 -26 6 -4 15 -20 19 -37 l8 -30 8 25 c4 14 6 -27 4 -95 -4 -118 -4
-119 5 -30 10 115 18 448 10 415 -7 -25 -7 -25 -11 5 -4 25 -6 21 -12 -22z
m10 -90 c0 -59 -1 -63 -8 -28 -6 33 -2 95 6 95 1 0 2 -30 2 -67z"/>
<path d="M2090 6212 c0 -11 62 -74 67 -68 3 3 -7 17 -21 33 -14 15 -26 31 -26
35 0 5 -4 8 -10 8 -5 0 -10 -4 -10 -8z"/>
<path d="M2170 6139 c0 -10 49 -64 53 -59 3 3 -8 19 -24 35 -16 17 -29 27 -29
24z"/>
<path d="M6282 6095 c-17 -37 -14 -45 4 -12 9 16 14 31 11 33 -2 2 -9 -7 -15
-21z"/>
<path d="M2670 6051 c0 -7 182 -2 189 5 3 3 -39 4 -92 3 -53 -1 -97 -4 -97 -8z"/>
<path d="M6317 6054 c-4 -4 -7 -14 -7 -23 0 -11 3 -12 11 -4 6 6 10 16 7 23
-2 6 -7 8 -11 4z"/>
<path d="M2618 6043 c6 -2 18 -2 25 0 6 3 1 5 -13 5 -14 0 -19 -2 -12 -5z"/>
<path d="M6336 6015 c-3 -8 -1 -15 4 -15 6 0 10 7 10 15 0 8 -2 15 -4 15 -2 0
-6 -7 -10 -15z"/>
<path d="M2738 5983 c12 -2 32 -2 45 0 12 2 2 4 -23 4 -25 0 -35 -2 -22 -4z"/>
<path d="M6219 5953 c-22 -46 -22 -50 1 -15 13 18 20 35 18 37 -3 3 -11 -7
-19 -22z"/>
<path d="M6321 5940 c0 -8 4 -22 9 -30 12 -18 12 -2 0 25 -6 13 -9 15 -9 5z"/>
<path d="M7063 5912 c-40 -15 -81 -34 -90 -42 -10 -9 -33 -22 -50 -29 -18 -7
-33 -17 -33 -22 0 -5 17 0 38 11 122 68 141 76 217 94 50 11 54 14 25 14 -19
1 -68 -11 -107 -26z"/>
<path d="M2663 5923 c9 -2 23 -2 30 0 6 3 -1 5 -18 5 -16 0 -22 -2 -12 -5z"/>
<path d="M2853 5923 c9 -2 25 -2 35 0 9 3 1 5 -18 5 -19 0 -27 -2 -17 -5z"/>
<path d="M2428 5873 c7 -3 16 -2 19 1 4 3 -2 6 -13 5 -11 0 -14 -3 -6 -6z"/>
<path d="M2815 5870 c-22 -4 7 -5 65 -3 58 3 107 7 109 9 8 7 -133 1 -174 -6z"/>
<path d="M6156 5853 c-6 -14 -5 -15 5 -6 7 7 10 15 7 18 -3 3 -9 -2 -12 -12z"/>
<path d="M6331 5853 c-1 -6 -4 -20 -7 -30 -5 -15 -4 -16 6 -3 9 12 10 9 6 -15
-5 -24 -4 -27 5 -12 7 12 7 26 0 45 -5 15 -10 22 -10 15z"/>
<path d="M3157 5839 c7 -7 15 -10 18 -7 3 3 -2 9 -12 12 -14 6 -15 5 -6 -5z"/>
<path d="M2863 5833 c-20 -8 -15 -20 11 -25 19 -4 22 -1 18 14 -4 19 -8 20
-29 11z"/>
<path d="M2928 5832 c-28 -5 -21 -19 12 -25 36 -8 38 -20 8 -36 -23 -11 -23
-11 2 -5 14 3 39 19 56 35 17 16 33 26 37 23 4 -4 7 -2 7 4 0 8 -17 12 -47 11
-38 -1 -43 -3 -23 -9 23 -7 23 -8 6 -15 -13 -6 -23 -3 -30 6 -6 8 -19 13 -28
11z"/>
<path d="M6835 5776 c-59 -46 -152 -143 -219 -227 -33 -41 -67 -80 -75 -86 -8
-7 -12 -15 -9 -18 4 -5 102 104 173 193 25 32 112 111 160 146 11 8 18 16 15
19 -3 3 -23 -9 -45 -27z"/>
<path d="M2910 5790 c0 -5 7 -10 15 -10 8 0 15 5 15 10 0 6 -7 10 -15 10 -8 0
-15 -4 -15 -10z"/>
<path d="M3270 5783 c0 -15 18 -35 23 -27 3 5 -1 15 -9 22 -8 7 -14 9 -14 5z"/>
<path d="M6130 5779 c0 -5 5 -7 10 -4 6 3 10 8 10 11 0 2 -4 4 -10 4 -5 0 -10
-5 -10 -11z"/>
<path d="M2905 5760 c3 -5 8 -10 11 -10 2 0 4 5 4 10 0 6 -5 10 -11 10 -5 0
-7 -4 -4 -10z"/>
<path d="M3350 5706 c0 -2 8 -10 18 -17 15 -13 16 -12 3 4 -13 16 -21 21 -21
13z"/>
<path d="M3655 5610 c-3 -6 1 -7 9 -4 18 7 21 14 7 14 -6 0 -13 -4 -16 -10z"/>
<path d="M3819 5555 c28 -16 58 -25 87 -25 24 0 44 -5 44 -11 0 -5 5 -7 11 -3
17 10 -11 24 -51 24 -19 0 -55 9 -79 20 -59 27 -65 25 -12 -5z"/>
<path d="M3970 5549 c0 -5 5 -7 10 -4 6 3 10 8 10 11 0 2 -4 4 -10 4 -5 0 -10
-5 -10 -11z"/>
<path d="M3800 5540 c8 -5 20 -10 25 -10 6 0 3 5 -5 10 -8 5 -19 10 -25 10 -5
0 -3 -5 5 -10z"/>
<path d="M3770 5520 c-11 -7 -4 -10 25 -9 31 0 36 2 20 9 -26 11 -28 11 -45 0z"/>
<path d="M3932 5449 c-8 -30 -7 -38 0 -31 10 10 22 72 14 72 -2 0 -8 -19 -14
-41z"/>
<path d="M6490 5405 c-13 -14 -20 -25 -16 -25 4 0 18 11 32 25 14 14 21 25 16
25 -5 0 -19 -11 -32 -25z"/>
<path d="M3895 5379 c-4 -6 -17 -14 -29 -19 l-21 -9 22 0 c31 -1 53 9 53 25 0
17 -16 19 -25 3z"/>
<path d="M2765 5347 c17 -8 32 -13 34 -11 7 7 -3 12 -34 19 l-30 6 30 -14z"/>
<path d="M6440 5350 c-9 -6 -10 -10 -3 -10 6 0 15 5 18 10 8 12 4 12 -15 0z"/>
<path d="M6399 5313 c-13 -17 -13 -17 6 -3 11 8 22 16 24 17 2 2 0 3 -6 3 -6
0 -17 -8 -24 -17z"/>
<path d="M6349 5273 c-13 -17 -13 -17 6 -3 11 8 22 16 24 17 2 2 0 3 -6 3 -6
0 -17 -8 -24 -17z"/>
<path d="M3681 5224 c0 -11 3 -14 6 -6 3 7 2 16 -1 19 -3 4 -6 -2 -5 -13z"/>
<path d="M3788 5233 c7 -3 16 -2 19 1 4 3 -2 6 -13 5 -11 0 -14 -3 -6 -6z"/>
<path d="M3030 5200 c-9 -6 -10 -10 -3 -10 6 0 15 5 18 10 8 12 4 12 -15 0z"/>
<path d="M3610 5186 c7 -7 13 -7 20 0 6 6 3 10 -10 10 -13 0 -16 -4 -10 -10z"/>
<path d="M3652 5184 c-7 -8 -8 -14 -3 -14 10 0 25 19 20 25 -2 1 -10 -3 -17
-11z"/>
<path d="M3080 5180 c0 -5 5 -10 10 -10 6 0 10 5 10 10 0 6 -4 10 -10 10 -5 0
-10 -4 -10 -10z"/>
<path d="M5705 5180 c3 -5 10 -10 16 -10 5 0 9 5 9 10 0 6 -7 10 -16 10 -8 0
-12 -4 -9 -10z"/>
<path d="M3630 5145 c-7 -8 -17 -12 -23 -8 -6 4 -7 1 -2 -7 4 -7 2 -16 -6 -21
-8 -5 -9 -9 -3 -9 13 0 59 48 52 55 -3 3 -11 -1 -18 -10z"/>
<path d="M5696 5073 c-6 -14 -5 -15 5 -6 7 7 10 15 7 18 -3 3 -9 -2 -12 -12z"/>
</g>
</svg>
