<svg xmlns="http://www.w3.org/2000/svg" width="1200" height="630" fill="none" viewBox="0 0 1200 630"><defs><linearGradient id="bgGradient" x1="0%" x2="100%" y1="0%" y2="100%"><stop offset="0%" style="stop-color:#0f1419;stop-opacity:1"/><stop offset="50%" style="stop-color:#1a2332;stop-opacity:1"/><stop offset="100%" style="stop-color:#0f1419;stop-opacity:1"/></linearGradient><radialGradient id="accentGlow" cx="50%" cy="50%" r="50%"><stop offset="0%" style="stop-color:#b87333;stop-opacity:.3"/><stop offset="100%" style="stop-color:#b87333;stop-opacity:0"/></radialGradient></defs><rect width="1200" height="630" fill="url(#bgGradient)"/><ellipse cx="200" cy="150" fill="url(#accentGlow)" rx="300" ry="300"/><ellipse cx="1000" cy="480" fill="url(#accentGlow)" rx="250" ry="250"/><text x="600" y="450" fill="#B87333" font-family="Playfair Display, serif" font-size="320" font-weight="bold" opacity=".08" text-anchor="middle">7K</text><g><g transform="translate(100, 180) translate(50, 0) scale(1.2)"><text x="60" y="100" fill="#B87333" font-family="Playfair Display, serif" font-size="160" font-weight="bold" opacity=".08" text-anchor="middle">7K</text><rect width="70" height="60" x="25" y="10" fill="#2d5a7b" opacity=".95" rx="10"/><rect width="10" height="8" x="20" y="15" fill="#1a3a4b"/><rect width="10" height="8" x="90" y="15" fill="#1a3a4b"/><circle cx="45" cy="35" r="8" fill="#4a90b8"/><circle cx="75" cy="35" r="8" fill="#4a90b8"/><circle cx="45" cy="35" r="4" fill="#6eb5d9"/><circle cx="75" cy="35" r="4" fill="#6eb5d9"/><rect width="30" height="6" x="45" y="55" fill="#4a90b8" rx="3"/><rect width="80" height="90" x="20" y="75" fill="#2d5a7b" opacity=".95" rx="8"/><circle cx="35" cy="95" r="5" fill="#4a90b8"/><circle cx="85" cy="95" r="5" fill="#4a90b8"/><g transform="translate(35, 110)"><ellipse cx="25" cy="25" fill="#6eb5d9" rx="22" ry="18"/><circle cx="25" cy="10" r="12" fill="#6eb5d9"/><path fill="#6eb5d9" d="M 18 5 L 15 0 L 20 8 Z"/><path fill="#6eb5d9" d="M 32 5 L 35 0 L 30 8 Z"/><path fill="none" stroke="#1a2332" stroke-width="1.5" d="M 20 9 Q 22 11 24 9"/><path fill="none" stroke="#1a2332" stroke-width="1.5" d="M 26 9 Q 28 11 30 9"/><circle cx="25" cy="13" r="1.5" fill="#1a2332"/><path fill="none" stroke="#6eb5d9" stroke-linecap="round" stroke-width="8" d="M 45 30 Q 55 25 58 35"/></g><path fill="none" stroke="#B87333" stroke-width="3" d="M 50 145 L 60 165 L 70 145 Z"/><circle cx="60" cy="155" r="2" fill="#B87333"/></g><text x="220" y="50" fill="#B87333" font-family="Playfair Display, serif" font-size="56" font-weight="bold" transform="translate(100, 180)">Building the 7K Ecosystem</text><text x="220" y="110" fill="#e2d4c5" font-family="PT Sans, sans-serif" font-size="32" opacity=".9" transform="translate(100, 180)">One Idea at a Time.</text><text x="220" y="170" fill="#9ca3af" font-family="PT Sans, sans-serif" font-size="24" transform="translate(100, 180)">Kunal Chheda</text><text x="220" y="205" fill="#6b7280" font-family="PT Sans, sans-serif" font-size="18" transform="translate(100, 180)">12th Grade Student Developer • 20+ Apps Built</text></g><text x="600" y="590" fill="#B87333" font-family="Inter, sans-serif" font-size="20" text-anchor="middle">7kc.me</text></svg>